<mxfile host="app.diagrams.net" modified="2020-11-27T03:55:27.564Z" agent="5.0 (Windows NT 10.0; Win64; x64) AppleWebKit/537.36 (KHTML, like Gecko) Chrome/87.0.4280.66 Safari/537.36" etag="k2kPdXKK64T5lQTqqBDn" version="13.10.3" type="github">
  <diagram id="Kk3GWrY4ne_xOB3aC5Nn" name="第 1 页">
    <mxGraphModel dx="1422" dy="762" grid="1" gridSize="10" guides="1" tooltips="1" connect="1" arrows="1" fold="1" page="1" pageScale="1" pageWidth="827" pageHeight="1169" math="0" shadow="0">
      <root>
        <mxCell id="0" />
        <mxCell id="1" parent="0" />
        <mxCell id="Cw8pjtoGrhIZzzrx0jGk-1" value="" style="rounded=0;whiteSpace=wrap;html=1;" vertex="1" parent="1">
          <mxGeometry x="91" y="250" width="499" height="50" as="geometry" />
        </mxCell>
        <mxCell id="Cw8pjtoGrhIZzzrx0jGk-2" value="旅馆" style="text;html=1;strokeColor=none;fillColor=none;align=center;verticalAlign=middle;whiteSpace=wrap;rounded=0;" vertex="1" parent="1">
          <mxGeometry x="130" y="40" width="40" height="20" as="geometry" />
        </mxCell>
        <mxCell id="Cw8pjtoGrhIZzzrx0jGk-3" value="的" style="text;html=1;strokeColor=none;fillColor=none;align=center;verticalAlign=middle;whiteSpace=wrap;rounded=0;" vertex="1" parent="1">
          <mxGeometry x="220" y="40" width="40" height="20" as="geometry" />
        </mxCell>
        <mxCell id="Cw8pjtoGrhIZzzrx0jGk-4" value="客房" style="text;html=1;strokeColor=none;fillColor=none;align=center;verticalAlign=middle;whiteSpace=wrap;rounded=0;" vertex="1" parent="1">
          <mxGeometry x="290" y="40" width="40" height="20" as="geometry" />
        </mxCell>
        <mxCell id="Cw8pjtoGrhIZzzrx0jGk-5" value="应" style="text;html=1;strokeColor=none;fillColor=none;align=center;verticalAlign=middle;whiteSpace=wrap;rounded=0;" vertex="1" parent="1">
          <mxGeometry x="375" y="40" width="40" height="20" as="geometry" />
        </mxCell>
        <mxCell id="Cw8pjtoGrhIZzzrx0jGk-6" value="设置" style="text;html=1;strokeColor=none;fillColor=none;align=center;verticalAlign=middle;whiteSpace=wrap;rounded=0;" vertex="1" parent="1">
          <mxGeometry x="460" y="40" width="40" height="20" as="geometry" />
        </mxCell>
        <mxCell id="Cw8pjtoGrhIZzzrx0jGk-7" value="" style="shape=image;verticalLabelPosition=bottom;labelBackgroundColor=#ffffff;verticalAlign=top;aspect=fixed;imageAspect=0;image=data:image/png,iVBORw0KGgoAAAANSUhEUgAAAlYAAAFoCAYAAACVPbVfAAAgAElEQVR4AeydB1RURxfHqXYpooCKimADe+9dk8/Yjb33btRYE2PsxthjorHEEkvsxl5j7xUrogIiRUCKIHWR9fedt4CCAooCCnvfOXt2X5vym9m3/71z544OsgkBISAEhIAQEAJCQAikCgGdVElFEhECQkAICAEhIASEgBBAhJV0AiEgBISAEBACQkAIpBIBEVapBFKSEQJCQAgIASEgBISACCvpA0JACAgBISAEhIAQSCUCIqxSCaQkIwSEgBAQAkJACAgBEVbSB4SAEBACQkAICAEhkEoERFilEkhJRggIASEgBISAEBACIqykDwgBISAEhIAQEAJCIJUIiLBKJZCSjBAQAkJACAgBISAERFhJHxACQkAICAEhIASEQCoREGGVSiAlGSEgBISAEBACQkAIiLCSPiAEhIAQEAJCQAgIgVQiIMIqlUBKMkJACAgBISAEhIAQEGElfUAICAEhIASEgBAQAqlEQIRVKoGUZISAEBACQkAICAEhIMJK+oAQEAJCQAgIASEgBFKJgAirVAIpyQgBISAEhIAQEAJCQISV9AEhIASEgBAQAkJACKQSARFWqQRSkhECQuBTCUTzaOuP9Ow8kc1OPoS8+tT05H4hIASEQPoTEGGV/swlRyEgBBIlEMGRcTWxKdOdNbe9CM3swirKhd1TutCkXismbr2FT2h0olTkoBAQAhmLgAirjNVeUlohkOkIqAOdOLZuDmP6taNmURNymNpQq0VXhs/czg2fEKI+k8CK9DjP1sU/8eu2O3gHv0x17lG3FtPW3oJsunoYfzOfK4+fo071XCRBISAE0puACKv0Ji75CQEhEEtAje/JuXQsb0FOfV109fTQ09XFIFsucmY1wNCqC3/d8vpMQ4JqvDf2o3xBU6qMPcyDZ6rUb7XwW6we1AB728r0Wnoe96DUF2+pX2hJUQgIgfcREGH1PkJyXggIgTQhoPbexYjqhTE2tuPb6Vu4eHcd/ctbU3nQNhy9AvDz9CFIFfWZrDjpIKzShKokKgSEwOcmIMLqc7eA5C8EtJRA8O4RVC5kjHnb33HwCCbq7m+0LWVF02nneByQ0N9I7X2NvRvXsHLTCR4GhvGObSfCmVPb1vPXmoPc9gtB9ZHDh9Fu5/n3n3WsWrmChYPqUsg0J0W/+Z6ZC/9k5cqVMa+/tnPeNZBwlTc3Dmxlw9aTPAwIfbdMmnYN5eGpnWxav4/r3sFEvlLjf/sI2zesfpPeyr/YdcmdoPDkBwJDXM7wz8KJDOregXbtOtNnzK9sPOtMYEQ0CaurJvjhcdbNHk3fzu3p0H0QPyzZy03vzzesqqVdXKqtpQREWGlpw0u1hcDnJhCybyRVCxuTs+o4Dj70I+jIOGra2NF11S08354SGHyUifWsMc1RjpF7H+AbmVBKBB+ZQN2ippjUm8JJ5wCiPrJyoXu+o3JhI3R1dNBJ6mVgx5Ad9/AOvc/SDqXJX7A1i689ISgxXRR1h8Vt7bEs1JYl158Q/CoKhwWtsTPPGi8PQyp9fwAn3ySGG9UBXF3en9qFjTDU08MghxFGObNioK+LQYn+bL7tRdhrHOE4bR5JQxsTsucuQMnylShTNC85sxhiVLYPKy64kwbuYh9JW24TApmTgAirzNmuUish8MUTUPsfYWKDophmyUKBmr34vntNrMxrMObgA569Y3KK4PLs/1Esbw6K99/MPe+weFaaQPaProm1qRlfzTmP2/OE1q6UgFD7PeDy2ZMcO3aUHT81p1je3Nh1+ZV1Ow5x7NixmNfxC9z3DUOlfsHe0dUpkrcGE489wC8xNaf6jx/r2pKv4nfsdvTRWKxeuN3kwunjmjy2/fgNxfIZUTlJYaXGY8d31LU2IZt5dQYsOYJTQATRr6IJ8bzO/n9P4uT34rWQDLk8l9Z2FphXHsS6S56EKKa9aD8uLOpMBcvcFGy9iPOPg/h4QimhKdcKAe0kIMJKO9tdai0EvggCofe2Mr5ZKcyy62ssOLoGRfjfD2s55x6C6i0LUPT9P2hvZ0Guwl1ZfdPztVO72m8Xw6sVwsSyFYuvuCduOUpxbT/ExyqKG/NbYZe/FL3X38Ir9BVR9/7hx/59mbrTCZ9QNWrvjfSvUIgCzeZx6Z1Zf2o81/fVOMgnKawiLjP7m5KY57Sl+19X8Qh5C0r8eql92TmiJkXMyjBo6x2ehr82Y0HEJX75phQWZk2YdcaZt0Za46cin4WAEPhEAiKsPhGg3C4EhMAnEoj25+6BRfSskp/chrro6OhimK8CnecewTkw4o3zutqd9X3KU8DIgta/XcE9WBEZary3DKKSlTFWHVdy0yMkniXrU8r1IcJKjf+2wVQqXID/zb3M4+eRMULLPAfmrX7j8pMgIh0W0MquAOUGbeHO0/C3yvZ+YRV1Yz6t7CzIXWk0+zQWr2TqFHaEiXVtyFu4HQsPX+K+2xOePIl73WFl7/JYmZak/z+38XozdphMgnJKCAiBjyEgwupjqMk9QkAIpC6B6LssaWuHVfVOfNejMWXNc2JomJ8W88/g9joMgRr/PSOpXtiEPE1mc8Y1kJfRHmzsV4GCxkXptf62xmqUOgX7EGEFqosz+bqEJdVG7+e+5yXmt7KjQO4sGJg1Z/4FN7wPjqe2TQGazDiHyztmovcLq4iDY6hRNA+WbX7nmlvwW8IsYU3VnuvpW8GKXLrJ+IfpF6bb6hu4v+3DljAp2RMCQuATCIiw+gR4cqsQEAKpRCDiGBNq2VC6+2pueQXhtnkQVaxyk73KOA4/8uO1W3foSSY3tCGPcW0mHXPG9+FqepQtgLHdILY7ehN/9OvTSvZhwkoRM33KF6JE51Vc3TuVlnaladujNSXyW9Ns9inOLu5BucKl6bnuFp7vhJL/AGF1RBFmeTBv/RtX3YLeWO8SqZz66SYGVLTCuEAjhs9ewl/r17P+7dfGf7ngGkjYO9MqE0lQDgkBIfBRBERYfRQ2uUkICIHUJKD2WEfPMoWoO/YQD5+peHnvD761MyeX3SB23Pch4rW7kIob81pQ0tyISt/v4cCMtthbGlNh5F6cfCOTteikrLxqvDfFBAitPOZg0gFCVSeZXN+WAk2msGxoXUqW7sTvZzYypnEJijT5iUWDalGsYAN+OvEQv3fEzPuFVdTNRbSxtyBXmaHsuPc0HodEahN+nEkNipE33zfMu/iY58m4YyVytxwSAkIglQiIsEolkJKMEBACKSMQ+syX55FRRL8C1eVZfFXcmtYLrvEk4BnnZ7eiRN4cWLZdynWPFwksNdGPltOlTH6My7eiRVlz8pjWYOKRR/i9NmulrBxJXR2ybxTVipiSv+0SrrgHJyjD63uiH7GiSxkKlW9EgxJmlOiylKvuflyY9T9KFq5FvWrm5CneiRU33HnxWhzG3f1+YaU4nc9SnNdzFKD5vBO4BCY29TA2PbUfu0fWwtrUhCqjd3DX522frrh85V0ICIG0JCDCKi3pStpCQAgkQSCKWwtbUbZ4CcrW/IqW9UphltsUm2r1qGFfAOOsBmQr0pYFp54Q9LaWUD9ly8DKWOXWR1dXl9wNpnHKJSCJAJ1JZP8Bh9Ue/zCgshW5s+anZq+fWfrPLnbv3MSK+UvZfceXYE25wjg0thZFzZS4UgXo8OcN3F+oUV37lRalLMiur4th5TEccPKNGc5Uu3Fo8Q+M6N+b3r1706lBScxyZiVf2a9o17knvXv35fvlp/EMiIgtoRqPf0dRz9oEw2wFqNZpDPNWb2H7lvWsmDOGHv3mcvSR7+sh0PCbf9C5XH5yGppi/81gpi3bxM49e/h320b++v1XZq4+jpt//FAVHwBCLhECQiBFBERYpQiXXCwEhEDqEFDjdWwRw76tRzkbC4yyGqCnqwS/zEOh0vXo+P0yjj8KJCKJgEvPD46ljrUJBnp5+WbBRZ4EJXHhJxVWhcvuSbQonVcjkF4HDI0LEKoZn4zizpJ22FtkQ7+gYpny4IUyBBflwIJWdphn1SNPy0Vci/OPirrO3JZ25MuqzH5MzMlcH6suf3HXIyReycN48O9UOlYuQC7NrMmY+3T1smHRcLImuOqbeKnReJ1eQv96RTHJqpcwD10D8rVeJIs9xyMrH4VAWhAQYZUWVCVNISAEUkAggiPjamJTshMr4sWnSjoBNb67hlOjsDFZrXuw7rYX7/iFJ31zis+oQ724c+4Qu7ZtZcfuw5y9/YTnkS9T0Z/rA4sUFcyTm2c4tHsHO/ce5dw9L15Evr2cTWxa6hC87pzn8L9b2fzPVnbuP85lp6e8UCVx/QcWQS4TAkLg/QREWL2fkVwhBIRAWhJQu7Kqa2msao/l0INn71/nL/gSv7QoSb7sxtT9+RjO/qnsXJWWdZW0hYAQyPQERFhl+iaWCgqBL5yA2o/bR3ey9dht/ENUyVqCop9d4a+BNbEyyopxjQnsfeCX/Ey5L7zqUjwhIAQyHwERVpmvTaVGQiCTEVDjv2s0DcoWwiibAXp6+phW7M9fl7x48U4Ig0xWdamOEBACGY6ACKsM12RSYCGgfQSCTv3GsJ6daN99CD/9eRhHvzBevhO+QPu4SI2FgBD48giIsPry2kRKJASEgBAQAkJACGRQAiKsMmjDSbGFgBAQAkJACAiBL4+ACKsvr02kREJACAgBISAEhEAGJSDCKoM2XEYv9o0bNxgzZgwVK1Zk/PjxBAQEZPQqSfkzOQGlj758Kd7ymbyZpXpC4JMJiLD6ZISSQEoI+Pr6MnLkSIoXL87kyZO5cOECgYGBqNWyYmxKOMq16UvgypUrDB48GFdX1/TNWHITAkIgwxEQYZXhmizjFjgoKIgGDRowbNgw3N3dRUxl3KbUqpIror9Tp07kypWLAwcOoFJJQFKt6gBSWSGQQgIirFIITC7/OALKj1O/fv0YOnQoz549+7hE5C4h8BkI7N69m8KFC2vW3evevTuenp6foRSSpRAQAhmFgAirjNJSGbycixYtolmzZri5ufHqlQQgyuDNqTXFDw8Pp1GjRhgaGmqEVc6cOTXD1zJ0rTVdQCoqBFJMQIRVipHJDSkl8OLFC8qXL8+lS5eIjo5O6e1yvRD4bASWLl2KhYWFRlTp6Oho3seOHStW18/WIpKxEPjyCYiw+vLbKMOXcNeuXXTt2hUvL68MXxepgPYQ8PHxoXLlyujp6SUQVgULFuTOnTvaA0JqKgSEQIoIiLBKES65+GMI9O/fnz///BPFciWbEMgoBCZNmoSpqWkCURVntVqwYAHPnz/PKFWRcgoBIZCOBERYpSNsbcwqJCSEcuXKcevWLZkFqI0dIIPWWRmy3rhxIzNnzmTChAmYm5trBFbDhg1p2rSpJvSCOLFn0MaVYguBNCYgwiqNAWt78g8ePED5MVKc1mUTAhmVQNu2bfnuu+94+vRpRq2ClFsICIF0IiDCKp1Aa2s2SoT15s2ba+JWaSsDqXfGJ/D1118zbtw4lAC3sgkBISAEkiMgwio5OnLukwkoMwHbtGmDh4fHJ6clCQiBz0Wgbt26/Pzzz/j5+X2uIki+QkAIZBACIqwySENl1GKKsMqoLSfljk9AmR04a9YsWdMyPhT5LASEQKIERFglikUOphYBEVapRVLS+VwEIiMjNRMwlCC3yrJMsgkBISAEkiMgwio5OnLukwmIsPpkhJLAZyaghFUoU6YMK1askJAhn7ktJHshkBEIiLDKCK2UgcsowioDN56WFv3ly5ccPXoUJcK64ltlZmaGgYEB2bJlo1SpUnTp0oXly5fj7e0tIUS0tI9ItYVAcgREWCVHR859MgERVp+MUBJIJwJRUVGsWrWKsmXLatYGtLezo3PnzkybNo3Fixczf948RgwfTv369TEyMsLExISBAwfi4uIiAiud2kiyEQIZgYAIq4zQShm4jCKsMnDjaVHR79+/zzfffKMRS4qYOnzoEO5PnuD99Gmir7t37jBzxgyKFi1K4cKFNcFEQ0NDtYiYVFUICIGkCIiwSoqMHE8VAiKsUgWjJJKGBC5evIidnZ1mofCdO3bwxM0tUTGVmMhSBFbPHj0wNjZm3rx5ssxNGraTJC0EMgoBEVYZpaUyaDlFWGXQhtOSYl+5cgV7e3saN26M0lefenl9sKiKL7R+/PFH8uXLx8KFC2XmoJb0HammEEiKgAirpMjI8VQhIMIqVTBKImlAQAmdoPhLNWjQgIsXLny0qIoTWIqzu5WVlcbxXfHXkk0ICAHtJCDCSjvbPd1qLcIq3VBLRikk8MMPP1DM1pZ9e/fi6eHxUZaqOFEV964sfaMINWdn5xSWRi4XAkIgsxAQYZVZWvILrYcIqy+0YbS8WO7u7hq/qp8mTcLp/v2PElUe7u4cOnSINWvWsHLlSs1ryW+/YVWwIBs2bCAsLEzLKUv1hYB2EhBhpZ3tnm61FmGVbqgloxQQmDt3rsa36sTx4x81BPj3unU0atSIvHnzoq+vT/bs2TUzCocPH06tmjVp164dbm5u7y2R+tkV1v3YhYZVylCieFnqdf6Z7Td9CHmZ/K1hzkdZOrYjDauVp3SJ4pSu1Y4xay/iEaziVfK3ylkhIATSmIAIqzQGrO3Ji7DS9h7wZdZfGbLr07s3t27eTLG1avu2bZQuXZqKFSsya+ZMTeyrLZs3s2f3bq5cvoxitbKxscHBwSH5yoddY3GH8pRvNYP99/154baPcY1sKVTtO7bd9SE8CYUUfucvelctTtVui/nP+TmRLwO4trQHla3L0m35JdyDo5PPV84KASGQpgREWCWCNzrYmTNbFvPTsJ60b9mMb9p0Z9iUZey6cJcb/87nj4OeBIdHE+rtyPkDG/h9xhj6d+zGzENeBEUm8TRMJJ+PPxRNkPstTv+7lkVTRtK7Q18WnvEmWJUeeaes1CKsUsZLrk57AgEBAZolambPns2jhw9TJKxOnjihEVVKRPbTp07h5en5zv2nTp3C1taWHTt2EBERkUSF1Lht6Edl6xp8t8sR7wjlu6vGbW0vylsV4pu553j8PBGBpPZiy6BqWJfsyLKrTwhWxyavusqvLewoVON79jr6kC6PoSRqJoeFgLYTEGEVrweog+6yY3oXqhbIiWGWfFRoO5LZK9azYdVcvvtfKUyz6aNrWIKhe915rgrl0dF5dLTPQzZ9HXRzNOLX696EJPIsjJdF6nxUP+PWnum0sjUlm54OennbsdzxGaFxD9nUySVVUhFhlSoYJZFUJHDhwgWN8Nm+fTuKn1Sc4/mHvA8aNIiyZcpoHN6TulcJLFquXDlmzZpFYGBg4iVXe7C+TwUK2/dgzU0PQmL/E0Xd+Y129vkp2Goxt90SWfD5xX6+r1EU8/pTOP3InzePmzCOjK+DrWVdJv33AL/3DCUmXig5KgSEQGoQEGGloagm6Ppy+lS1JIeBHvp5azJ6+10CI948toh6xOquduQt2J6VD/0IUx6EUTf5tWkhjA11yVrzZ857BZNuz7PQA3xXwZJcenoYf7OY2z4hfIG6ShMbqE2bNnh4eKRGf5U0hMAnEzhy5AjW1tYcO3o0RaLqzOnTlCxZkuHDhqEEBk1OiNWqVYuffvoJPz+/xMsbfowf6tpiXmMCR52e8To4Q9C/jKhahDzlR3DDyeede9W+WxhYqTB5G0znnLN/vO+8istzvqGUZSl6/30Tz9Avz3r9TmXkgBDIpAREWAHBl+fTsrgJWfV00M1WmsHbHxAY8a5MCftvHLW/XcR17xeaf4rR7qvoaJOHbLoGlBtzDI+g14/HNO8ukWcnUaugEQa6OWk05xpeL+KJwDTP/cMzEIvVh7OSK9OHgLLAsiKsjh45kqw4ii+clCE/ZfFlJZjo4cOHEx0CjH99jRo1khVWas/19C1vhVmjGVxwCXgjkFQn+KlBMfLZdOPGvUT+jKhOM6VxccyLdWetwxtLF6g4O60pxS2K0nnVDdxfiLBKn94kuQiBdwlovbBS+x1kVDVLchnooKNrQMnBu3AJjEx0Zo3aZyPTF5znWZBK4w/hu6knJfJmR9egBEP3PCEwpY4N6mii39VvCVsp0WuiuDarEYWMDdHNVoup5z0JTjdTWcLivW9PhNX7CMn59CZw7do1ihUrxj+bNiW7HmB8obR7926KFCmiGd57+B6/LFcXF40fljLz8Pnz54lWL/rRCrqWLUDepr9wyTUwnrA6x/SvSmBeuAM37rgncm8Yl+a0wM4iH5UHrOKc2wsiglw5s3oUTUuakT1rMfpsuC0Wq0TIySEhkF4EtFxYhXFhch0KGBmgo6ODnsnXLLzhQ+gHGX+C2DWoNPly6KFfqCebXQJ44fEf83pUp5BRHsoM2MT9gPA3D8y4Fn3hxIHfxjF0UDfqWRuRw6goLeaewftFPGuXOhinAwsZ0rIBDb5uTtNqZajaeQGnPF8QpfwRjb7HoubWmGbRw7DyRE4+vsV/q6cwoG0L/vdVM74dMI1tNwMI+wLElgiruIaX9y+FgLJYctmyZZk6ZQoPnJzea7Vye/xYY62qVLEiynDg+5a9UYYalcWZ9+/fj0ql/Al7d1O7rKJ7uQLkaTSTiwksVjHCyqJY98QtVkpSYQ/4d3p36hbLS+7ceShoX5/uU1YzvVNprPLVFh+rd3HLESGQrgS0Wlip/XcywD4f2fV00NHRJ3+ntTzwD0/UWvVOq4QeZnRFC3Lp62He4S/uO2xhVJ2C5DbU1Yg0fctOrHP2jzdlWo3/xSX0qFwQu05/csXHn93Dy2KRUw/Dmj9z0Ss4xhH1hQOr+1Yjf55SdPz9HJ7BTzg8oR4FjfPTftVD/MJeEe26nPY2ZpohyDKjDuMWqOJV6DHG16tJp+l7cQyMjOfU+k7J0/WACKt0xS2ZfSABxe+vc+fO3Lh+/b3Casf27ZqhwykfKMSUxZgVX6zbt28nWRr1sy0MqlSIPDUmcuxBPB8r1X/8WM8W8wqJ+1glmWDUdea1sqNAuYFsueMV77mT5B1yQggIgTQioNXC6sXuwdjnzYGejg46+pZ0WvsI/6SCx7zVAJFnfqB6/lwY6BnTbP4OZg0cyZ/HNjGikiW5DXTQtxnArseBsdOe1Tw/N4tmtsZkL9SJNXf9CI+8xqxGiuO7PlbdN+GsCLpoZzb2rYB5zlxUGH2Qx89VqK7OoEEhYwwNitBnqyv+EdF4r+9OiXzKEGRxBv/7mIDgh2yb0I8ftt7iWdgHmdveqk3a7YqwSju2kvLHE/jrr780w4EHDxxI1l/qzu3bNG3ShHJly36QtUrxxVKWtOnVqxeenp5JF1B1lmlNimNRqi8b73jFTIZRHAz8FMFVmMItFnDrceLDiIklGnVnCd+WKUyVYdu56/2Bfw4TS0iOCQEh8MkEtFhYRXHjl0YUNDLUWJh0czRh/m1fQt7n86RBHsXVGQ009+rmqE2fkSNYeN6LwHu/07qIKVl19cj77Uqc/MI01i+13yG+r6YIrmxU/eEEnkEReGzpTznznBhaNmPhxaeEvIzmyYYe2OfLjqFle1bd8yNMKUv4fXbM+p7xSw7jEhSJmkB2DCyNeQ49DAr34p8r+/ilUwXse/3No2cx+X1yr0jFBERYpSJMSSrVCChhEJQAn0OGDEl0hp+LszP79+2jXdu22NvZoVitlDAK8f2uEvu8fv16ChUqxN69e4mMjEymvIHsHV2TohZ1mHTsAX6xngARZ6fRtIQ1X888jUtAzFi+KiyIgIBAXkRGo07MJ13tw/4x9SleugO/nXcj6AtwAUim4nJKCGR6AlosrFScHF8Vy1z6GmFlULQf219bmN7T7i/vseB/hTDOoot+vpJ8+4viIxWJ17ou2JplQ1exYv12h2eawFJR3Jz7FYVMsqCbox4zLz/m7sFpNC9mimmxlsw87EqwSg2qS0yrb4WRoT6WndfxyC+Jf52hB/muoqVmCNK05rc0L52PXIa6GFQcz3H352+mbb+nCul1+vz585rlPZL9955ehZF8hEA8AkuWLNE4pG/csEHjyN69WzdatmihedWrW5c8efJoIqhv2rgRxc8qMSH19jElzELHjh1R1iJ83xZydhr/K1GQKsO3c0exMqn9OTS+ASUr9Wb1dY/YP3kR7B9dFWsza7qudsAjLuBVXOIqL04v7ELlknUY9vc1nqZLIL24zOVdCAiBxAhosbCK4tKUOhTIHeO4bmA/kkPuz0nc1TQhumjXZbS1VixTuhjaDWOPRpAFsn2AvcaZXTdnvGChqov8XKeAZnhQz6golWtWp1bTLny/aB93/CJ4GfsPNOrSNOpbGWGom53G827hk4TpLPLkBKoXyI2Bji76eWvQuIoFubLpoZv7fyy67fOBFreE9UnLPcWRt1u3bnh5eaVlNpK2EEgxgaioKL799ltNMM8BAwaQL18+zZ8sMzMzOnXqxMwZM7h86RKeHh7vFVWK8OrapQvFixfn6tWrqNUfYPpWB3NtZX9qF7OlavMudGtVnVLlW/Hzv448C4+7P3FhpfY/w59ju9PIvhhlmw7gt2OPEg0Rk2IocoMQEAKfTECLhRX4b+tPqbzZNT5Wmpl9rgFoVpZIDOvrB6Wap+u6xlqmzPjmNwd8lGmEoQcZWcGCnHq6ZK01lQtPY4KFRrsspY1meFAXo1bLcHoWmohzvBrf9d2wNcuOrp4FHdc80jipv1uMKC5Pr4+VkSG6+kXpsfEON5a0x0axkukXptdmF/yTrMC7qaXHkQ0bNmiGW3x83g12mB75Sx5CIDkCT548QVmepkyZMhw+dOiDRNTbVqrHrq4o1q78+fOzbds2wsPDk8vynXMqXycuHz/M4dM3cQ9+82frnQvjH1AH4eJwHccngUTE/TuLf14+CwEh8NkIaLWw4vlhvq9iQU59HXQMSjF0rxvPE1lvL/z+P8xcsB+XwHDU6gC29S1F3ux66OVrzyqnmCjsqrOTqKFYknQNqTThGKe37eFaYBgh12bRSLFE6ehh/LawUiGnPl4AACAASURBVAfh/NCT8KgoPFZ3wiZPNnR1c9Dgl2s8jRfwU/3cBRefSKIibzH/f0UwUYYgi/Rhq4s/LxRLl+LcrmtA2e+PcGPbAlac8iboCxFYPXr0QHEUDgkJ+WydXDIWAskRcHNzo169ehphNH/evBStH6hEb69Tuzb58uZl69athIWFJZeVnBMCQkALCGi3sEKNz6Hx1LXKjaGuHjnL9mPtNR/C4/4BRj/n3q4ZDByxlHNeITExpF7sY1hZc3Lq6WHS4g/uPAtFTTQPf29FEZOs6OrlodHAIfSbdRyPoEii/bbS1y6vJqSDnmlNRm25jqe/Nw/OrGdK//7M2OukWTon6vpsGhcywVAZXrRuxS/77+Ht68qVHb8ycvh8jrgEEfZwKW2s85BVV5/8ndfxUPHDerGXYeViLGX6JoUp32ERl71fpN/SOsl8SZTFbpU10xwdHXn1KjGv22RullNCIB0JBAUFMXr0aExMTKhcuTILFyzgvqNjojGrlDhWimO7EondyMgIxa/q4sWLKEOLsgkBISAEtFxYKR1Ajd+FPxna2BbjrPro5bDEvkZDmjSqTZUK1Wk9bhM3noW/9oUKPz6Oqpa50NfNRdP5DvhqnEXVeG3oGTOsqJsDm7YLORsnxAjD4fcO2McOOSqBSHX1c2FdfwgrznsSqon4qZlnzcmZ31DCNGtM+AfFh8rIhoZDV3LBK5SoV2q81nahWF7FOd6Mtn864qs4x6v92T20ApY5DchVpj9/3/Yj/AuJuPDPP//Qp08fZBhQHjQZhcDZs2c18a1y585NtmzZNIFEO3ToQP9+/ejTuzcNGzTQ+GLp6elRoUIFli1blmR09YxSZymnEBACqUtAhNVrnlEEulzl+P4dbNmyk/2nbuHxIoroDzW0qIN5eO4Qhy868zzy5Vt+VNEEu17h6O7t7Nh7lEuP/Il4Geec+roAGpGnuW7vv+w/fgXnANVrQRf/qrc/q4Mfcf6/Czz0/0D/jLcTSIN9f39/zT95RVyl1OckDYojSQqBFBFQhgc3bdrEiBEjaNKkCSVKlKB69eoa0aUEAFUsVBERESlKUy4WAkJAOwiIsNKOdk7XWkZHR2uGScaMGYMyHCibEMjIBFxdXbGzs2PdunUoy+HIJgSEgBBIjoAIq+ToyLkUE3j58iWTJk2idevWyUeeTnHKcoMQ+DwEJk6ciKmpKTVr1sTZ2fnzFEJyFQJCIMMQEGGVYZrqyy6oErfnxIkT1K5dm8aNG+Pk5PRhsXy+7GpJ6bScQJy1SvGNVF5r164Vq5WW9wmpvhB4HwERVu8jJOeTJaD4T9nY2Gh+dJQfnpUrV8oPT7LE5GRGIhBnrYoTVmK1ykitJ2UVAp+HgAirz8M90+Sq+FP9/PPP9O/fn/Lly9OoUSPOnDmDSvUhMewzDQapSCYk8La1Kk5cidUqEza2VEkIpCIBEVapCFPbk1JElvKjoyzroSxGK8EStb1HZOz6v22tihNWYrXK2O0qpRcCaU1AhFVaE9bC9K9cuaKxXimWKwmaqIUdIBNUOSlrVZy4EqtVJmhkqYIQSCMCIqzSCKy2J6tMTVfWYHvw4IFEXdf2zpAB669EYlf67r179zh69KjGj3DatGmaBZaVY8qi4soMWNmEgBAQAm8TEGH1NhHZTzUCQ4cOZfr06RKZOtWISkKfg4Cnpyf29vYoC4rL8PbnaAHJUwhkLAJaJayCHY+y+e/Vmplryuw1zWvVKv5a+zebth/g9O2nhESp34qanrEa9Esq7fnz5/nqq69wd3f/koolZRECKSIgwipFuORiIaD1BLRKWEEU/pd/pXkRY7Lo6qCja0jBKl/RtGYJ8mYzRE83C+ZV+7Lq6jPCxMr/yV8OxZm9WrVqnD59WnytPpmmJPC5CIiw+lzkJV8hkDEJaJmwAkJ3M9AuLzn0dNA1rMKPZ70IfhnKjbnNKGySBV0dXXLVmsoZrxeItvr0Tj158mRmzJhBYGDgpyeWyVJQmCxfvpyePXvSpk0bTbR6JWK9vL4sBorVVVmUuVKlSrRo0ULa5wvto+3atdOs7ahMmpH1STPZwzKDVUfrhJXqws/Uzp8bAx0dDEqP5IhHEFFA1NUZNChohKGODrpZ6jLzmjcvojNYa36Bxd23bx99+vTB29v7Cyzd5yvS4cOHKVq0qOYHu169erRs2ZJWrVrJSxhIH/jIPqCI3pIlS5IlSxa6du2KspC2bELgcxDQMmH1kpu/NsHKyBBdHQNsBu7C7Xmkxqcq8r+xVLbIhb6ydIVhTaZefvpGWKmjiVZ/juZJSZ5q3ldE9fsuSEl2H3jtyZMn6dSpk2YW1Qfekukvu3jxokZUKZapy5cu4eXpiffTp/ISBtIHPrEPKN+lNWvWYG1tzcCBA2W90kz/NP0yK6hdwir6IUuaF8I4iy46+gXotsmFgIhXQBhnJ9Uif24DdHR0MbAfycGHjlzat5KpA5tTubAN3dY9xOXUErpWLkjBhtM59fSFxtKladZQJ/bPH06HVu1oW98OK+tKtJm0i/uBESQ0eqkJfnCQxcNb0bDh1zRrUp3ytXrw+1lvQqKUcrzZQh8dYemPIxjSvT5FTXJhWvxbFl3wIeQlvLi1kbEtK2JrV4MmzZrQqGlr2jZqwqhdbgSEv1IuYOPYllS0taNGk2Y0adSU1m0b0WTULp4GhL/JJB0+Xbp0ibZt2+Lh4ZEOuWWMLJShP8VKde3qVfkh/cQfUhGkIsgT6wMLFiygWLFimlUglHVMZRMC6UlAq4RVtPtK2lubklVXBz2zdqx84I+iQ8Jv/UZrWxOyKn5XWYrSbe1t3G4eZmH3suTJro9urq9YcG4Lw2sWILeBLvqWnVnnEnuv0z8Mq22FkfW3/HnDl7AXxxhXxZJchmY0W3QN35A4aRXKrTX9qZbfDLvOf3DBM5gnRyZQr6AxVp3X4u4XK3jUAVxe1odqhe3puuIaPn67GGJvTk49Q2pPv4KX9wkm1SmIcfaSDNntRkDkS54enUiDoo2ZctaToJehnP6pLlbG2Sk5ZDduAZG8fHqUiQ2K0njKWbyC0tdzTBFWiv+QCKuYr3VAQIAmMv3sWbN49PChCCsRVtIH0qAPPHByony5cvzyyy8o3znZhEB6EtAiYaXGd2N3iptl0zioG9h1Ytri31k8tT/1rY3IqqeLYd6q9F91Gd+wl7wimodLWlDYJCtZq//AyjENqFKjDJbZs2LefAkOvqFEeexgSGVLchrkps7083i9eAmq0/xQvQC59XXJ+fVinviGAi9x2dSXCuY5yFXhew66PUelusKMhoUwNjSgaN9teAREgDqIC3OaU9w0O4U6reauXxgRV2bQ0MoYQ/3C9NzsjPelOTQtpMxqzEW1CUd4/FzFK7UPm0aOZ4e7H6Gqm/zatDAmWXTJVW0CRx4/R/VKjc+mkYzf4Y5faELLWFp3NhFWCQkrEb1tbW1Z/ddfuD1+LD+qafCjmpgFQ45pn2WrTp06TJo0CV9f34RfQtkTAmlMQIuE1XN2DrAnb3Y9TZiFYl/1pEe3LnTs2IWeA8cwffk+HHwiiHptNQ5kW7+S5M2eBbvuw+jUaR4XPH1xvnIBR99woqI82NS7NPmy66Fn3o7l9/wIU+4N2Ezv4nnJrqtL1kZzcfMNIdptPT3s8pLd0JIOq+7hp7kwjHvbpjFyzCIOOT8nQq0m4MhYahbIjWHWKkw47kFQpCdbB5TDPGcW8jdfzCXvEFQea+hSzIzsujroZrWh0/Jr+IZG4efsgl9kFNFqD9Z2LU7e7Lro6GbFptNyriki0M8ZF79IouIMaGncseKSF2EVRyLm3cXFRRPFe83q1SKsPoeo8tQ+gaGtorJunTr8+OOPIqwSPoJkLx0IaI+wCj3Ed+WVITUlzEIlJp5SwiwkQzj8GGMqW5ArS35qNWrLhCNePI98Y+0JP/dT7OxCfQp03YCzf3iME/ypiVTPnxt9HX2K9NmGZ0Awl6bWo6CRQcwQonPMEOI7OUfdZv7/imCaRY8cdWdwyc2RI7NaUSJPHmybz+Dw42BUinBTP+fkj/WxMlYc8HXQM6rK2L0u8cqm5vnJSTRQrFxKrC49I6qO3YtLrJP+O/mm8QERVgkBi7D6NGHjdfMwG5YtZsHcucyL/5r/J7vOO+LqnlT6Hpxb1JHyhaxp9vO/XHFyF2vh5xC26ZinCKuEzx7ZSz8CWiOsIk+Op6plzKw/xTn9kEcQqmQ4R12fRcOCRmTJao5Nu/lcVyxPr6+P5OSEauTPpY+OviWd1j7ET3HWIoor0+pjZWSgcY7vuuEh/sEXmVqvIEYGumRvPI9bviGJzt5TXZxKvYJGGOjoYWRbjTo16/BVl9Es3HML33BlaDLeFubA79+WwiybnsbZPmvpEex5HMgb3ReGw+/fUsosG3pK+IispRmx5zGBby6Il1jafhRhlZCvCKukhM8HHvd8zKM7p1k7rA6FjLOgq1+QRqP+YNdpB5wee+DllVQ6Hlxc1odapcrw7ez9XHvgIcIqHUXO57CaibBK+OyRvfQjoCXCKopLU+tSQDPrzwCbATtxC4wJs5A46mge/9mWIqZZ0dW3pMNqJ/zDX48RQrQby9sVwTSrLro5mjD/ti8hyunIi0ypGyOispUfy2H3ICJ8/6arTR6y6eph0Wktzn4xlq2E+Ubjsqwt1kp+uka0WnqfZ4n4QqkDnHnkEzOcp/Y9yoT6VhgZ6qJjYMfwfW4ERvjj/MiHSGW8T+3L0QmKyIsJLWE3fN976pywRKm1J8IqIUkRVkkJn5Qdf7J7DHWsTchq1Z4lxx1wSVJQpSzdzyEAJM+0aSMRVgmfPbKXfgS0Q1i9vMXcJrEiRN+SLuvjwiwkBTqAbX0V/ypd9At0Y6NLAJqoDHGXv3RicfMYB3F9mwHs0liL1ATsGUoF85zo5yjDsJ3OGguR2vMvOhVVhJUuORrO4Zr3izeWL3UgLi6+REZFcH12Ywopw3t6xu8IK/XzRzz0iiB4/zh6zb+IV5AS0hTCLk6lQSEjDA1LMmyvGwFBhxjfez4XPJ/HhIIIu8jUBoUwMjSk5LC9mhmCCSxfcfVJw3cRVgnhirBKnR9R98OTaWxjRvZi3Vl1+haPRViJBe4tC5wIq4TPHtlLPwJaIaxe3p3P15qZdErwz7rMvOHN6ygIibFW/KsqWZBLXw+zdit54BeWcCiOMP4bVxXLXPoYlhnJYffnqMKuMrtpYYxz29Dut/N4h8YO30VdZ1YjK4wNFd8ua1r9sp973r64XN7OnO++Y+ExV4IjX+K3rR/2+XKgp6OHac1RbL7mgb/3A86sn8rAgbPZ/8iPB3+2p1jFPvx9N9ZRPmw3g0tbYFxyEDtcAghzW0mH4pXos+7Oawf53YNLY2FckkE73icmEwPx6cdEWCVkKMIqlYVV8R4irN4SFGIBi+ljSQkrJa7VhQsXGDlyJMpC8SpVck4hCb+/sicEPoRAphZWap/r7Fkzh361C5Iri+KPFOPMXa7TBBbsvk1gxFu+S7HEoq7NilneRjcnjec6xItF9QZptMcextQthFFOG5qPnckPHWtR5esBzD/sTHBkvGFD1PidmME3xU01cbKUMugaGGPbeDh/XfYmNC4waJgDf3QoTV4lbpZSTh1d9HNb03DoKi54hRL1SsXZSY2pUKYwRSq15/vZC5netw7Fy7Zk2gFXgiLVqM7+RJOKZShcpBLtv5/Nwul9qVO8LC2nHcA1KDJR3643NUqbTyKsEnIVYfW5hJUH989uZeGY/kxed4E7j7xiLDyuNzi0agpDRi3k4LW7OBxdydTBnWnXoT/TN57mnstbvlgedzm+bjajerajZfM2dB06gw0nbuPiHpve06e4Oxxm1bTh9GjTnGbN2tB1yAw2nLyT4JrHDkdYM30Yoxbs5/KpXSz+vg/dBs1hxyVH3MT6lirWt7eFlZOTEzNnzqR06dIYGhqiq6vL2bNnefUqve34CZ8Jspf5CGRqYZXmzRXpw+2T+/h373EuOfkQ9lL9lmXrTQnUwa5cPrqXf/cf56pzAKqXiXyZo4NwvXyU3dt3svfYFR4FRPDmsmg879/HL0JFuK8j5w7sZu9xB9xDVETHJhXteR8nvwhU4b44njvA7r3HcXAPQRV3wZvipNsnEVYJUYuw+gzCyuMSW2YPpJGtCdn0c1B/0gGu3Hfn/uHlTOhQify5smBYvAuTRrWhUd16NKhbgSKm2TE0qc347Re5/yS2zI+OsqB3azqPWciWI6c49Pdk2pYxxyh/bcasP4/jYy88Ly6ndzUbKnWZy+5Ld7l5eB6dylmSp2R3/lB8wTwcObx8Ap2qFCB3FkNs2w2lR5Pq2OXNhqFBAdosOMr1ONEnlqhPEliKsBo+fDizZ8/WrHSQPXv2mD/Xmj+uOpiZmXHt2rWEX1DZEwKpQECEVSpAlCSSJiDCKiEbEVafQVhpBMoTjk/9Glszk1hhFbs+48O/GVChIEbGxWkxYT1nHV3xevqE0zObUyKfMdVH7+TSPSU0gwsHfmxKoyHLOX7DmaeaND25tqgDdhY5MWk4mb2X73Jcuc+8CK3nxQkkF/4ZUoVCecoyYN1pbrvFWLZc/xlC1ULGGBX5H5O2XcLh3L+sXPYPx2895IlYrD5JUMUNhSoBQu3t7cmZM2cCQaUZuYgVV0oA0bt378pwYMLHlOx9IgERVp8IUG5PnoAIq4R8RFh9LmHlyZX57ShpbpZQWD3ezqgahTGz683q07deD8O5bR9JjcJm2PdezZlbj3nqsoXh1W0oVbkpzdt2pGPHmFeHJpWxtbLAvGwv/jx5k7vHljF++FTWnryNs8dTvB5eYFmvihQwKUn3P09w0zVGWD3ZNZY61nmx7fw7J264xAq11GETJyy0/T1uKHDz5s1Ur15dM/wXX1Qpn7NkyYKenp5mUfRhw4Zx7tw5wsPTdz3VhE8I2csMBERYZYZW/ILrIMIqYeOIsEod8fB6VuAHO697cm3ht5R6R1jtYHTNIu8Iqye7x1LXOi+luq/g9E1XPM78QssSVjSZuJ/LjrHWriSH6jy4f2oDs4Z1olWbLrSrVRjT3MXptuwEN11ihdXucdQtmg+77ss56eAqwipJlh/fX+KElbKkTVBQkGZ5m7x58762XnXp0oUHDx5oHNgnT56s8b1ShJadnR2zZs3C3d0dWcA54fNL9j6MgAirD+MkV30kARFWCcGJsPr4H8r4Fpj0FlZP/pvK18UssOu2jFMOyViYnM+weuT/qFavBzM2n8fpsSt7x9ejaL6SIqzSQDzF7xNvf44vrOK+hYpFShkiVATU6NGj8fb2jjulEVFXrlzRHM+fPz/Gxsb06dOHW7du8fJlcst0vE5CPggBDQERVtIR0pSACKuEeEVYpaOw8nRky6JlHHG4h5vXp1msvBz+oEtpS3IXasXcA9d45BG/Hq6c3PEvFxyvsWVMPWwK1Wfcjgs4apbXcRNhlc6CKk5gJSaslG9jSEgI06dPZ+3atQQGBib8gsbuBQQEsHz5csqUKYORkRF9+/bV+GKJwEoUlxx8i4AIq7eAyG7qEhBhlZCnCKv4guTjP7sfmkRjmzyaAKErTiUeINT18HSGTt7CpVuKhenThNVTz0ss7lgayxyGWNQexopjt3DViCsPbu74kZ6jlnPy0nZ+bFKMfPmbMfPgVR5qFnx2ZvvIWhQxK0aXP07g8NAdTy8v3GQoMFUc1ONEVGLvSQmruG/khwzzKf5Wa9as0QgsZRahsqizMnFBNiGQHAERVsnRkXOfTECEVUKEIqw+XkzF//F03TJcM6vOwKQeP/57Caf4iy97OHFx2ww6VqpM7z9OcNNZ8Wvy4MzsFhTPZ0SNMbu5dC82PtWj9QyqWBBTmy4sPemAa+yMvBjn9TwU+Xbx61mArsfm8G0ZC3Lo6aCfuyD2VWpSs6IN5tZfM3nbJZxcr7O0a1ny58yBdePBTJs3hx/6deCrCvnJlS039i160nP0nxx3cOLRtpHUKJKH/C3mcPTqQ/GxSgOr1vuEVcJvZvJ7ipVrwYIFWFlZUbJkSbZu3aqxfCV/l5zVVgIirLS15dOp3iKsEoIWYfVpwsrr+h7+nDWKthWVOFAxQX919bOSM7eRxifG2CgX2Qz10NXVQc+yNQv/u4Gz+w32/j6BduXMyWWoR3br+vSYvJ7je1cxY0B9rE2yoaefj0ptBvLrjhPsWj6DQQ1sMM2uj75ZeVoPW8T+mw944uXJw5OrmNCxBrZmOciWMy/F6vRg9s7LOMWFUTi9jMGNS5LPxIzCFVsxfu0Jzq4eQf0ShbCtO4RlR86y/6/p9K9fFBMlGHCOItTtPIG/TtzGOb44TAOhEV+YasPn1BRWcd/ix48fa/yuTExM6NGjBw8fPhQH9zg48v6agAir1yjkQ1oQEGGVkKqrqyu2trasWb0at8eP03w4RBt+QKWOnyZWMys/RVgpcaqUWYGpuSmR2nfs2KGJkaV8l5XPYWFhqZmFpJXBCYiwyuAN+KUXX4RVwhZSZiEVK1aMhQsW4OLsLMJKLDPSB9KgDzx2daVixYoaJ3V/f/+EX8JU2vPy8qJnz54oIRwmTpyIj49PKqUsyWR0AiKsMnoLfuHlF2H1bgO1atWKli1a4HDjhvyopsGPama1wEi9PtwypzicK9akw4cPExUV9e6XMJWOREdH88cff2h8r7755hscHR1l7cFUYpuRkxFhlZFbLwOUXYTVu420Z88eChQowOhRo7jv6CjiSsSV9IFU7APH//uPihUq0LZtWxSfxvTYlPhYlStXpkKFCpw+fTpNxVx61Efy+DQCIqw+jZ/c/R4Cly9fpnXr1nh4eLznSu06vXTpUvLly0fx4sUZ0L8/48ePZ8KECfISBtIHPrIPjBs3jlYtW2omMdSqVYs7d+6kq/VIcWxv3rw51tbW7Ny5U5bG0a5HeoLairBKgEN2UpvA7du3+frrr3ny5ElqJ53h03NwcEBZn0zxBVGGLWxsbOQlDKQPfGQfUP6k1K9fn2XLlvHs2bN0FVVxDyNl6RwlWnvBggU18a9evHgRd0retYiACCstauzPUVU3Nzdq1qyJMhtONiEgBIRAZicQERGhWRbH0tKSxYsX8/z588xeZanfWwREWL0FRHZTl4AyNbl27docPXoUlUqVuolLakJACAiBL5CA4tQ+ZcoUjeVKxNUX2EBpXCQRVmkMWJKHGTNmoKwen1bTnoWxEBACQuBLI6AsmTN16lQRV19aw6RDeURYpQNkbc/i+vXrNGjQAGVYUDYhIASEgLYQUMSVsuBzoUKFWLlyJeJzpR0tL8JKO9r5s9ZSGQ5s3LgxK1askPW1PmtLSOZCQAikNwFFXCkBRIsUKcKmTZskSnt6N8BnyE+E1WeAro1ZKrMDy5cvz7Fjx8TXShs7gNRZCGgxASVI6dChQylatCj79u0jMjJSi2lk/qqLsMr8bfzF1FBZU6tGjRooIkv5FyebEBACQkBbCISGhtK5c2fKli3L+fPnURzcZcucBERYZc52/WJrNXfuXEqVKsXChQsJDg7+YsspBRMCQkAIpDaBp0+f0qRJE+rWrZvuAUxTuy6SXtIERFglzUbOpBEBJTCmsq6Wshhxly5d2L59u/gdpBFrSVYICIEvi8Ddu3c1y9/06tVLJvR8WU2TaqURYZVqKCWhlBJ48OCBJjrxkSNHZPmHlMKT64WAEMiwBPbv369ZzmrOnDkEBARk2HpIwRMnIMIqcS5yVAgIASEgBIRAmhFQRJWylJWyrqASrV22zENAhFXmaUupiRAQAkJACGQQAspMQWU4sEqVKiix/pSwNLJlDgIirDJHO0othIAQEAJCIIMRUBanV9ZSFX+rDNZw7ymuCKv3AJLTQkAICAEhIATSisCePXs0/la///47QUFBaZWNpJuOBERYpSNsyeoNgYsXLzJo0CCqVq3Kzz//TGBg4JuT8kkICAEhoEUElMjsSnyrc+fOSXyrTNDuIqwyQSNmpCocOHCA2rVrU7p0aWbNmsWFCxfw9vaWh0lGakQpqxAQAqlKQJkZ2KhRIzp16oSLi0uqpi2JpT8BEVbpz1xrc1TWySpXrhxbtmyR8Apa2wsyZsVlnYCM2W4ZqdSHDh2iRIkSLFu2TIInZ6SGS6SsIqwSgSKHUp/A+vXrqVChAmfOnEGZDSObEMgQBKIfsLZPVYoWb8P8M495/jJDlFoKmUEJjB49WhM89Nq1azJLMIO2oVJsEVYZuPEyStGfPXumEVWnT58WUZVRGk3KGUMg2oXNIxpStlJ3ll56QpAIK+kZaUjA3d2d6tWrM3LkSLy8vNIwJ0k6LQmIsEpLupK2hoCyLuCIESPw9fUVIkJACAgBIZAMgRUrVmiGBBV/VJVKlcyVcupLJSDC6kttmUxSLuXBUK1aNf777z95SGSSNpVqCAEhkHYElCjsrVq1on379jg7O6ddRpJymhEQYZVmaCVhhYCyHmCDBg1ksVHpDkJACAiBDyRw8OBBSpYsyYYNG2SB+g9k9iVdJsLqS2qNTFiWq1ev0rJlSzw8PDJh7aRKKScQifeNPfw2YQLLz7gT4PeQw8unMLRndwZN2cAlj2BUr9Q8v3eAPyYNoluXPoxfcRLX5xEkmJkX7cfNPX/w0+BudPi2C/0nLOHA3WeEvYxdFiTci2u7FjN+8houu93n9JqfGdZ/DMtPuREY8QrUgdw78CczJo7lu4H9GTRuHtsuPyEgVMXLl2pery4SHciD/9YwddRc9rr4EhKXvOcVdi4cy+S1l3H388Jh50LG9u1Gr1GLOOjoR1h0QjLqwHscWD6TH8Z+x8D+gxg3bxuX3QIIUb3kpfoVyS9moibo3j7++Gkkg/v1ZciE2fw2Zy4bLnsRoNQldlMHP+TYmlmM7t2Z9h168d3sLVz2CCYyAbgQ3M5tZsH4QXTr2Imewyaz4ogjfqEvE5Qhx/q15gAAIABJREFU3OsG/y6ZyOTVF3C5d4a/p41g4JhlnHAJQJNltD+39y3j56E96PhtF/qN+419t3wIiXpTnrhyyXvKCajVanr37k3jxo25d+9eyhOQOz4rARFWnxV/5s/80qVLtGnTRoRV5m/q99cw5DY75/SnbhETsmaxptucXxncsT0du3bim8qFMM6WlcKdlrJnxWjaf92M1m1bULNYHnJktaDFgnO4xXmOhziwakgn+k5dy9Eb97i6bx5dKlpiUqgxUw8+5NG5zczoVRMro6xkKdWDiYNbULeMOdkNDSncbQ2OT+6ye2wTKn41nh23fAmPcGff2EYUNc1Klpwm5DEvSa+/bvPk1hGWjmlGSbMcGOT6il+vKLMCA7mxbRa9alphlDUL9v3m8FPXb2jS9GsaVyuGWc6s5Gk0g+POAcTNfY1228O4ppX4atw2bvqEEeG+j/FNbMmTNQs5jfNgXrIntx2T/uOhuv0nPdsOZ+VJZ4JUEXidXUSXSjUYsuEmnqExQibccTOjWrZiyG8HuecbiPt/U2lewhzLat+z/a4P4cplKlf+Hf8N9dv9wPrzbvj7OLJvejvKFLCm9shN3PAOJVodwPWts+hTuzAmWbNQsus4BrZsQDmLHGTJUojOK6/z5KkDa0Z0o9+Uvzh87R5X9y+gR5WCmFo1YvIeJ/ziib33dwq5IikCV65c0cT7k/ALSRH6co+LsPpy2yZTlEyEVaZoxlSsRDhHx9fE2tSMir1+44RrECq1YkA6yNg6RTA1tuV/4/7hhk8oivEp0mE+LUvkw6zJHC67PUdNGJdmt6DZuG3ceRoWa2VR476mB2Xy5yJPs/lcfBJEdNghxtQsgqmJLW3nnsTt6QNOb/uHI7d9cNs1mlpFrfjfLxd5HBhjzlE/Xk33sgUwrzeZ/5z9X4siom6xqLUdFmZfxwirWOvPi32jqW5tiql9e2buv09AuBqiHPmjQ2ksTevy80ln/JUZhOoADoypjY3V18y+4EqgxpKlxm1ND8oVtKDuT0d56BcnwRLDrOLS7GaUa/EzR52exZYrGqcVPzDvyAO8FGEVdpk5rcvTcNR27j4Nj2ESdZ35rewxz2nPwC238QpX4biiG5XsWzDrxEMC4mY3Rj9m44BqFDYtQrslF3ALijG1hR2ZQF1bM0xsWvPLMWc8H55lx5Yj3PL25uzctrQYt5kbHqFv+P/dh4pWucnz9RzOuATylsEusYrJsQ8gMHToUOrXr8+dO3c+4Gq55EshIMLqS2mJTFoOEVaZtGE/uloqLs5ojK15cXqvv8PTsNihI7U7a3uWoUC+r/j1qhvP44avwvYxsnJhzKqM48gjP1RhR5lQuxhla7aiQ9femuESZcikZ4ualChSgPyVh7HV0ZuwiNNMaWiDeal+/HPvKXHZgJL/VxTPV4C2v1/HPTg2I9U5pjYpTl7L1iy5/oS4w6gfs7p7WQqYJxRWqhM/Ud/WnHJDd+LoHRErMFSc+Kk+tublGLrTEW/FcqO6yMyvS5CvQFuWXHuTrurcNJqWyIdl68VcdQtKOMyZgK2Kq3NbYGeZn8o95rLf0Z/waEWvuePuH07kSwjc+z21ilWm/8bbeL2pKOEeNzh15hbuQeFEh57g58bFsaw1nsP3fd8IRyD4yETqF8tD7po/cCRWvKnOTKdpCUtK9v6bm68FFBD2H5Ma2lGuRgu+jc+/ZS1KWRckf6XBbLrlSawhLUFNZCflBBwcHChTpgxLliyRdQRTju+z3SHC6rOh146MRVhpRzt/eC1VXJ75FcXMS7wlrJ6yoU9ZCuZrypz4wiriMGOrF8Gs8mgOPHhG2P2ltLezpsWcK6+tTYnmHXmWqY1sMS87mB2O3jF+QZoLo3H8oz32libU/ukEjzRmJWWY7BzTmxTHvERv1t/2eiMM1O6s6ZmIsDr1Mw0TEVbnpjeluEVZBm69y1Nl/C061oplUotJ/z3AL9ZSpDo/g69KWFC819/c9Iyz/CRaE6If72JME1tMs+ihb2RLw75z2H3bl1CNP5mKa7+2oFSBygzfdS9GzCWSjOraPFraWZC7wVTOPfJPIOTUXhvoX9EKY4s2LLnqRpCiB88p5bOk7IDN3PKMswxC9IMVdC1vS/OZ53nkH6d+E8lQDqUageHDh2uWuxGrVaohTfOERFilOWLtzkCElXa3/7u1/zRhFXpzAS1L5qfcoK04escOe72bCSQprEDttpUhNQpjUXUku+75akRX5J3f+LZ0CRr8sJcHfnEWKGUo7xOFFWrctg6lZhELqn63gzs+SplV3F3SnjIlGzBhz32efYBPkjroHnvn9aeejSnZ9HUxyFudERsd8A6N4PzMrylpUZA2S67iFpS42ImxQOUlR+Xv2e/oQ4LoSGH7GVOjKHk+QFhF3f6NdmWsKNt/YwLBlVgTyLHUIaA8Q+3t7Vm9ejUhISGpk6ikkqYERFilKV5JXISV9IGEBD5NWEV4baRvuYIYW3dm5VVPQhI484Rz++RpnANfoEpGWCnleeGwlB61K1KzaSf6D+5Hh+atGTh3H45+YQn9gz5ZWGlyw2FZD+pWqkmTTv0Y3K8DzdsMZO7eezx7e/pgQliKssPP7TH+4RGackU9u86m8c0omTc72cuPYNc9L+6t6kG5ArmxaD6fs4+fE+c+pSQV/fAfVu9+iOeNVfSuYEXuPM2Yez7O1ys2s+B/+a6aNZa14g0FJmGxUj/dzKAqRTCx7sCyC24Ev8X/zqmzPPIPQhU7wvtOdeTARxHo2bOnJraVk5PTR90vN6UvARFW6ctb63ITYaV1Tf6eCn+asFJFu7KmZzkK5MpC/kYT2X7LNza0QTTeJ2cz6Ket3PV6gTo5YRXpxIbhfZi29x7eYYlbeF5XIhWElcppIyP6TmPPnae8L7vX+b7+oOLCwqmsveaKX5yZSf2Ev/tUoHCpLqy64c7z+8vpUrYAOQ0L8r+ZB3AKiAlNEeV9joUDvuPP8874R3qweXANChubUv/nhA7zquvzaFXajpa/nORRrFd7UkOBis/Z3/2qUCh3FvI3GMfm696EapRcNN6n5jJs8mZuPknOZ+x1xeRDCggcPnyYUqVKsXPnTiIjI1Nwp1z6OQiIsPoc1LUoTxFWWtTYH1TVSE5OqkdRs0J0WnULz7jAUOonrO5emvym9Zl+4XHs7DnFWXo/I6sUJo/9YHbc99EM24U5LKNrhfzkUIbEjItQvnYDGlQrTv5ibZh38jHPlUl2Ef/xQ52imFl1ZMVNj9fxpxQLUOCekVS3KU6NLqOYuuAPVqxaw98b/mH77iOcv+9DiDJNMW6Lvs9SZaafSX2mnXPBP9ZCE7L/e2pY56VEv03xZifGOq/ns6XH2lsxoRDUgewZWQObEjXoMnIK8/9Yzqo1f7Phn+3sPnIOR58QVAmsPnEZx72rOD+jGXU6TGXXnWcokw+Jfsza3lWo2W8lV9xfoCaYywvbU84yO/p62bEoVY26datSokAh6k38l3u+MUOmUc5bGF7XGtP8dRm37Sa+irUszIkNg+tTo+OvHHkU8NrSFHHiJxoUz4dV+6VcdQuOdc6PKVPYrRX0qmpFLoW/UWHK1apP/eolKFC8FXOOPiIgTgDGVUHeP5nAy5cvNfEA+/XrJ8GWP5lm2icgwirtGWt1DiKstLr5E1Y+2pmjy8bTvIQZOQz0yVelI6N+P4rzjQOsmtGNKvmNyKKfk2JN+jNt63UcT25i3qD6FDXNhr6BJTW6TeKfa76ERKkJvruDGT3rU9I8F9lzW1Cq8WCWnn5CUGQ0wbd3s3hEU4rlUYSGkl4/Zu26qwmCqRRIdX8jQ+paY2Soi46OToKXrp4xpXss44ISWNPrPP9n7yrAm7racBWnuLu7bLjLYGxDxs9gOBtsOGyD4e7u7r7hrsUdChS3KnV3b2n2/s974ZYkTdq0TRrpvc+TJzfJzbnnfOdLzns+eb8DC/ujwed+Vfl2OJafe4H7x9fhr06VUSinFayKNUHfcZtx49UtHF7/N76rWhi5rKxQtFFvTNr9AL7hkXh3YBRalc8Ha3PFe5mZmcPCphYGbLwHz3B5B5682OJxf1l/fN+yBqrWa4nvfuqPQT/3xKApu3HHPQxxostNFgT7/dPwc5MKKGhTAKVqfYMRG67BOUSRWDXG9Qo2/NENDSpXQI2GLdH2m24YMvcQHntHQOD2lIXj1RmOryoK57KERe5KaP/rPBwTyD/FfskQ8eYEFg1uhxrF8iJX3qKo1m4Y1l13RUhSh8RrpWdtSWDHjh2oW7cu7t27h/+SGGy11brUjjYlIAErbUpTaiuZBCRglUwk0ht6loDM5zKWTluD07fuwe7hbVy5cAYnjhzE/l1bsHrucHSo1QYTz76DnwZB5akPRQafy8swfc0p3Lxnh4e3r+DCmRM4cnA/dm1ZjbkjOqJ2mwl4+d439aakK7K0BAICAtC0aVPMnTsXPJcOw5WABKwMd25MomcSsDKJaTSdQcS8wKZ+3+GP/S/gGSHn8ksaYTQuzxiNtXed4K8F60vMy83o//0f2P/cA6pvdwUzx66Fm7NfUg+kE0kC6iQwefJkfPvtt3j9+rW6S6T3DUACErAygEkw5S5IwMqUZ9f4xhZrOwktKpZBo+F78dDrE7v7l1EkwPfWSoyZuBt27qEKJJpfrknLWSxsJ7dEpbKNMGzPA3hGKtbjQ4Ivbq8ai0m7H8I9JCX29bTcU7rWlCVw8+ZN1KhRAydPnpSC2A14oiVgZcCTYwpdk4CVKcyi6YxBFngTy3/+CsVzZ0OuotXRpGN39B30K37t3xPft2iIVv2X4YJDMGJVGbPSLAYZAm+tQO+vSiB3tlwoWq0xOnbvg0G//ooBPb9Hi4at0H/pebwPilEg7EzzbaQvZBkJJCQkoFOnThg9erRUf9WAZ10CVgY8OabQNQlYmcIsmtgYZGFwuHYAK6eOwqDePdGrzy8YMXk59t9yQkiMklVJC0OXhTng+oFVmDrqF/Tu2Qt9fhmBycv246ZTMGIE9nQt3ERqIstIYMWKFWjWrBns7e2zzJiNbaASsDK2GTOy/krAysgmTOquJAFJAgYtgadPnwr1A/fv34/o6GiD7mtW7ZwErLLqzGfSuCVglUmClm4jSUCSQJaQgEwmQ+fOnTFixAi4u7tniTEb2yAlYGVsM2Zk/c1KwIp1vPz9/eHn65v2h58f/NL58PfzQ0YeAf7+0McjMCAA+ngEBQYiQ4+gIASl8xEcFIR0P4KDEZzOR0hwMNL9CAlBSAYeoSEhSPcjNBSh6XyEhYYivY/wsDBk5EFCT10eS5cuRfPmzUHrlXQYngQkYGV4c2JSPTJVYMXF8d6dOzh04ABWLl2K6ZMnY9G8eZg6YQImjRsnPSQZSDqQhXVgyoQJwv/B+dOnERQQAFqZtHnY2dmhVq1aOHr0qJQdqE3BaqktCVhpSZBSM6olYErAimzHb9+8we7t2zF90iTMmT4d2zZtwrkzZ/DwwQO8evkSnh4e8PH2zvSHt5cX9PXw8vSEth6P7OwEea5evlwAqauXLYP948fwcHdPdg/KWl8P9ie9D3c3N+jj4fbhA/h48ewZjh05Asp42sSJWLpwIa5duQInR0fhc/E6bT5/cHWFPh6uLi7I7IfD+/d48ugRzp89i8Xz52Pm1Kk4e+oUwsPDVf9JpuNdZge2b98e5LXy9ZXIZdMhQp1+RQJWOhWv1LipACu6jvbv3o0Zkydj++bNeG5vj9jYWGmCdSQBglgXZ2dsXLcOq5YtE1LLtb3r11HXjapZDw8PHNi7F/NmzsTTJ08QHy8V+tPmBMbGxODe7dtYOGcOzpw6hQgtgquJEyeiW7duePv2rTa7LLWlBQlIwEoLQpSaUC8BUwBWb169Esz6K5YswZvXr8HdonRkjgQYI7Np3TqsX71aiCOTaqRpX+6JiYk4cfQoFs6di9cvX+KjpN9aF/LjR4+E/5CrtraIiorSSvsnTpwQsgPv3Lkj1Q7UikS114gErLQnS6klFRIwdmD15PFjYTd/+N9/tWrKVyEq6S01EmBdtJVLluCKra2UXq5GRhl9OyE+Hv/u34/N69cLiQwZbU/6fnIJXL96FcsXLxbcrdrYILi6uuLrr7/Gtm3bEBERkfyG0jt6k4AErPQm+qxxY2MGVoynWjB7Ns6dOiUt6HpW13OnTwuLPl2y0qEbCTAWifFWr168gK6z2nQzAsNulTFWa1euxI2rV7Xyf0Jw9sMPP+DPP/+El5eXYQ8+i/VOAlZZbMIze7jGCqyY4s3Ynn8PHJB2g1QamT8e7pqMn9t8jVpVq6BO636Ye+IVAqJTSCuXRcD19r9YNq4fOjVvgLrVK6Bc5bpo238eTrwKQFQKX1XWUwZSL1mwQEgQMOVFXxbwCHum9UW7hrVRtUodtO4zC0ef+yFSQ1lFf7iGDSO/w88LrsLRP23xUoxh27l1K44ePoywsDDlKTCd17JAPN4/EwO+aYQ6VaugdqvemHHwCXwi1Lv4Zb5XsX7ScPTv1RM9eyZ/9J6wC3ZuIanWlzx14gR2btsmuLW1IdApU6aga9euePPmjTaak9rQkgQkYKUlQUrNqJaAsQIruv7WrFghxfUI0xqFxyv/h1p1umGxrRNCI91welxrlCvdBONOvEdg7H8qJz/+0SJ0qlIM5TrMwMlXgYhJjILT4bFoUSY/CreehcvOwYhX/dVk7XF3vn7NGtheuIBoLcWoJLuJvt+IfoI1veqhXrf5OPcuCBFuZzGxfSWUafwHjrzyRUxKsop2ge2a39GqfD5kt7BGwwkX8D6NwIrDv3X9umAZJKeaaR7ReLq+Hxp81RVzTr1GQLg7LkzthGrlGmH0v8/hHa1ayAnP16JXvZLIkzMvChQqjCJFinx+5EfubDlRc+gBPPWMhupvf5Hki+fPBXoWDze3L29m4OzgwYOoX78++D8rHYYjAQlYGc5cmGRPjBFY+fr4YPG8eXj08KGUJUVjldte/FK3DJqOOwvHgDhh8ZB92IH+NUugdOeVsPMMR6IK7U18/w8mD5mMnY+9ECZaXBKeY2XXqihi0wbz7n1AiKovqmiLb21cuxZ7duwQCCPVXGLEb8vgtv83NCjfFH+ceAtfAazK4Lb7F9QrXQbfL70DVzXCSnQ5ir97dEG/ieuxa1YP1CxZAE0m2eK9v3oLjDpB3b19W3AHkg5CG3FA6u6jr/dl7v9iRNPKaDb6MF54x3zSZfd9+L1ReZT9bhGuOwZBVFX5PsbfXYhu3SfhwEMPRMrpbMKrDejb8mfMv/AGmuDY+3fuYMGcOQIFhHz76T1/9uwZ6tSpg2PHjkl8VukVog6+JwErHQhVavKLBIwRWJFzhlloZKqWDhk8dg9ErVI18cv+N/AVd/QJL7Cqa1UULdkdG557ITy1rbooSJkbdvSriRL5W2H2HVcEyy1S4iXqnrdv2YKDBw4IjNjqrjHa92We2De4PsrWHIhdzz0R+VmeCa/WokfNEijVbTVefFDjnksIgl9gNOIT/kP89RloW7kYmqYTWDEDltxL5LQyPXoLGbwODEOjirXQb9tjuEWIQn6Njb3ro1SpLlh+zxkhKrg8ZQFv8Oi1J0Kj5cCqLAS20zqh9eB1uOMconJzoayPD+7dE0IMyIGmjYO1AlmQeeHChUI1AG20KbWRcQlIwCrjMpRaSEECxgasuEtngKntxYuIkQqcAoiB7cQmKFe4GabdcEFQ0nY+FMdG1EPpAvXx13lHBMRpiKzCzmN803Io2nAczjgEQNOvUcV279iB0ydPItIUM6BirmBqq0oo2nQyLr8P+BKrE3YSYxuVQ6G6Y2D/LnUiyIwCK1qqli1aZKLAKgbXZrZHteJN8Pf51/BNwkhhOD2+BSoVroORR57DS41rW/lvLtF5NwY3+wZj99vDI0oz/Sdx6IY1awSyW+X20vu6X79+GD58ONy05F5Mbz+k732RgASsvshCOtOBBIwNWAUGBgo79pfMjJL4fACZF/YMqokSBTtg8RN3hCbt5uNwdUpzlC9UCYP2vYGPRgtLHF5t7IXaZethyJ7n8IlKakwjzTNlYCXz2och9UqjUPv5uO8SjCTJxF/HjLaVUbRif9i/9kxVThKwSkFEMm/8M7whyhVuizm3HBD4Rci4OedbVC9WEX22PMIH0ZKVQlNAJO4s7IKGP87Emdd+iEvx2i8f6gJYTZ8+Hd27d5eIQr+IWe9nErDS+xSYdgeMDVgJZKBz5wpFlE17ZjQcXaIjNvWqjmKFO2G5vQfC5BajO7PboWLhsui94xW8Rd+V2mZlCHu4DN1rVkX7qWfgEBSbaqCvclOmDKwSnbaiX52SKNxxMR66hsgBq7uY921VFC3bC/YvU3cfScBKWWvkXic6Y8cvX6NMkW8w/7YjgpJ0OQH3F3dBzeJl0WP9Q7h+UXK5LyueyrwOY3Srxui38hac0uDP1gWw2rp1K1q0aAF7e3vFTkqv9CYBCVjpTfRZ48bGBqxYl271ihVgkWXpYOS6M7b0roFiBTpgiYLFKh4CsCpSWSOLVYLLYYxqUR1Nh+/GE+8ojeJRlOVvysBK5rIdA+qWRMH2C/BAwWL1CVgVqyxZrJT1Ic2vZa7YNfhrlCmkbLH6DKxKVEZfjSxWsXi6uie+ajkce564J8XDadIfXQCrS5cuoWbNmrh165ZJJhxoIldDu0YCVoY2IybWH2MDViw9wdI1EhHlZ0WU+ePfIbVRIn8zTL/pguCkGKs4XJ7UDOULf4W/zqUcYyULuon5neugQd91uOsR/iV+KI26btLAKuAQhn9dBgWbTsEVB7kYq/irmNa6EorWHyvFWKVRX5JdLgvE0dFNUL5QY0y48AZ+STFW8bg+uwOqFa+HkYefwytFXgtAFngOk9rVxbeTT+G1r6ZOwE+90QWwYq3AevXqgdQLMTExyYYtvZH5EpCAVebLPEvdUQJWxj7dcbg1qw0qFKmBoYfewU9cdGQBAuAqVaYb1j71RHiSW0VpvIkfcGhEM9TpNANnHYKgYVywUiOfXpoysEL8HcztUAXFqg/BgVfeEJMvZYEEXGVRtstKPP8QqlIu8m9KrkB5aSifx+Puwh9Qo2R1/LL7KTxE9zUB15imqFjuByy544RgdbosNJeId9sGomG9n7D0hpPcRkP5Xqpf6wJYhYSEoEmTJlizZo2JUpGolqUhvysBK0OeHRPomwSsjH8SQ06ORcMyRdFq1k24iiar2FuY1bYiyn23GPfdQz+59uKjEBoUjJCIOCTKmCWVCOc9v6JBgz5Yc8f9C5cVwnF7/XRsuemGQBGoqRATkweYpebs6Cg8yLy+dtUqPLe3F14zZd10CmKH4My4ZqhQrCWmX3FA4GdrSuyduehYtTw6zb8JF0H28YgOC0ZwSATiEmXJ4tTir01HmzTSLcTFxQmZlhHh4UIRZtItkMiSBbD5XlxsrMm4mELPTUTryiXQYvIFvBFNVrF3sahzLVT8dg6uvA/8xGOVEI2w4E+6/FHQ5c8KGn4dc76rhYaDd+CRW+SXWDgV+iu+FeDvD1dnZ0FnD//zD2ZNnYp7t28n6TXr/GWEM4zfbdeuHRjEbrrErqI0jeNZAlbGMU9G20sJWBnt1H3peOQtzPqmIko0+hOn3gUg9j8ZAs+NR8tKX2HInhfw/ZzdF3vmD3xVugAqDNwLB58oyPxP4Y9m5VChQVf0HzICo0ePxujRozCsfztULVobw/55/YUX68vdks7Io7Rv925MmzgRk8aNS/Y4feIEIiMjk6439pPIO3PxXdVSaDjmKF75xuA/WRAuTmqLal//ih1PPBFJS0rseYxvXB6FyvfDzmdf+K4+jT0RH3b9gvqlbFCh/y488dRs4Xd0dBTKBamS8eTx4wWwZTJlhCLvYmHXmijTYCT+feqFaJkMQbbT8G2tBhi09SHcPpteYy9OQsvKRVCuzxY8+yAWOJbB7cBwNK3WFuOPv4SPhubXZ/b2AuGwKvkSxHp6eGRYdXv37i38vty1xI+V4Q5l8QYkYJXFFUDXwzc2YEVTvRRjpawVMoQ93oxfm1RAxUZd0X9ANzSqVhc/zj0Lh+DYpF27IrCKgPvugahdIhfMzcxgpvywqoOxp9/DPxUiK0cHB5WLEnf9LAuSkZ2+8ij1/loWjifbfkeLypXQqHNf9O/WBNXrdcOsk28REPPZP6UKWMk+4OTcX9GlaWUUzZ0NluZmMLfIhWJVv0arrtNx7L1vigHWBLAH9u7F9EmTkoFXul+DTYooV4bwpzsxok01VG74PXr364amNeujy7SjeOkX/UWXVQGrhFfY0Ls+andbgGtqGNpV6RCtqju2bsWUCROSyfeKrS2itFCiiZuWgQMHwsnJSVUXpPcyWQISsMpkgWe12xklsFq8WApeV6Wocf549/AqLl66hRdedEVpRoqoqilN31NntTI1a5W8POL938Pu2iVcuvUcHuGx+Kh7MUOV1crkrFUKQg6Aw6PruGR7E8/cwxCjYyGrslppy1rFYU2dOhW9evXCu3fv5EcpnetJAhKw0pPgs8ptJWCVVWZad+NUtlqZpLVKd+LTqGVVVivTs1ZpJAqdXKTKanX18mWtWKvY4cWLF6NLly549eqVTvovNZo2CUjAKm3ykq5OowQkYJVGgUmXJ5OAstVKKGtjQrFVyQaspzfkrVYmba3Sk3zlrVbatFZxOBs2bED79u3BoszSoX8JSMBK/3Ng0j2QgJVJT2+mDU60WgnWKnd304qtyjQppnwjeasVrVVSEfKU5ZXWT+WtVtq0VrEfO3fuRMuWLSX29bROio6ul4CVjgQrNftJAsYIrJZLMVYGp75c9Pfv3o0LZ8+aVCagoQmaAHbpwoWmlQloQEKm1WrLhg1ayQSUH9a+ffvQvHlzPH78WP5t6VxPEpCAlZ4En1VuKwGrrDLTuh8nOa0iM8j5o/teGvcdCGDtnzwBuZUhl4DoAAAgAElEQVSkQ/sSoNXK7cMHrTOkk3W9adOmePTokfY7LbWYZglIwCrNIpO+kBYJSMAqLdKSrhUl4Ovri3///Rd//PEHWrduLdRCq1y5MipVqqSTR9WqVfH111+jX79+WLlyJV68eIH4+HixOyb7zDE+efIEW7ZswYgRI/DTTz+ha9euQiA0g6G1/ejWrRv69OmDGTNm4OTJk/Dx8UFiYqLJyvfDhw/Yu3cvRo4cKbjqatSoAV3ocalSpZA/f35UqFABjRo1wi+//CLEXTk4OJgQia7xqIkErIxnroyyp/oCVtx5k9PlxIkT2LFjBzZv3oxNmzal+pg8eTL+9+OPWL5sWarXiu2xujx3jFyMyWItHemXwNOnTzF06FAUKFAA5ubmyfmvlPmwdPTawsJCAHSHDx82SdcjGbpXrVqF6tWrw8rKSm9yzpkzp0ATcOPGDa1bcdKvhRn/5u3bt9G3b1/Y2NjoTbbkjrO2tsZ3332H8+fPay0DMePSMf0WJGBl+nOs1xFmNrDi/X777TcUK1YMXByTEVPqaCEW75MnTx5hl3/27FmTWih0rUTR0dGYO3cuChUqJMwZF/tvvvlGeO/ChQsCaCVHz/v373XyYCHbe/fuCZYb7vaLFCmSBOx+/PFH8HNTsKyQUJWWQFpNxN8HrRy0ItFSd+jQIWEzQmuSLh7Hjx/Hnj17MGnSJLRt2xa5c+cW5pt9odxdXV2NOjGBZKrjxo1DwYIFhXEROP7www8CHcLly5fx8uVLneiv+Lt48+YNbt68iXXr1uHnn39O6ocoX242TYpUV9d/TOlsXwJW6RSc9DXNJJBZwIp/KN9//z2yZ8+eBKaKFy+OTp064ddff8WwYcN09iCQ6969OypWrKiw+2fF+atXr0pWrFRUhW4/zhPnjjvs33//XViA9FlGhQskF6cyZcoIAKtkyZLgwmjMFkmCV7r7RCsK68sR6OizLJCzs7NQ444bIW5OCPiuX79ulG5Yghu6ranDBIx//vkn6IrTJyD39vbGggULUKJECUG+dEXeuXMH+vxtpfJ3YBIfS8DKJKbRcAeRGcBq48aNgoWKrqPChQsLf2gkytPHn4enpyeWLFkiLBCWlpbIli0bpkyZYmJlQbSnbwRVHTt2FOTERZWWvtjYWO3dIIMtubi4CKCZlgcC9UuXLhkluCKoGjx4MGhRpTVlzZo1CA0NzaB0tPf158+f49tvv0WOHDlQtmxZYUNiTDFuBFWkO6CllbF6165dMyg9oXz5O+PmpVq1arh165Ze/h+1pzGG3ZIErAx7foy+d7oGVvPmzROCNgmqWCuLRUgNwdRNK8C0adOEvnEnPnz4cAQEBBj9fGpzAAS+PXv2BEFLzZo1hSBqdbv7RJkM0XEfERufCJlMOzVeqCdxCYmIjv2IhI8y/KemWdZyGzBggGCFoNuMixRj+Izp+Ouvv5AvXz4ULVoU586dM6hFX5RjWFgYWEw4V65cwsbE3t7eIH7LYv/UPbPfjGOipYrgiu4+Vf9BfO9j4ic9jkuQaVWP4z/rcXwKeuzv7y9sEgheGzduLLG0q5tQLbwvASstCFFqQr0EdAmsli1bJuy+aRViALk2ipmqH0n6PuEixh04gR9dA4GBgelryAS/RbZoLvTMaLKzs0vmMiGA+uAbjTN3fbHhhAtWH3EWHltPu+LW80AER8RDpg4NpSCvqNiPeOIQit0X3LHm6Kc22fbh61546xYhgC3lr1O3mC3HHf+gQYPg5eWlfInBvj516hTKly+PvHnz4syZMypBVVhUAh68Dsb+yx7YfMoVW05/wMGrnnjmFIbo2ESowZwpjplAwicoFpcf+2P3BTeh3e1n3XD6rg+cvaIQn5AcnBKkUM5c/Blz5eHhkeI9DOHDmTNnCpbyunXrgskXyqCKYMrJKwrHb3lj/fEverzzvBvuvQ4GZZ8ONRbm5ZljGPbZumPtsS96fPCqF165hiMmLnm2JZMWGLtIy9rEiRNBi7F0aF8CErDSvkylFuUkoCtg9eDBAyH+hX8Q27ZtUwmqEuLj8ezpU5w6fhz/7t+PY4cP4+H9+8K1yn9+cl1O9TQ8PBx3bt0S2mO7J48dw7u3b9XGhVy8eFHoK12DzDKLiYlJ9R6mfgFjP2rXri0EUO/atSvZ/EVGf8Sxm95Yd+zLQiQCK/GZi8mjtyGIi0++QKuT3xvXcGw78yEJpIltyT/vveQB3+DYZKCNlgjGqDAQmIHdxhBvRT4qWlGoe7TuBgUFKYiGlrobTwOx6aSrWpkQaL1wDgOtLJoeIRHxOHHbG+vkgIS8jHm+75IHPANikKhkgaRFkLphDL8XUlXUqlVLsLoyXk3ZjR0UFo9D172wVg7AK8thw4lP8lUFNNXJ+717JHZdcFM7Z7wHNw4e/jHJLGO2traCO5BxYIwBVWclVndv6f3UJSABq9RlJF2RAQnoAljxz6tNmzaC6X3s2LHJF4uEBFy7ehWL5s4Fa55NGjdO4TF72jScOnECEeHhaRpZcFAQjh85ApZVUW6Tr5ctWoQH9+6pXHCXLl0qWNcY4M6A1owAuzR12kAvZqo/M+/oQqH7Vv4gqDrCxSgFUCW/OGkKrl5rAKrEdrko0dqibBETMxeZRcd4OkM//vnnHwHUN2jQQMhGk+8v3UaX7PwUrIHi+JWfCWKfOoZqBK4Iqg5e81SwBiq3J77efvYD3Pyik4GrhQsXCvpBXi1yQRnqQXoWxqwNGTIkmXWNoIpWP3mrqDhu5WduIAheNQFX79wjQGuXchuqXu86rxpcjRo1SkhioIuYmxzp0K4EJGClXXlKrSlJQBfAilYfZhGR1JFZRfIghczGB//5B9MnTVIJfuQB0fYtWxASEqLUY9UvudNft2oVpvz9d6rtXr50KZlVitYNBufSbUlQQatXVj0YWyVaUViKg4HV4kEgc+qOT4qWKlULyHuPSHxMVO+w4s5d08VIbJ+LYmhkgtg14ZlByuR+4m6fLNeGHmvFbFW6L5cvX54sWP2afQA2nlBvqRLlID4TXHFRT0hBzjHxiYJLVRMwIba746wb/ELiFNyN/F3XqVNHsAQx0NoQrSqMmSQZJ2Or6PLnf494ECAdveGlEagS5UBw5eoTlczCJLbJZ+/AWNCiKn5Hk+cDlz0QGKZIdsvgeuoxXcS0ukmHdiUgASvtylNqTUkCugBWZG/mYkErkDxA4Z/vIQ1BlQiwdmzdCsZ1pHSEhoRgvYagSmz32uXLiFVy+R04cEDILKP1wM3NLaVbmvRn5IRiBmDp0qVBbir5g66htAIgLi4EYxHRH+WbUji//MhfI8uM8kLloAKw9erVS1jwVbkwFW6q5xeiu5X0Clw85TcgweHx2HvJPU0LtChnxgSpOxjbwzgqZTmm9trubYiQmCDfLmOsCGDXr1+f6m9U/nuZdX7lyhVUqVJFKCVDnZY/6KrbeS7tcrjyJAARMer1+PrTAGxMwW2rTs6vP4QLCRpiH/lf2aFDB8Hdyrg7eVAoXiM9p18CErACEO93H6t+qooCOT4RSlpVGIoTH0IQp2IDnOi6FwNqFkYOCzOYmVkgb4OR2GPnhaiPmscfpH+6jO+b2gZWdAtwl8UMJ/6ZyS8Wju/fY8Hs2alalETwIz6zMGpKfyyXLlzArGnT0tTu7OnThcBQ+f4xALp+/fpCjA6ZmfVBB2EIGnT06FEhYJ28Y8puwKtPAsCYE3ULhLr3aU0hKFN23XG8dE3tuZh2EMF7nb3vmwywzZ49WyAynTBhgkFnenLhp+u5WbNmcHR0VJj6+6+DhWBydfJU9z7l7OYbrdKqwmSD47e9NXbhyt9jv60HCPbkDyan0DJNt5UhuqvIc0Z+M2U3IHWQepNSfKD82OXPN592FVzQ8nIQz8MiE3DgsmeafxtsnxsPZeur6A6kNVNTy73YF+k5ZQlIwEqQTxCO/F4DRXJZCiRq5jbdsMkpENHKwOqjE3b2qYFCnwGYmVVlDD/5ASGqEFjKcs8yn2obWHF3RT6h9u3bJ/uzTau1SgRWu7ZvV7B8yU8OrU4rly5VGaslfl/d841r15IFszKjjOnk5N7SJzGj/Bgz+5yWRvKNMb5DnoKCIJRuC/mFJi3nTx1Ux6jQfcVYnrS0JV7L7ykv+GQup7WtR48eyeJqMluWKd2P9f9IDEmCXOUsRiYGpBRQLY5f1fPDt8HJrEvsR5BgBUv//Hn4RytslE6fPi0AQ8bh0TVoaMf48eMFOpXFixcr8NRFxnzEP1fSB4Aob+qrKre2o2ckGDOlak5Se48JG37BiuW2GJJA/Rg9enQy/TA0WRtbfyRgxRmLOoe/uv+AViVzIrulGcysm2G2nQ8iFLJVE/B+W390aFQNebNZwdzMDFbVRuG0u2rLlrEpgq76q21gxT8x1pFjcV75DCe6BJcsWJAmq5IIiBg35eXpqfCnLsrj+dOnmD9rVrraXb96NehGlD+4C2fZFv6ZZVXqBWanMeCXPF/yc8i09H226V+YH76hOym55filSxi2ppIJqG5hottFOT6F4L5cuXLo3LmzQbt0SQJKi8+YMWMU0uoJYP/NwMJ/50UQolWk8jPYP72WQcqfFAzyGYJkYKerjYkqTPgwtIO/YbpZ165dq+CqDIlMEGgr1OlUau+/dAkHEwuUjzcfIrAjHe5F3o9WYM6P/EGKGlYWYKUDZcux/HXSedolIAErAHE3pqLnxDUY17go8mUzh5lVFYw85YZQOUtU/LtN6NtlHCb3qoyCuWnZskTZXw/BJThWIehS0ymQJSYi+U9H028bz3XaBlbkXuGfGQGWfHwVgRGzAEWwlNZnuhFVBciSVmHOjBnpanfx/PkKwIGzxmBtLnb9+/dXWOyMZ0Yz3lNmfBFcsl6cPLjkgk+XUGoLj7rPyU2lihKAC1JqFAvq2uT3lC1WTKvngsQagoa8INFVRevuyJEj4ePjozBxzLpMS4C5vHzuvwpWyZEUEBKHvel0ubL9D76Kgdt0ZTIWj9ZpZVemwmD09IKbO4Yk0PIjz2IfEZ2Af9LpsqMcyKWWkJh8dWC8X3riD9nmltOu8AtWBFa0mtPyyjJHxpDhqqdpTtdtJWCFBDyc9xP+PGKPtT+VR8Ec5jCzKID/bXVCoOgLjHuJdb27Yuqpg/ijcUnktTKDmUVR/LzL8cs1SeKPgpPtBkwdMxID2lRA/jwFUOWnNXjgF4kI76c4t20OhnVpgHIV+2P3e2fcXDcADUuXQru5N+AdzqDQKLw/sxKjujRApUp10ap9E9Sq0Qw9/16MdZu2Ytv2nbjwKhQxCXJ+yignXN44DWNHDUCbCvmRp0AV9Fh9D75KGU1JXczEE20DK8a1EFixbIw8sPL08MDCDAArBzXA6vbNm5gzfXq6gNUi8gYpEYKKAeysfJ9Vyfm2b98uLPiUgXLszLn7vgokivILemrnLt6KFg9RzX2DYtPtQmFmV7hSsPbq1asFYlPu9JUBi3hPQ3gm1QIXTgJAZcoC23QG83MO3igFQotjZUbgP1fSB4zJlaW88O/du1cAsEwWUO6/eE99Ps+fP1+ghGDRZXk9YJUAkoGmx9VKAlFmsKoiDPUPiUu3RffQNS/BVSsvr6lTpwobnOnTp4Os7NKhPQlIwOrjSyzvNQz7HD1x8q/6KCZYo6zRYv4T+Ai+wBg8X9UTXadfgOPN+ehQJh+szc1gka8z1r8OQJTcxkIWbIdNgxuhTM1+2Gbvj8ATI1CjaC6YW7fAvMdOeHJpFQbULYSclubI8+0K3D44Fs1L28DK3BLFe++Gc6A/Hq7oiqoFs8PSugp+O/gOwbEhOD68JormsoC5uSUsrath5KkPCBasaTIE223GkMZlUbPvVjz2C8SJkbVQLLcFrFvMhZ1XOBS8mdrTG41b0jawYuBw/vz5hfp78gGXIcHBoIUorZYq8XoyPMsHmosDfPL4MebNnJmudteuXJksKJRs44wv4qKcVf/M7t+/D5aGYTq9k5OTKGrh2ckzKl1ZZYeueQoM1gqNfX7BeSXbd3qCiV+SW0jJLTN06FCh5h4BVmoZpar6k1nvPXv2TCCCpDuNRcrlD1ef6HRZP/Ze9EBQmGKsjny7916lLyj+ymN/MDZJ/hA5oshsLh+LJ3+NPs+PHTsm6DGTMJT1+LlTWLr0mEHv6rIuqccXHvqla+NBa66ym/x///ufQP/CzZ485Yk+ZWoq987ywCrReQP6/LIFb/zD8HRpB5TJZw1zMytUH30WHqHxiLZfjv91m4WLH4LwZv2PKFsgO8zNzJG73RLY+0YmARdZ2H0s+aEyCuQsgz673iAoJhaP5rdFaRtrWJYdhIMuwYj96Ih1Xcshf/bsaDJlK8a3a4RmtYsjV/ai6Lz2Kbwer0LXCgWQ3dwcedouxEOfCCQiAseHVReAlVXtv3DRPRTxgrFKhrAHS9GlSkHkLNMbO14FIDr2ERa0L4N81pYoM+hfOAfGpMtNqU3l1jawYuAwy6Cw7IWyxWf/nj2YNnFimkHQlo0b1S6QkRERWL54cZrbJGBTxWfFTBwWwmUmjrzFTZsyN/S2OG6yVZM1n3E08tmRjLPi7jqtbiqW9kiJXJFulLTSANDtwoBs+YN9J3cRWcEvX76cYjap/Pf0cU4i3YYNGwp9vXDhgkJfGct0XAhgV89sr8pC+OCN6sB1cXwBYaRxSJvVipYdZTcgCzCTDoA6cvDgwWS8cOL99PlMqhBuDujWZiUI+Y1ZegPY1QWui+N09iLjetoC2Kn3ytZAJgOwWDTpLO7duyc2Lz1rSQJZHFjJ4L17IPqsegLfiHj47e6DCgVzwNzMAoV67oSz+00s6t4Ns23dERbrhV19Kn5yFZpnQ9NZ9+AT/nmHJQuG7YSmKJHXGtkbTsF1rzDEeR7C73WKIHe2Eui89iH8oj4CIUfwW/UiyJWtOgaM6o3ey+/B088Zjx+8hX90HPz2DUDlwjlhbp4DrRc++mQxS7DDvDalYWNtDotiP2PX52xFWfBlTGxeCjbW2dFg8lV4hMbB6/BQ1CuaG9lKdMaaB76IVNwAakll0taMtoHVq1evhNp7jHFxdXVV6MzrV6/SFWhu9+CB2nI0vMHZ06cxUw3bumjxUn6eOWWKkGkj/2dLMkkSY3Kx4ELHxSOrHmTMp0uXQJP1y+QPMQh6zefagKoWePn3yB6ubO2Qb4/npAJgfcGUSrfIt8mgdWZhKWdn0T3F2oZNmzZNZqVQvqchvGYcG5M9fvvtt2SZX3QtMaZNUxCrKmVf1RhfuaSNy+ohwZpSMDwJN0kVQRJg/uYN9aA7m0XEmZAhHy/I/tI1nRYQRP2Mik3Zx0A9ZowbaznK66u68w0nXT/FbClZXZmZy/g7ZrYaYsaloc63pv3K2sBKFoRDQ3tiwR1vhCUAcRf+QJ1iuWFhZoZsrWdg65h26DrvKjzC4pEYdBhDqhdGTvJXWdXF+Ctewnco6IQXy9GpbH5kM8+FVvPt4P7OFgu6VkGBApXQZYEtPrBYLICYqxPQsHgeZCvRHO27T8IlT8WMwvCTw1GraC5YWFXAkCOuCI79D3EP56JNaRtYm5sjdxvRipWAlyu/R7kC2WCRqxXmPfiAt5cXolu1gihYqTPmX3JFeJycj1JTbdDBddoGVgwwb968uQBOlFm7+dmeHTvSZLVav2YN6EZM6Qjw908z5cK506cRHRWl0CzZjhnzQlCo7DpQuDALvBDdgVz0uWOWt1px+JqCK01AlShOTcGVOlDFunssYEumbUN3A4pjtre3F9yBDLJWtg7yGk3B1ek7PiCPkqaHpkShAqiKVwQT3HCIJKzMHDVEN6AoB7oDCQD5ePz4sYLVitdoCq40AVXiPTUFV+pAFQPVW7RoIfDpSW5AUarafc7awCriDMb+OB22nqECGWjCk4VoW8oG1mZmsLApiNLNpuCKR5jgeos4Oxp1in4CXVZVRuKU26fvAPF4MLsVStpYwczCBpUat0Szlt+i77hVOP3CH7EfxSDzBNgvbI/SNtmQvWhF/G/FE/gp8jkA4Xcw75vyyJejNAbsd0BQpAv2DaqNIjktYGHTAONOOX/KVIx/gDmtacViPyuhcYtmaPltX4xbeQov/GOQdEvt6kq6WtM2sGInmEZO87sqLisWON69fbtG4Grd6tUgaJK3KqkbpLeXF1YsWaIRnxWLMkdFRiZrikzS5LCiFSE4FTCX7Msm+MbgwYMFVwRL/ahioqcV6tG7UCHwXNmqQh4muvdScv+pEhnJGxkcfP4Ba+QpEpFuOeWKG08DEBQep5IAc8aMGQJNBAsEKzPGq7qXobzHrK+8efOiXbt2Kq0TUTEfwRgcUiUoB1zTLUvW7lgl8KPJ2AJC43DzWSC2KllXGOvGJAXOg7JFkO0ym5H8SmXLljX4skF0t7KeYY4cOcDft6osURJz3nsVhO3n3BSsgyRbpRWQ8W4shp2Wg3rsFRiDS3b+yaywTAS4ah8A/9A4BfoKtk+rOfWB1uKOHTsmqx+Zlj5I16qXQJYGVjHXJqHL+FNw+0yZIPPagV7lCyAHg9PzNsbUyx4IF7LvYnBtUiMUz/OJZqH0wH/hKtIsJLpgY/dyKJDdHAKx6PsARIlYSl7uiR+wpUd5FMxuDsvivbDjXSCiVfyWEpwPY0TrOqjXtD2+bVYNpUpVQZPuf2HLbU9EfeboSXTZhB4VCgqxWDZdN+Cdf5TeY6nkhyp/rgtgxaDvmjVrwtzcHAwGVybaJLg6feIEWGxZ2UXH11MnTMCBPXvAosqagCpxPD7e3oJFTF0dwrkzZuDyxYuIkat9J3735MmTAkszFzjWmFNF7SBem1WeSVrJOA8LCwuBEkDZJSjKgXFXvsGxcPGJEli/uVBx157RgyVwPP1j4OodJbC2k6pBXat79uwR5o+llE6dOqWy0HZG+6Or7zNjja5LxoUNGzYsWSameF9ms/mHxAr16siuTsZ6eV4p8bq0PjNb0CcoRpg/d78YwW2r7ndHFzkpFtjXnTt3Jvttp/XemXH98+fPhVgr6jGTa9RZ2LgJEPWYcgiP/qgVPSYwJshinUFWHyAIVqXHlDl59OgC5MaUdBbKluLMkFdWuEcWBlbxuDfzBww/4IwgkVYh5ixG1SyCXJY2aDr9KjzDEz4paNw9zGwh0iwUQo9tDl9oFhLssbD9Z+tRvm7YpACsZAh1coR3bAISg45gSPUiyGluiZL998M5SDmwXAbfKwvQrVYdDNz9GoGqUNdnjUywX4QOZZmdaIF8XTfirTywkoXCydEbsfEGEGAFCG4e7uiUmZ8z+uPiQlekSBHhD4JFWlWVpCHgun3rFvbt3o0tGzZg17ZtQkA5SSkzUjyXQfPnz54V2mO7e3fuBOO01GXWMBasXr16AoBYtGiR2kD5jMrEGL9/6dIloUSRmZmZkClJ+gV1i64+xkc9IZEiFyMC+blz5xqltZGB9swO5BhoKWQWrKEd3HzQpUZdIPmmMhWHofVXvj+MvaOFjeBqypQpyeIG5a/Vxzn/H8kfRw49FoI31PqL+pCNLu6ZZYGVzPc4hjVojr/PuyP0U5odkGAnuNhKt56F697h+BRRIEPQuT/RsFhuWJoxvqoxZtzzgRi3DlkgDg+pgcI5LQT+q2Z/HYK9VxB8HW5j3+yhGLboPJxCYhF1ZQIaFM8DS4tC+N/W91+AmTirCY8xvx0z+sxhmacU6rT+EYMnLsVu21fwj/2oQCYqCzyC32sVRS4LM1jkb4o//30CzyBfONzejznDhmPROUeExKowh4n3ysRn7kBZxkWe50Ubt+fiK5aHYb0u1t5TBa60ca+MtEFQ1aRJEyEmjK5LiYgvuTQZqEwmcy6odevWFbLt4uLUp/Qnb0E379Ct069fP8FdSUAya9asZISvurmzbloVrUEcC7PZLl68mKzkkm7unHKrtPCQbJM0KtSB4cOHa30jlnIPtPMpLWyMn+QYWrVqhTt37hhEggqpNshlxjAEgiqGUsgTmmpn9FIr8hLIesDqoxtu712MwU1LIU82KxRrNhjzDj9FSOxHINENWwcPwNr7PohIkCHk5UXsWT4GHSrlQw6WuiGwsrBBnV5TsemKEyI+Z7JEP1uPXjU/B7bzGnNL5C3fDqO334d3NK1eCXiysJ1AvWCeqz2WPvVHpGK8JpDogX+H1EGRXJ8KQQv3EtqyQtHGI7HveRBikr4TjWcbfkbtIjlhaf6pX+aWeVG+3Shsu+eFKHnyUPnZ1sM5yedoHtdFTBEtUmJ8A03btCwouwX1MOSkWxIw0GVJtwbB1fv37zNkKUtq2ARPGMDeuHFjITCcCz+zJ7lQkRgyM90V5KVikgHr64kLPXWLLmdD5qzSVCWYNMDkDwbg07pCOe/YsSPT5cyC5OwLAZVoDWTq/5w5c5Jl12k6NkO4jr95Wqf5m6eMGT/IAHFa3zLT/U+wev78efz8889CPBXXE4I+JvwwCUM6dCuBrAesdCTPxDBX2NmewtHjZ3DlkROCYz+q9HOrvr0MYY7XsHf+b+j+Yw90bVMXZfNnh9Vn0MTyOcX77IaDAi9VIsJcH+HyqaM4fuYK7JzIk6XKs676jpnxLndF9evXF7JldPWnQiDF8jDcjfHPgwGZjIFhnJW+Di4Y7BP5qtgn1jpjSY6MuB/1NZbMvC//8AnCxYVW3FwwkJmLFYEXAaouHuSmYmwPd/Tifbkwcqf/8uXLTAV3upY5ubjo0qSllyBWHC/lzN+rruVcvXp1IdhbvC8BHgPr7969axAWnozKn7GCLNBMImBxjJQzM4K/+uorneiv+Jto0KCBYP2V12PSQQwYMEDa2GV0YtPwfQlYpUFYurk0Ec4HfkeDEsXRcpotXMPiPwGyGF88O7MCA74uitxW5rBuNhsPvfXPpJ4WGdDknBkM43QLMuaKOzJxoShfvjx69+4tBGvu378fhw8fxpEjR3TyIIEhYxY4VhJfcs06NcoAACAASURBVEHmHyrBHvltJLN7WrQGgry2bNmC7777Toih48IrLlC6fmZwOsEFa1LShZKZ1rK0SSnjV7NywbZt20DmcIKAzJQzudxq1KghJC3Y2dkZVTKAppJn+ANpOUjRQeun+N+kax1m+7T+cbPAjQqpXXS1sdVUFlntOglY6XvGZd4C8WihvNUw6rQbQuQKPwOJcFjbFeUL5EXNsWfgHhKXBiuYfgdGhnTGyzDOILNin7hTJKM5g3Rpis+MPzBV9yAzPOuHMSXflBfmzNAwWvkYp0aOILoLadXQxYPM2SSiZAKCIQXPZ4aMeY/MkjOtucyio1s1K8mZ/4Ek4mRGsK70mO0yC5v/O/q02GeWzhryfSRgpffZSYTXmQloXTYfCtcfhBWn7OEVngDZxwh4PNyF4U3KokqnmTjvEgYD4fxMUWIEEox1outGXwHl/BN7+vQpWOyX2UV9+vQRYrHIMqyLB+MYaK1ilXuOme7JrLRopKgQ0oeSBCQJSBLIYhKQgJWBTHi0xwMc2zAXf/3eHz179MBPvfpjyB+zsP7EE3hHJShkBRpIl5O6QSBBc/PixYuFEhQMiKWFQbLWJIlIOpEkIElAkoAkgSwiAQlYZZGJ1tUwGXAscs/QLca4KkPKzNPVuKV2JQlIEpAkIElAkoAqCUjASpVUpPfSJAG63sjPxEBN0gswq4j+/syKrUpTZ6WLJQlIEpAkIElAkoAOJSABKx0KNys2zewTZuixnhqLvkrgKitqgfbGzCDcJ0+eCHF7LMfC4rF0M2s7y4n8PqRWGDVqlMCfxQDrrBQAzOB1coadOHECLHzcqVMnIREkMDBQK5O5YMECdO/eHX///TeY2OLg4GAS1AppEQ71iUWxGfvJen0iiag2QiaoryxcTZoXbnAZ68lsZCnWMy0zpL1rJWClPVlKLclJgFXfye588+ZNCVzJyUU6TVkCLH20a9cuoaYdOXnIwSOfedm3b1+dlDrhItSwYUMFygGmrJMfaOTIkUKfdEFym7I0dPcpgSmZ2EngSxDFTFZ5uoWCBQsKGWba4l7jwk96Bfm55D3atm0rgC1yz5Ffy5QO6jI3mQRRpD6gPsmPn0k1BLPaOAigmEAjcufxPqR9ocwJtphYQy49bYA4bfTX1NuQgJWpz7Aex0e2atYlU1dcV49dk25toBIgwGHpH5ELTH4hIvcRa97pygq6YsUKof6k/D3F86FDh2q9LJO+p4DJJqy3KY5R/nnMmDFgTUxtHixVwyLk8vcRz1kcmLxapnQQiJMjTJ6sUxwv9fvs2bNatdqR2kYZvIr3Y7HzZ8+eSRasTFIwCVhlkqCz4m3IVUOyRRIAatt1kxXlmVXGTD4psqCLi4L4TFeSLmstsgwI9VWZyLFZs2bCbt/U3CoEqAMHDkxmSSH44SKt7d8sOZaqVauWbF5Z89MQi0Jr4/f24sULISxC1GHxmbrs4uKijVsktUHrIhnWxSoU4r3y5csn1IXU1YYkqQPSSZIEshSwCn9zEXu3bcL6deuwTnysX48Nm7di5/7jsH3sipD4RKMh4UyaRQM+mTlzJvgwJTeKAYvbJLrGnXWlSpUUFmC6qc6cOaNzhu758+cLbO/iosRn0oeQhV1bbjFDmSRm79IdpbwQ//bbbzopgkxg+ssvvyQDcrRk6RIw61Pe1GXGm8rrE3WZoRK6KDROi64q8Hr06FGd3E+fsjXke2cpYEUm89Cnq/BjhfzIzjp85lYo3aQLOrerjeK5rGFhbo2C9Qdi4wM/RBlY3T1DVqKU+nbx4kVwR8ryDtIhSSA1CbBgbdmyZZNZjRgH5O7untrXM/w542K4ECpbrcjmf+XKFZNZnBhvQ5myhI/8os+YNiad6CoWhzGXlKX8PXnOQG4GdmvbSpZhhchAAwzS5wZBWZdYmJny18VB+ZGwOEeOHAoytrGxwdq1a03O3aoLGWqjzSwGrABEncaImoWRy8IM5tZfY8pNb4R/jMPr1V1RPn92mJuZI3fjabjuHY4EbUg4i7dB2gWynXPBkg5JAuokwIypCRMmCDXVuNDSpcHF56effhIC2Lnjjo2NVfd1rb7PgO4CBQoIgd0swdKhQwcBgDAwmJZuuriN+Th//rwQi0PLSdWqVYW4tc2bN6NUqVLo16+fTt1ytPqxhidluWPHDiGAnoWJWYKKRYppyWFZIWM+2P8pU6YkWT4p09evXwvWQQawc/OgyzHSsktXOgvSs4TOH3/8IegzAR6tkW5ubsYsXqPoe5YDVvH3Z6J5ibywMjODVc0/cdEzDPEAEp4uQvvSNrA2I+Bqhjl2PohINIo5NOhOMq5C17Ex2hBAYuBznN4wE6MG/Iyf+gzDzF2XcHn/Iiz55yn8wiWIrQ0Zq2uDmVEM8uUum26plStXJoEXuojGjx+v08VeuV+MfZk8eXKShYwkuGPHjgVjVQj6hgwZIriujC3mijE2ixYtSgpY79KlC96/fy+4ODkWjpm/V13H4tCKvWnTpqSkFs4xATTnnoHec+fOhbZoHpTnVtevqcvdunUTNgMEUQzKF8MgGEdG0M4qFbo8OH+sVUqaElqwCGYJYmkJpv4yZpAbBl1ZJXU5NmNpO4sBqwQ8W/INStlYw8zMChWHHofb58LG8dcnolGJPLA0M4OZdRPMuu+D8I+fpzExAQmJ/2kWeyWTaTj3MiQmanatjD8OVa3KEvEF+yUi8cuLz1fzHl++qA8zu+EDq0T431yGXk1boN/svbj6/D1eXN2CYc1KwobpyqNOwSnQeIpff5lt4zgLCgoSUtFpsahQoYIQZKsce6KP2CbeUx448fXOnTsFqw4XJ1pdjC0uaOrUqSDFAcELF3gG68sfmSVnZdmyD5zz2bNno3DhwsLiP2PGjGT9k++rIZ5TnnRpUpdZjYKWI2UuNH3KmGCK9CHMrqWLksBLOnQjgawFrBIdsLZzGeTLZg4zy5Lo/48LgmP/AxCDezNaomReK5iZmcOq+hicfv8Kd09twowh36FeqXLovcMBLrfWot9XJVGs5Qxc9ZJzFYa/xallI9GjS3d0b1sDJcvWQ5fJR/EmJFYO+HACZQh/fw6rRnZBm7ad0LljY9Ru1Acrb3ohIoH9+HJEOFzA2kmjMbx/a5S3yQWbCl2w7LYvIhKA8Of7ML5zXVSo3hTfft8B7b75Ad3atsPYox8QFPMfL8C+8Z1Rt0J1NP32e3Ro9w1+6NYW7cYehXdQzJebZMKZoQOrBIft6Fe3BrqvvA/PJCQNhB4fgXol86OWBKx0riUkNCTXzrt37ww+QJwZrqSDuHTpktHFW9E6RcvgkSNHEBUVpfN5TesNCGRJUMrYL2PNJGZJLwboMxsws0BUWuTMWFe6JslrZaxWwbSMV1/XZilglei+FT+VLyAErlsU6oFtDkEgDol5uQ7dK+VHdsZdZauA/rtewu3lZawZWAcFc1rCPHcHLLtzCGOalUReK3NYFO6FXc6fvhv9dj+GNysFm3I/YctTf0RH38DkxiWQx7oAOix7CP9I0ewVgWc7BqNRiQKo3ns97nmFw/3SZLQulQ8lem6He+DnuAJZEB6sH4SGpWqg9+ZH8As8hTF1iiG3hTWazXoAb5/rmNaiFPLlqIxhx10QHJcI/2sz0L5iO8y86YHQhCjcmt4SpfPlQOVhx+ESHIdE/2uY0b4i2s28Ce/QzHVrGTawisKVyc1QtlwPbHjpg0g5s2D8reloVa4w6oyWLFa6/nMyxAUopTGrsrikdL0hfWYMspbkq1uNMWb56lYy2ms9CwErGfz3D0DlQjmEAHWr6r0we8VqrJg5GK3K50V2C3NYF2mModsfwT/6I/5DIhzWdkHZ/NmRrdEkbBnfDg1b1kPJXNlR5Ps1eOoXhQT3IxjWoBhyW9mg9fz78In4CMTfw8zmnwBYrg7L4eYfCeAjnA8MRr0iuZCn/nhccAtFfPwjzG9bBvmsrVBu8GF4BsUCslDcW/QDKufPiTI/78SrwGjEPVmI9mXywdqyNAb84wzfB0vQsUw+ZDPPjQYTLsI1NB7/yfxx8I8JOOwWgKi451jasSzyZzNH7gYTcNE1FPH/yeB/8A9MOOyGgChFy5j2VEl1SwYNrBIeYUGHCihSayROOAdCMF5+Hkb8rRloXa4w6krASvXESu9KEpAkIElAkoBKCWQhYBWK40NroHBOC5iZW6NKp8EY8stA9Os3EENGTsLCbefx0j8WX1gWgnF4SDUUzpkNVfuNQp/eK/DA2x/Oj+/jjX8MEhI8cGBQTRTJaQHLYj9h25tARNPiEXYEv1UtglzmZsjWZjHc/CKQ6LYPA2sURk7r4ui1/Q0ChQtj8O7YQoyftA6XXMIQJ5Mh8NJ4NCmRF9Y5GmLKNU+ExXrh8O91UTS3NYp/vwoPfCIR77ULfSsXQk7zT9a1npvs4BcVj0AXFwTEJSBR5oXd/aqgcE5zmJlnQ4Wem2DnF4X4QBe4BMQhQS7mSqVGaPlNgwZWcbaY0Kg0ClQagkMOAYL1Uhy+BKxESWjvmdlQrGGmHHeivTvoryW6sbZu3Sq4sJRjxDK7V6zDt23btqTg8My+vy7uFx8fD7rZmF1nCEHXpFKgLusyu08XckypTXJgkQ3e1BjwUxqzrj7LOsAq6gL+qFcUuenus/oKk657I8Vkr5jLGP91MeSxLoZm7bpj4kVvhMZ9sfbE3J2BFkJ2oSVKDTgA56AYIbg9/u4MNC/JrENLlBl0EJ7B4Xg4pzVK2VjBsngf7PnsQkw2oQnPsawTLU0WyNV6AR5+eI0Lc7ugcoECqNx1AS65hiOewE0WihvT2qB0PmuYm5nBIu/X+OukE0KS+iZD6I3paFs6H6zJ1WWRF1//dRJOn4P0k91Xx28YNLCKt8O89uVRIE8TTL3uhhA5L6kErLSnGFx8mNnHrDqm9DP+RD4wXHt30l9LpDAoV66cQH5JviB9UTKcO3dOIIgklcL69etNpv4eY4KKFy8u6A9jxPQFaBibNnHiRCEJoEyZMgKdgSnoMjnimjdvLgTeM+tVWzUM9feL1O+dswywirsxCY2Kf8r6s6oxFhc+0yyoE3/CkwVoW8oG2bIXQcX/LcMj/0iI0VJAHG5MbowSeSxhZlkcvfc4IZDBWkjAkwVtUZpZh5bF0WePI4LCH2BO61KwsTJHzm+W44V/pMoMv/gHs9GqlA2szCxgU6EBmjVpjo59x2PVmVcIjKVrUu6Ifo4NvWqgUA4LIdg+W82xOOUagiRshWg839ALNQrlgAXpI7LVxNhTrnLgS64tHZ8aNLBCOGwnNEHpfNlRqvMK3PIIx6ccggS47BmEusXyobYUvJ4hDXF1dcV3330n8EAxnZ4LpL5AR4YGksqXyWL+559/JlEy/PrrrwJFRGYtukyxX7BgQRKVAlP+abkyhpiqVEQrfEwevF69eiVRMjCDUDmrUZN2MnINdblr164CLQipFJYvX55EpZCRdg3hu9QTZr1yc8CsV2YPSpQM6Z+ZLAKsEvBwTqvPWX9WqPD7F5oF1aJLhOum/6FcgewwtyyOXjveIyhGLrI50Q2b/1cOBbKbwzxXR6x46f8p8DnuEea1LQ0ba3PkqDseFz1CEeu/F/0qFkQOcwsU670bzoGfLFuK902Ey6buKM/7mdug28Z3KmOhZMGOcPT95M6TBVzF9HZlkc/aHGZW1THmrBtCYoPg5OiLuPhEQBaAq9Pboaxg2bJC9TFnk6glFO+t21eGDayABIddGFi3GHJZWqNA9W/Qe+hoDOvTE78N7oSKBfJJwesZUA9bW9skIkqmnxtjJl1ahk8QtXv3boHokotTo0aNBNegrl1XLJZM+gcu9qRSYAkpU8z4oot1zpw5SeCR/HgiD1da5ik919JNVrduXdASSKoCuswyi7A2Pf1N73cePHiApk2bCpQMtBDu378f3DRIR9okkDWA1ccXWNbhE+ARLEl7XRAsWJjUCUuMrzKHZcn+OOASrBDYjI/vsabzpwBxy4pDceLDJ2tRyLmx+LpYbljlrImRR50QEiuDzGsHelcgsDJHrnZL8MQ34gsFgywULi5+iEuIhf2ib1CGIMgiXzJgJQtzhqNXDMLPTcCgZfeTMvui7eZ/Cmy3robRp90QHHoRE39ZhnteoQLpKaLtML89A+StUW30abgFZz4fk6EDK1JghD3fj4k/1kfJfHlQuEpbjNz6AK7nJ6GlFLyu7geS4vvkS1u6dGkSJxEtVpm1AKbYsUz6kGzXjRs3FhanokWL4p9//tEZvQF/Xw0bNhTuVbJkSYFKQV9usswQL8HryZMnBcZ4MonXqFFDp6WGCIpXrFghuCEJlkkFwSLhpmIJVDVnBOqsfEB2fGtra4FFnu9Jh+YSyBLA6uPr5egkZNKR/LM55j32TZlVXYyvsrRAoR7b4BAYreiKQzSuTWqE4nksYV37T1zyCEV8jD2WMEbKpiK6r7oD78iET99JsMfC9qWRz5qM7uXRbfE5vPH1h+ujo1j65xissHVBWNxHBB75DTWL5IKFmQUKNPsLB594IsjXAbf3zcbvv8/HmfeBeL+pJyp99Sv2vAr4FCgffU6gYshfdRiOuQQj2m0belX+Gr/ufgl/IUA+GufG1EGx/FUx7JjI2aW5cmjjSsMHVqpHKcVYqZaLJu8yPoO7e1pPWNrDFK0nqcnB399f4AuiFYm14XQVszJixAjkzZtXiI8h4aOurWOpjTuzPn/79m1SqaExY8borBYp3X+0PFKXGVuVVQAGkwUWL14sAEoCdgbq64NgOrP0Sdv3MWlgJfOzx+ldizGkeSnksWY8EoO5bVCn12SsPPkCIcqxS5+lm/BkoRBfZW2eG98sewb/yOSpdImep/F3qzKwyV0RnScswNTeLdDg29+w7IIjwuLkr5ch8Pp8/FClgMCTxT6YW9qgYrtR2HbfG1EiMWj0M2zoVQuFyZvFfpqZwzJPObQZuRX3vKKQ8F887kz/BvVrl0XZr3pg3KJVmD+kFarU7oLZ5wjOZIi/MwMdvqqNsmW/Qo9xi7Bq/hC0qlIbXWafg0tYnMrYLm0rlHJ7ErBSlkjWeE3XCQvumrL1JLWZZNwTMwWdnZ11tiixXArLlWTFIueM1WP2o64Z8Fl8m7qcFV1iTIa4c+eOziyuqf2GjPVzkwZWOp+UOD+8vHEWJ89cxcP3foj+KFOybH3pgSzcFXaXz+DkuWt47ByM+C+8Dl8uSgyH66MrOHX0GM5cfginoFh8TArtSoTXu3cIjI1HjP9b3D1/CmeuPYNHZDwSP0e2J3q9w/vAWMTH+OPt3fM4deYannlEIl684MudMu3MWIFV3I1paFm2MGqPPgmnwFi185ppgpRuJElAkoAkAUkCRiEBCVgZxTQZbyeNE1jJ4LN/EGoVz4sSvbbhpW+UXqx9xjDrdD1lVuabMchD0z7SmpVWuUmy1lS6EApJS/LVXF5pvVIs7pzW72WV6yVglVVmWk/jNDpgJQvF8xNrMOW3n9Hjx67o1n0gxs7eg7s+EXJ0FnoSpoHd1sXFRQjmXbdunUlSKOhK3ARVgwYNwqhRo0D+oNQAAONd5s+fD2bBOTo66qpbJtMuY/q6dOkiyExTSgbGUpGignUr6V6VjpQlQI60Hj164O7duwKITfnqrPepBKyy3pxn6oiNDlhlqnSM92akTqhWrZqQfs5AdScnJ+MdTCb3nL+JqlWrCjGfzOhjiru6oHPGTv38889J/E1k/M7KcWuaTBWzMEU+ph9//DHV4t6kBalTp06SLjPrTzrUS4DM7EzIsLKyQrFixbBv374sGX+mXkKABKxSko70WYYlIAGrDIvQoBqgC2DJkiUoVKiQAAy+//57kyKizCxhP378WCBh5OJUpEgRsNwPWb3lDxI0NmjQIMtQKciPPaPnp0+fTgL+1atXB8GTcqkhgtlly5YJ4IBJRaQFMXUqhYzKVfw+syMHDhyYRMkwadKkLJlAIcpD+VkCVsoSkV5rVQISsNKqOPXaGN0qffv2FawnBARTp05FUFCQXvtkzDcnJUP//v0FYk9LS0twceJ7dA0ym5Dlf7jgt2jRAlmJSkFbc0pKho4dOwqs/zY2NkKJn9DQUKF5ylkZGPj5+Wnr1lmiHbqoyVdXokQJQU9/+OEHvHz50qQ5vjSdWAlYaSop6bp0SUACVukSm8F9iYsUy1wQUJH08tChQ5JLSguzJFpNKFPRasL4IAIBsnwPHz4c3t7eWrhT1myClAzkucqfPz9IKMpz0ie0bNlSIL+kK0tiF8+Ybly4cCHJlVq5cmVcvXo1y8ddScAqYzolfTsVCUjAKhUBZfLHrLlGbhrW7Js7dy5mzZql0YPWlPLlywvlWoYOHYoZM2ak+D3WcmPtOnIs0e0VExOTySPV7+3o1qPu0/K0cOFCUB4pyZqWq8KFCwuuPxJSEgjQAjB58uQUv8c2OY8MumbcGy0xpswKLj+rBJzUZY49JV1miR8RrH7zzTcYO3asUJaGRZRZcDgtukxWfWWXrXyfTOmcv1laSllDcNGiRSnqMAFrlSpVQJkOGzYsVZ1V/i1w/lauXCmUCuJ/lLGTkUrAypR+CQY4FglY6X9S6MJbs2YNateuLezSaRnJ7AfLY9CNSAZn5VgX/UtIOz2g9enixYtC9h7Hm9ky5v1o5WJA/ObNmwU3bWoZh9oZeea1Ql1mFioTJlhuRR8y5tyyNuONGzdMbsNAUM5x9evXDwUKFNCLfGlZZDIBgRZjuYxRhyVglXn/CVnyThKw0t+0M62fgIoxEPyz4iJES0jr1q0xevRoTJs2TSjYyx29Lh60tvTp00fIgJNfBGmJYZCwse9K5WeWet6qVSuh9AnlzPHWrFlTqLlGax+tIrqQMducPn06WNqGsVgsbyPOddmyZYWgeFNgDGc8D1P8aRERx0ddpsxJW6FrXWZpJuoyA+FZ3oZzzH4weePp06dqszrldcTQz1+8eCFYSXPmzCmMj25/Zv5y3Czno2sd5n9S27ZtBUAnzjELQW/atAlibJyhy1DsnwSsRElIzzqRgASsdCLWVBslPxLdHzly5BCsGB06dMDRo0f15sYgHQMXP9Ydo1WFmXB79uwx+jRt7vCZJcnxcLGlu3TOnDkCP5U+XHIEUYwZatasmRC0TVmTM8vDwyNVnTHUC9zc3AQrIBd8jqd9+/Y4fPgwwsPD9dJl6jIBLUGeqMt0eeurPxkVAi1CBC8cD3WYSRPcDDg4OOgFMNIFeezYMdBtmytXLgHAkjOLhdyNxXolAauMaqX0/RQlIAGrFMWjkw+5ENF6QasJ/ywPHjxoMIHmXOC5A2Zx4uzZswu13ozVokLgREsGXSaUNeNMGB9iCH/+tFbSwsNFkrt/kovqqhC0TpT4c6PU5Xbt2iXpsiEFmnPzwsxCWgm5gdm4caPREeVSV7kxoGWImam//PKLUNvSEHSYFm1uvhgQTx0m0KKl2xD6lprOS8AqNQlJn2dIAhKwypD40vxlskbT1ceFnhxIr1+/NrhgZgISBquSC4vgioSOxkh6OW/ePGEMBIl79+7VmzUwJSWxs7NLythijJsxWa7IoE5LK3WZcWN0uenDCpiSfNkfJmkwq5PgytissIxXI/jm73Dt2rUG6XIjhUPz5s0F4Ne5c2fBcpXSnBjCZxKwMoRZMOE+SMAqcyeXGU/cQdevXx9v3rxRvRDF+wEBhwCPRYDbrE/PweeBj2FAestN/ycDot8AvtsA97mA22zAazUQ/hBIjE0mBO46mSlXsGBBgSWb8R2Gtmgm67TcGwzwrVixorAgqQNV8YnxsPN9jF2v9mC1/Tqse7oRRxyOwT3CAx9liXKtpe3UL9oPp53PYuPzLVj9ZB22vNiG2153EBEfif9UzB8z2RjvRbcVXT7G4rIaN26cEBP41VdfqQdV8b5AwGHAY7GcLp8DPrIszefq9GkTLyD7CETaAz4bAfc5n/SZ51EvAVl8staotwTZdAfTFUwwawy6zGxdBokzloqxmKrimBJkCXjq/xx73+z/rMMbcPDdYTiHOoOfpfcIj4/AdY+b2PZyJ1bZr8WGZ5txzvUC/KP9IeN/idJBS1XTpk0FHWaWLUG3IR8SsDLk2TGBvknAKvMmkRlppUuXFtiQr1+/npxLhouQ1yrgXW/gzY/JH+/6A367PgOsNPQ78inwYQrw9qfkbfI+TiOB0KuATJFygQHJLDnCnf6vv/5qNMzNTLene4oL0oQJE6Bcjy5RlghbtyuYemcGhl8djWFXRik8hl8ZjVVP1uBD2Ack/qc5wPKO9BEWorHXxym0J7b/961JOOV8VgBYyrO3fft2Ib6NLh8uqIa+8FOXK1WqJGwSyJNEXVE44n0ArzXAuz6qdY667LsDSEgDge1//wGhNwHnv4C3PVS36zIeiLADZHEK3WGma69evcA4MLrT6CY05IPyZNwSLVW///57sv4S3NzyvI1Z9+dixNUxKvVt6aPleBf8Lk0AKzIhEscdT+Dvm5NUtjn62p/Y8XIX/KL8k20Sjhw5IugEXe/kIjPk5BcJWBmy9ptA3yRglXmT+NNPPwkghdk7yQrJxvkALhOAN2oWDHmg5bUSSNCwEG3EQ8BhiOpFSL7NN/8Dgs8lA1fciTKGgkGq1BVD/rMUZ5L1+ghgudtnQK38QVB12OEY/rzxt8qFQwRBfJ5yZwYcQhw1Alfekd5Y8HCJ2kVOvt0Db/9FWBytj18OypUUAVz4ySFk6Dt+ui3ZVyY8KANXEFQJQF5DXY73/yIIdWcEVUFnAYfBqevyu75A2O1k4IpWV1KakI7h5s2bBg1eyf9F3imCVwJt+bglgqqzLudBoC6vV6rOJ9yagucBLzQCVwRVW15uB8GTqrbk31v2eCU8I7wUwBU3A8x+pUWelnnGMxrqIQErQ50ZE+mXBKwyZyKfPXsmuCGYgs4/ePk/SmHX7jpRM1AlgiHv9cDHT+U/1I6AXJCYCAAAIABJREFUlirH31NfiMQ2Ca5CLgMyRdfg4MGDhWB2BoIb+oJPudLKxp0+68wpu0+OO57EXzcmpLpwiIsIwZVr2AeV7g9R7v7RAVhkt1QjUCW2e9jhKMLjFbPmWD+PripSBtBNbKiHvb09atSoIbiJ+f+hqMuBwIdp6i1KSbomZ5H1XgckpOI6CrHVcIPwuV2Cq4gHwH+KljSS53LhZ1adIZfIITEqASDLUin38+IHWxAwibqU2jOvfRP0NsUNQlxinGBt1QRUifdb+WQNfKJ8FdSUlni6tZmUQ90w1EMCVoY6MybSLwlYZc5ErlixQgikphuCpHoKR+BR4P2ANAAgLh49gKjXgDpXFeMg3Oepd/+pWuD4Ht0sdEnKHXT1kHOJjOMuLi5ynxjeKfvHRZ+B9wSz8ou+b5QvZt2bq/GCJC4gxxxPICI+Qu1gTzqfxribmoM1tjv2+l9wDnVRAGx0/5D3idlftFgkc6+p7UHmfsCqAHRZqqSJCDwOOAxKmy7TRR35TL0uJ0YBrpOAN93T1q7HEoDxinIHdZkWWJZ/MlTwSiDVuHFjYTOjbFkLjg3GQrsladbhfW8PIDg2RE4SiqeP/ewx/e6sNLd7x+suCMrEg5ZXbmyY0MBEAUNNepGAlThj0rNOJCABK52INVmjBFR0pzHFPiJCbpFmLAjjQtK6aBAE+WxTH28V/RZwHJq2hUgEW2F3FYKAWYaFYIU7aLoGDfk4c+aMEGxPLiVXV1eFrp5xPodxNyemefGYcns6vCJVuzUi4yMx/+EiDFeK0xJBWUrPJ51Ogd+XP0imyTqEtLaFhKhfCOW/k9nnjPmhLjCgmrX+kg7G6LlOTqcub/kc0J7U2peT0OtptLx+tlq97QlEvQDkgq19fHyEbNx8+fKBSQOGeDDxgr83bmSUf29X3a9h4u2padbh8TcnCUBeVfIEXYvbXu7SyAWorM/rnm0EkzXkD4Y6sPwTrW3JNpHyF+rxXAJWehR+Vri1BKwyZ5a5A2XWF/80WVol6Yh8DDhqEgMl5zoRARCBU7yaAsD+e4H3/dIHrBh0/FFxUSdQYTC4IVtSKNPly5cL2V/krJJ3oXDxoLuOgenKi4Mmrx/4PASzCJWPR76PMfn29HS1SUCmvCht2LBBYOL/7bffDDZGpU2bNoIu29raKupyxGPAaXj6dM5xOBD7QVm8n14zpvDdz+lr1/+fZJsPsrHTonLy5EmDLN+0bds2wZVGDi5lbjNmrqoLVk9NjwnKoj8qJqhQwN5RPsLmILXvq/p85LWxQhyi/MSRy6xChQro2bMnSNZqiIcErAxxVkyoTxKw0v1kMqiTcQdkTVbegYK7cYdf0rdoMOMqzlP1ABiDpS67UARm6p7pQlSKeREDqxkYbqjmfQqCu2VSRJCHSz5BIOZjLOY+WJguAMQF5bLbVcSoWJRueNxMU7yL/OJEQMagd/mDZLGMT+GiZIiZa3RP0pJCdyVpCxQOwbL0Wzp1uR8Q46zQXNILUiqoywJUp8Pi+z5bkmUeDhgwQLAeq6PhSLqvnk4YNsAyV3/99RdYyFo8mHix9PHKdOvwKeczKl3aTiFOmH1/frrbfRnwSsGlff78eaHUzrfffot3796J3TeoZwlYGdR0mF5nJGCl+znVD7DakAFgNT8ZsCIbO7PADJ0slHX5VAGr2AwCqyvu17UOrOhiVAZWhw4dEuLZDB1Y0XqZHFjdABzTC6z66whYbU2WQUtLEN3yjAEiNYehHbS6EliRJ0weWPF/hNl48uA8LefkVlMVK5hRYPUq8LUCsGIcG2sYSsDK0DRL6k+mSUACVpkjajJT0xV4+/ZtRfeJkLmXzsXIaQSE1HZVQ/A/kH5XoJBxqOgK7Nixo+A+YQwTOYEM9RDrAnK3z9gw8aArcOmjFSp5qzRZnOx8Hql0BT7xs8eUO+lzBS6wWwK/6C99ZF83b94sLKrkDTPUdPWWLVsKukyuIkW39tP0uwKdRgFxbuJ0KT6TyDa9rkAS7SYqZl+yRiddgax3Z4i6vGXLFsFqSR1gySD5g0SdI6+OTRe4uuZxQ+XmwDfKD/MfLk5Xm8widAxRdPf9v72zgI7q6OI4cQ+WBEkI7u7uUopDcShQtAUK5aOFFi+lULQUK1CkuHsp7lKc4IRACFEixHXZ1993ZpNNNskmJBRJYPacnLzdJ3PnN7P7/u/OnTvCqy2S84o8XI8ePdI1P8tsS49VlmmKD9MQKazeTbtqhx/EjTPZ2nsiU/QTkWqhc+aHUESy0BQ3jcTaRLvBo6GZv6YYQhG5r/5NytocFBSkGcoUHiuxfEVWfu3evVvj8RFPyynjU/5+ehgRxJsRIaV7zKQLU/GN8NVb7ShVlGaW1uvEbh148heRquQeE5H/RwRWz5o1K8sGr4v0GyJ4XUzESB68HgtPJ75mX16dKq4vEXjoudebiCGGyqPuAkmZwoXYFktJCfvFb19WfB0/flyTckNkMhdLXum+TnudYfzZCZnuw9+d/Z4nocknc2ivK2bOrrm7jpEnv8n0dZe5rECkG9F9iRUbRJZ7kdJCTBbIii8prLJiq3xANklh9W4aU9woxRCVyKOjG1StKT1oLzz8PHMiSMx4inqQbMZTspqIhIpiSRxxnDbeJCP/RT4tVfJZPuKHvnDhwoilSx4/TiMOJlnh7++NSAgq8kDly5cvlQgMiApkysXpmb557HHbj0iemNZLJGv8XyZnG35zaqwms7tuOgjh/dFmjN+7d2+W9KYIBmLGouArZgd6eaWI8QvaB64DMtfn7neLX45GZ/ZeMtaa2YY/ZF6wec0DVXKPoOjLpUqVSlynM1k5WeSNYCo83GJ26Llz55KlDAmNDdNMwtAV/hnZ3vxgK8Exaee9uxlwC/EAkZFr6R5zMcWkDjFcKRIhizxyq1evTv4QmUX4CjOksMpCjfEhmiKF1btpVcFZiBPxJCeeQnVvqJo1AMWTflpLzugTRGI5kLS8VdoqRd4DMdtK3/n6PhMiLPRMqozV2mzKYngtVZZtbVlZ5L/4YRezvkxNTREL2KZcd++g+9+ZEkEi75VYOzBZe6Woq8gtNPfqfL5KY2kR3RuRdlsEEqcUa4cPH9YMoYgZVSk9FSmKfK9vL168qImhEeLq2rVrydmIpLViHcrM9uUUs1BTVVBkUs9M+pCH/ePXE/xXZwYuIGaLCo/g6NGjs6w3RdRd6+GeNm1aqu+cWMNvXCa8Vj+cm6yZuSeGw9N6iXUF/7y3nrSWY9L2W93/Ylgy5VD2hQsXNNntRZ4z0U/S+96kZcu7+FwKq3dB+SMuQwqrd9f4IrZDPMmJRUpTZgTXZF/XZKxOYz0/XSHkuyLVFPI0axFxO2M3JCGqQk6kyroupkuLQFSxXuD58+ezxZI2a9eu1ay7J2avpZzuLW4u+x8fyFA+KyGq3EM9kgXmpsU5ICqAOVfmZUhc7Xy0J1UQsbgBiYSbVlZWjB8/Pll8WFplvq/Pha3a5ZnE4sZiqDjZS8woFYuHZ0RciVl7mgWZk11B/5uMzjoUokqsF5gi67qrqyuVK1fWTMIQnqusvDzTrl27NMvZiNnEItGt7kvwP+aRsXxWQlTde/Eg3azr2muLCR5/3s2YuBL5q1JmXRfXEQ9fYnWJYcOGZclZrdq6SmGlJSH/vxUCUli9Fax6Lyp+LAsWLIhYpFQ82SUL/BVniPX/hCdKLFCrK6S0266DQGRpV6c9LKW34KiH8cOCaQUAi+G/sEupPFXC+yPWhBMzqLp3755lg6lT1lnE/dSrV0+TEkA88ae88Qtxdd77Aj/+M0NvIPCIE6NYfmsl3hE+GRJV2vKDooMQQy5pLZkjMluLG2KkKkp7SuJ/bZoFMVwsnvQF+6z8En1ZLL8j7BXLmKTuy0HxC4anNcQtZg8Gbs/4A4IWhsj7pvHudtPzHekcL+gi7ySLERSnCvu0wlX05ZTJY7WXzyr/o6Ojadu2rSbIXnjXdGcHChuFuLrid41Zl+cw/MSoVEN4Ir/U4pvLeJLJhcSFuDr09DATxALlenK+iQS7Wx5uRfT1lC9tmgURvyZmBqpUSXGaKY993++lsHrfLfCBly+F1btrYPFjKNYAE16J+vXra7wp4rNUr5eh8OIg+CwBr7ngsxTCzoM69Q051bnpfRD7DAK2gJhl5TUf/FaDyNCuE6iue/r8+fM1Q5fCrS8Wgs3KT/i6dovtAwcOaIZeBWsx+0vcqFK+hHi5G3SP7a47+eP2GtbeWcch9yMI71N6wyYpr5PyvVhg+eSzU6y7t5E/bq9GLLp8w/8mIpeWvpdYWqVKlSqamXZiqn0qb6a+k97zZ4Ld0KFDNevuib6canhba5+mLx+K78OavrwERDB6Zh8OtNcT/8WQlnhY8N8AInmo94L47Wh3SDH0pz1NZIkXKQzEg42IW8oOffnMmTOaDOzCW5xWvJJoB7FQ+C63PZo+vObOOs0CzSKNhzqt5a60UNL5LwTWZb+rbHmwTdOH/7y7gTNeZzWLh+vL3i6WkhKJY0V+M33rG6ZT1HvZJYXVe8H+8RQqhdW7bWsxS0abYLFJkyaaYHC94urdmpWqNBGf5ODgoLnZi0zQyWYypjo6a37w7bffaoYlhIdQzBbUJ67et+VCVIms/OKGJIaKs7onRZeXSAchUi8I20Vfvn//fpaMqRHZ7B0dHTUrByxbtixV3J1unbLatggbELFswgu0Zs2aLPk9FKKqefPmGu+aEFdZOT5Q275SWGlJyP9vhYAUVm8Fa7oXFTegatWqaW5IYk2wQ4cOEROj35uR7oXewk4xbPbVV19pZiSJvFvCg5JsSv1bKPNtXVJkCdfWRQxnTp48mcDAwLdVXKauK8S0SLYqFgQWnMVsQDGjMSuK7PQqJoShSAsgxJXoyyLPWVYRsKIvjxo1SjP0LhKaipm5KYeF06tbVtgnhjCFB0gsKi7iM0UMU1bKb7Zv3z4qVaqkaX/xgCAmM2T1YWzRrlJYZYXe/QHbIIXV+2lcsdRDw4YNNU95IlmhiPsQK9m/L4El8vuIoT9xoxc3SfGEnGqR3feD6j+VKsTVd999p/FciSWFxE1AeDCEwHofIkbEnYj1Ftu0aaOJXRM2CU+VCLJ/H/b8J7gJJ4sHBeGxEDMxRV8Wge0nTpx4bwJLpDMRfVdMuhCCSvRl0bd1lzh6E/V+V9cQ4krruRL9RaQTmT17tibu6n30GTGMKoL/xeoAIiWEsEmsJeri4pItRJVoNyms3lXv/UjLkcLq/TW8WHNPJNMTQ1Xix0n8iYBgkbFYBF2Lm4NIwvi2/sSaZCIhpQj0FjcfAwMDjQ3CAyGC67Ny8GlmW02kMhAzwoRoFJzFlHshbMWyIcIrJ4Y+3xZn0Y7CW9axY0fNkJTWBhH4LcrNDjFVr+ItloYRMwRFOhFtXxbpRTp37qzp42+7LwvhJPqyGJq0sbFJ1pdFrJIQ2Nn9JVZtEN9VIV4FY/GdFd9VUW+RW+xt92HxmyTElGhXIViFDUJY/fTTT6lSQmR11lJYZfUWyub2SWH1/htQxCiIxYOdnJw0w0LaG9O7/C9u9iJbuZjtlRXXT3sTrSTqtXHjRs3EATGs8i756pYlvILiZuTp6ZltnvAzyl/0ZfGwIG6+YohTt97valvc9MUSTDt27CA8PDyjpmeL44RHW3xHRf3E8Pa7YpqyHGdnZ80QpfC0ZoeJACkbVwqrlETk+zdKQAqrN4rzP11MeIju3LmDyMMk4ipEMkMRI/Q2/oYPH66J15g5c6YmxksMBWaH2Ij/BFjnZBGnIobkZsyYoeEgeLwNzuKawqMwYcIENmzYoAnw/hC8Jzoo9W6KOoq+LBY6FnUXDN4WX9F2IiWBiKESU/7FUGB2vNnrBZnOh6KeR44c0dRbeF7fZh8Wv0Xff/+9JoD+1q1b7y1kIR0cmdolhVWmcMmDM0tACqvMEpPHSwKSgCQgCWRnAlJYZefWywa2S2GVDRpJmigJSAKSgCTwxghIYfXGUMoL6SMghZU+KvIzSUASkAQkgQ+VgBRWH2rLZpF6SWGVRRpCmiEJSAKSgCTwTghIYfVOMH+8hUhh9fG2vay5JCAJSAIfIwEprD7GVn+HdZbC6h3ClkVJApKAJCAJvHcCUli99yb4sA2QwurDbl9ZO0lAEpAEJIHkBKSwSs5DvnvDBKSwesNA5eUkAUlAEpAEsjQBKayydPNkf+OksMr+bShrIAlIApKAJJBxAlJYZZyVPPI1CEhh9RrQ3uspaty2T2RAn4lsf+RP5L/v1ZgPpnCRdV75V8J8lw2qfrKHn4b1Y8LG23iFKe+yaFnWR05ACquPvAO87epLYfW2Cb/p60dz6H+1KFKhH+vu+kph9dp4FcLu7mbmoJZUdLTFzNgQI1NrHMr0549b3oRLjfXaZDN6YvSxCTQtU5ney6/wNEwCzyi3zB2n4unBmQz4tAntv13PFa8wXmbuAh/k0VJYfZDNmnUqJYVV1mmL9CxRQh9xfN1sxg7qQt0itljmKUWjzgP437y93AmMlD+W6cHTs0/ttp7BNZ2wMbGhSJ029PxiMIP6daNt69Gsu+tNkgMlDq+L2/lt0my23/YlVN6V9NDMxEdKGI9Pb2L++CF0rV+cPNZ5KFG/PZ9/M4edN3wJU2XiWh/AoXHel9m1dCpztl7n2Yu3UHnVXZb1qY6TpQGGtq2YcfohgdI5iBRWH8CXJytXQQqrrNw6wjYF/zPz6FElH1bGBhgYxP8ZmVlgZmyEifPnGs9VlHzgz0RDxnHp59aUsrel0lfbuOUXTZr3GsWPTYOr4pS7BmP/foh/XCaKkYcmI6AEnmdx/zoUsjFJ7McGRqZYmBljZFKInsuv4PFRuQoVnm8bSd1iean29W5cfGKT8Xozb2K4u2E0rSuXpGrvBZxwe4Hswkhh9WY6l7xKWgSksEqLTNb4XPHfzchaTtjalqbz1E2cd1nDwArO1Bqxmwdez/Fy9yYkVpW2MMga1chaVijerP+iMo65KjJy732ex6ajSqWwejNtpwRw4LumlMhjS8n2P7D25HX+/LIWJWsPYeN1d/x8PPAOjiFO/WaKyx5XeRfCKnuQeNdWSo/Vuyb+kZUnhVXWbvCwPSOp6pQTh85Luekdjur2r3QsXYjWP1/iWUiKu5Dah6v7t7Bu1Wr2XXtOeArBEPnoNDs3rWHV9rO4h0ST4uysDSIN65RoX1yObGThlG8Y0rcbXTp/Ru9BY/ll4wXcQ2P011HtxopeFSiQsxbjjroSkGoERo3HxT1s/vMPVq5YwLBGzuSxKsqnY35iwe8rWbky/m/VjgsEhUSnsEwh7NEJ/pw5hoE9u9Kt7zB+WLQfF78IVMn0m4L/zb/ZvnEPF5+GEB3tx7UdvzJucC+6fz6CGZsv4RUWS7JTUpSUrd6G/8V3DUuQ174d8y48Jlh1j2U9q1Cs1RROPAxIPpStBOByeAcb1mzl9KNAIlMNv8bgfmEfW9at5/Ct54Sl6OdZnYva8zIHtq3jj5Ur+HV4M0rYW1Ok1Qimzl2W2LdWrtrO2UcBRMY959aRnWzadoIH/uGk6qqaykbx+Pw+tm7YzxWvYKL/BSX4Hid2b2JNQl8VfXbVrgu4v4jU/53QQot8ysUdi5g4vB/du3Sh54AxzFx3iocBUbxM0RmV8Mec2TiHbwf3olu3vgwd/yu7rnoSGpum/1dbynv/L4XVe2+CD9sAKayydvuG7/uaqk62WNf6nsOPgwj9+3/UKlKez9fewTfVlMBYHqz6nKoFrLAoM5iNt54Tpf2Ni7jML+1KYWdVgE/nnMIjRP9PdNamkdI6Bb9Ng6nsaK0ZWjI2tyFXTitNILqBgTlFPvuVsx6hmpuREu7OtVNHOLh/P/v3rmJUkyLksSpD9xnL2bhnP/vF5/sPcPCiG8FRIez7piaFcxqQI0eONP+My37FjQd+OkZF83DLaJoWy4WFTUFKV65GhaJ2WJmaYFvxC1b+40V4okiI48KMTyidvwpfrlrFxO61cLQxw8LGGjNjYwyN89F65nEev424Gx2L39lm+EGNsMpjXZ0xu+/gF3KUCU3LULHnMi4/DUvhcQ3j+OSWlLazpuqoXdz2jUkuMMOOMrFFaexyN2Tiofv4Z7OuHHVwPI1K5sEwnb6Vw7g0gzZc5Vm4K3/0r0lhpzb8ctaVF9rvs27Dqe7xe5/qODu3Y865R5pjVLcX06uaIxYGSf3XpPJItt/0Jkb33MRtheAbaxjZvAS5zQwxNLbAxsYKcxMjDIxL0G/1ZZ5GJCmrmEc7Gf9pWewsbchfsiJVKxTDwcYME5ty9PntBI+DVcnbLLGcrLEhhVXWaIcP1goprLJ20yqBh/iuYWFymZjh2HAw331eF0eH+ow79pggfTcUxZNdI+tRyNaSUgPWcdMvEoVwLs1qS0k7G4r3+oOr3hHpP7VmbSTJrAu/eYANOw7zj3i6Vyn8i4qgG6sYXNsRW/OSDN50F9+of1HdWUjncvkw17nRpBZNBpg3ncE/TwLxd73MuVPHOHZ0J5PalcTetgw9f1nLzkPHOHYs/u/ExQeERyZFrERcnkPHsvlwqD6MPy95EyFElDqQi7/2oHJ+Gxw7LuSiR2gC+wRhlc8BJ6fc2BRpytdrLuAZHo3fscl8UtIOy7LD2HbbR+OBSFbp7PhGCeLY5NaUtjPDrGBd+n/TlwZFC1Lvm73c8U0dWxRzZQ4dy+fHqswgNt70IimGUCH44HialMxL3hYzOPEoKLm3KxuwUYLcuHbhNMeOHWXn1M6UL5iT0p9NZ+W2Q4l969iJi9z3CydGHcGhH5pSOl8txuy7hU9Sd0uqadxpfmxdngKVv2TzDa94j1WEJ3cuneXEsWMc3TGFzhUKkqtK2sJK8d7HuJalyGthT43+c9l/x5+ol/+ijvTB5dA+Tt3zI0RbduQ1futZDad8Vfni99O4h4ofIjVBV5YxoI4zOQu2YdaxhwQlPkQkmZpVtqSwyiot8YHace3aNdq3b4+Xl9cHWsPsX62I2xv5pnlxcpkbarwnBsbFaD91E5d9IonT8wSrBJ5gUoti5LYqQd8113h4/CfalLQnT5URbLvrT7Sec7I/Jd0aqLgxtz1lHGxpMv0CT14oKKGunDu4m22bN7N54yKGNXAmt1VJOk1cwIoNm9ksPt+8hW0n7hEUEZf0tJ3RGCvFn11f16Vw3goM23YHXzEeo33FXGJmm9I45G3JzHNPeKEZg00QVnamGNk1YuLe+wTEJJwTd4257cuSL1dTpp97TNCHMGYrWETcY/v3bSlnZ4mR8NYYGFPk0+9Zc+4ZYSmHj9T3+b13FRxtCtNrpQhqT+i0SiB7xzSkeN78tJt3jsfB2RlORmKsVNxa3JNqzmXos+If3MP/RfVgBz8OH8KULbc0+b+U59v5ul4JnFr+xKkHgSm8f6D4bmVEvWLkTVNYxXBtfleqFLSmaI/FnH2iFf/aDqz7XyFw/3c0L+VAuS/+5IpHZNJ3hRiuLuhKVUc7mkw5zF3/rKuspLDSbVO5/cYJPHr0iEaNGuHh4fHGry0v+AYJqPxx2TObXlXjZwfmyGGAmUNN+v92Co/Q1LE4EVfn06mMPdaFa1OnRE5s8zdi8t+PeZHN4lEyTlBBFRlCgJ83Xp4enJ/TSSOs6k8+zeOUj85qN5b3qkD+NGOsdErNqLCKOsL3DYth59yFBYcv8cDjGc+eaf/usLJ/JRxzl2bwltv4aNwvCcLKPjdNpp7gUaDOTUjx5eiv3zCoz3g23PIhLDtrBx2U8ZsqAm8fYEH/2jjZmmKQIwcGpvZU6z2Hw4+CiEkU/QrPNg6lVuGcFOj4K+efhGgEg+K3g5H1ipG7UFeWXHLXSYuRqqBs8EFGhJXCiz1jaFiyEC2mn+RBYGy80HK0wr7NL5xyfUHs7SX0rFaYSl+s5WoyoROP4JXCSnWLxcIDZVuFEduu46UV+HoJRnFiWmvK5Xem/cw9nLvnodPPn3F3zTDqFMtLyX6ruOQeoSO69F7svX0ohdV7Q/9xFKxSqahTpw5Hjx4lLk7r6/046p7taqm6xYIOpXGs1Y0RvRtR1t4SExMnOi/6B88wnRuzpmJxPPi9BxXyWWBolI82887ioXHZZ7tap29w+EP2zx7KJxUKYGNqqLlRJw3xmVLvHQkrxXs9A6s4YZ3eUKORM33W3MRLE6uSIKwcHGg3/zLuIYmKIv36fhB7Vdxd2oMqRWrSeWhPmlQSbWeCY/s5mnQA2hFuJXA/YxsXJ49dS2acfETQSwXvzV9Su0huivVdxVWPrHvjzlgzZURYgerKXDpXdqLmiO3ceHqZRT2rUdjWFOM8nzDj+EO8j0yhVTlnmk46yj09XqJXCquYo0xsXgaHfO2Ym1Ycl7ZCig9bR9SjWLrxh0Y4dVvC+cehqbxn2su87/9SWL3vFvgIyl+0aBHDhw/H39//I6htNq5izBG+rV2Ucn3XcMc3hCcbBlKtoDUWtSdw4klQ8hlDca6sHVCNglZG5DAwo4S4EX1AsVWaVlTc2TKsjiaerGDNroya/hsr165j/fo/WTC4HoVyWfOuPFaK7yaGVHUiZ8FmjJy5iFXr17M+5Z+YAegeTJRGA3/MwiqGE5OaUaZiT5ZefkrQ062MaFCUnJY1GLv/Ln6Jz3fhnJ7WmjL2uWnww9/c93vEn4Nq4JyrLIM33sArKfAqm36pMyasFN8tDK9bgtKfLeLM7hn0qFaZDj3bUda5OK2m/s3x34ZQp0QFev3+D+56Mti/WlidYEqrsjg4tOWX0w/1B8hrCSvP2T6qAcXzFKDR0Gks+ENPP1+/gd3n3QiIyLoB7FJYaRtU/n9rBAIDA6lcuTInT55EeLDkK2sSUDzX0LecEw2+O4JbYByq2wvoUMoOq/Ij2OvqT6IHXwnj0i/tKW1nQ8meE/m6WUny2RSg+YxjuAfrxA9lzWpm2Cr13UV8Vi4f1mUD5nNxAAAgAElEQVSHsv2On06Qtxq35b2okD/nGxBWz9k8RCQIrc6Yg+kkCI0+wcQmJbCzb8Pcf57yagfURyysFG82DqlBsQaj2HPbl1jVPZb2qExBm7IM2XwzmWCKu7GALhULkKv6N+zcM50e1QqRu8pIdt7yServGe4xWe1ABf/tI6lXzI6qI3fi4q1/vh5x55jRpjzOTcez4KtmVK7clTlH1jGuXSWKN/uOWUMbU6FwI747cBtfPT/frxRWqjss610dJ5tyDBYzEdMVrDGc/qkNFfLb0+qn4zwIzJ7j1FJYZbXvwgdqz9atW6W4yoJtGxUYQGjsS9T/Qtyln2hRojAdF9zAM9ifs9PbUDyvJQW7rcDFJyLB7a7g89dYGhXOhXVZkXLBj3C3DQyq4YhNzsoM33Ib/8QcDFmwwpkwKfbsNJoXz4tVg8mceZI0O0zlc5LZXSuRz9LivwsrIjgwpg5F8hSg02+XeBaaxo1EBFWPrkeR3LmoMWYnd59HvyK+5CMTVtFBBIbGoBLJkFRXmdOhAsXbzeScWwABF2bzmZgBWKAzCy+6Jxel6kf80a8qhXJXod2nFShgn4fa3+3n7vNEt1YmekzWOzTy0Pc0LWVP/nZzOP3ohf7ZuuonrB1Ui+KVG9GwVD7KdJ/PmUfPuTyvC1WK16V+jQLYl/qMhefdkrNLqO4rhZUIOtcEr1tR4JOfOHg/MJ3s7ApBf31Pi9J25Ko6nA1XvYjMhqPYUlhlve/CB2vRzp07qVSpEn/++SeRkZEfbD2zT8VUuMxrR/nipahYtxXtG5Uhj3VuitVqTO2yBbExM8aiWFcWXfBCG2IV+2A1/asWwNqmEsO33cdfMztNwXPHcOoWssXcuTMLz3smHp99WKS2VPHZzJDqTthYFKb5yDms3ryRZT8OpHEJO+zz5MTM+E0IKwXvLUOpWcgWs/x16T95CZt272XXphXMW7oXv4CwRMOiXZbQs1IBrExyU67Nl/y4bBO79u1jz/aNrFo8mxmrT/AsKCpBcH1cwkp1ZzHda5ShVPnatGjbiHIOOclTpDoNapXDKZcFxhZF6DhH5O1KKZgUfLYOp27RnBgZGGBo04jJR+7rSeqa2AzZakPx2cmohsXJZZaPWr2/Z+GGnezZtYmVC5ax+6YXwRoc0Ryb1JKy+cwwNipApwXncQtRUN1cSPeqTlgZGWBSZSQ7EnNUKTw7toypY4YwYMAABvRsRrl8tpjblaNZx+70GzCAgWOW4OqeFPqheB/g+09Kk9fUjPzVuzBq1ko279jK+pVz+G7AEH756y7e2rx5MXdY+UVtCtuYkKt0KwZNWsSGHXvZt2cHG1cvYc7Pqzj6yA/tRM6s2CBSWGXFVvmAbRI5epo1a0apUqWYPHmyZnjQ09MTtTqNJ/UPmMX7r5qC99H5fNWlERWL5sPWzBhDA0OMLfPiXKExPb5dzqknocQkNI0SepFZ7UpjZ2FL9TF7cQ3USayo+HLgfw0pnNOU3HW/Z79r0AcwlBLNvY0jaFw0J6YJQeMGRraU7jCFrb8Po2bRfDT6r8HrohPEPWHfpPZUsLfASCc4PXWCUDU+ZxYxuFFRcpnFp8ZIDKQ3MMa+40KuemgDej8uYaX4nmTJNz1pWrk4+XOaY2xogKGxJXmcytGw6xiWHHlIUJT+3xgl+G/GNy1FHmND8rb+hVNuL7Jd7qq0f0tUPD04na5V82vWAk3sL9oEoZphORX3l/eleiFLjAp04bfzj+M9U6rbLOlZDUcLQ3K3nsUZ16AEr7UKl996UM3RPMVkjqRkoUaOn3H2yuNkZkW5HWDW53VxzmmalLzUwBBzh0aM23U7WQoRtd95lo9sQam8FvGpMxKTnRpgnLcNs04/JCgLe7KksErW9PLNuyJw48YNRo8erUnFMH36dEJCQt5V0bIcvQRiOPJtbYqW7cPqO75oHx71HvqRfRgb8JB/juxl1+6DnL/vT4S+5F7/mYlClM8dLhzezfZtO9l7+By3noUQm3KdD1GOEoHPnQsc3rONLZu3seuvE1x+6Et4nPoVw4P/2chscYGYE5NoVqYCPZZe5mnYq+++yvM9jGlcnNxmRei9QienVbaobcaMVKJ8uffPEfbu2MbOPYc46/KUF9HvYw1QFWGedzh/ZB87d+3nyLk7eIXGpFrOJr5WCpG+9/nn2F62b9nMtp0HOH7pPt5pHp8xFu/iKCms3gVlWYYkkNUJKO6s7FUWp0bjOZZyBmBWt13aJwkkElDw+HMg1Ys1Ysy+u+hJup54pGZDTMSY3YUK+S3J1XACf933Tyf+J/mp8p0kkBYBKazSIiM/lwQ+JgJKoGYx1u3H7/Ii8sOZ2fcxNaGsqyCgEHT3BHt3HuOWfxjp5qtVBXB1zXAaFcmNea46fLvzLn66Ge0lUEngNQlIYfWa4ORpkoAkIAlIAtmPgPJiP+NbV6WQlakmFssod1UGLj//YSa4zX7N80FYLIXVB9GMshKSgCQgCUgCGSIQdp4VY4fSt0d/Rk5ZzqG7/kSodNZezNBF5EGSQNoEpLBKm43cIwlIApKAJCAJSAKSQKYISGGVKVzyYElAEpAEJAFJQBKQBNImIIVV2mzkHklAEpAEJAFJQBKQBDJFQAqrTOGSB0sCkoAkIAlIApKAJJA2ASms0mYj90gCkoAkIAlIApKAJJApAlJYZQqXPFgSkAQkAUlAEpAEJIG0CUhhlTYbuUcSkAQkAUlAEpAEJIFMEZDCKlO45MGSgCQgCUgCkoAkIAmkTUAKq7TZyD2SgCQgCUgCkoAkIAlkioAUVpnCJQ+WBCQBSUASkAQkAUkgbQJSWKXNRu6RBCQBSUASkAQkAUkgUwSksMoULnmwJCAJSAKSgCQgCUgCaROQwiptNnKPJCAJSAKSgCQgCUgCmSIghVWmcMmDJQFJQBKQBCQBSUASSJuAFFZps5F7JAFJQBKQBCQBSUASyBQBKawyhUseLAlIApKAJCAJSAKSQNoEpLBKm43cIwlIApKAJCAJSAKSQKYISGGVKVzyYElAEpAEJAFJQBKQBNImIIVV2mzkHklAEpAEJAFJQBKQBDJFQAqrTOGSB0sCkoAkIAlIApKAJJA2ASms0mYj90gCkoAkIAlIApKAJJApAlJYZQqXPFgSkAQkAUlAEpAEJIG0CUhhlTYbuUcSkAQkAUlAEpAEJIFMEZDCKlO45MGSgCQgCUgCkoAkIAmkTUAKq7TZyD1pEFBCb7F9+U5uBkUQl8Yxej9WAjnxxxIO3H5OpOpfvYek/WE0D49tZNXvi1m8OJN/y7ZywTOc2JggXM9sY+F3vWnR7WdOewZnzv60jcvYHiWEc3N7ULtsVbrNP4NXqCrpPHUYz679zZqZX9O1SVdmnPTgRSJcNWHPrvH3mpl83bUJXWecxCNpZ9I1PvgthZDz8+ldtzxVu87hxNNg4jLbjbI0IzXPL63n59H9aFurFIWci1Ol1TAWn3xKcExGKxqD763DrJvzLYN7daBVs6Y0b92B7gNGM3XRZo7f8SU80ou/Z//C5hvPeKHTBbM0GmmcJJCNCEhhlY0a6/2bqhB2az3f9BzCbyefEhanZNoklfdhfuzbh8m77xEYrc74+WpPVvUsib2FIYZmeShasSYNmragZasWVC9sg7lxDnIY5aVU3cY0a9mcZg1rUcE5FxYmhuQwrsDonXtYPL4/jYvmxNzIAOMKo/jLPYjYjFvw34+Mu8DUxkXIZWyAeZOfueIZgiCgBPzDuhnf0LNeYXKaG5HDuCKj/3pMoDBOCeCfdTMY06sehXNaYJTDmIqj/+KxZud/Nyl7XSGOi9NbUCKvCQZmjfjxgjsvMtGFsnZdFbz3f0uL+p+z+Kw7ISE3Wda7GgWtjLFq+hM3Hwe9wnyFYJctTOlWnQLW5tgUrkmHYROZ+/ta/lwxn2lj+vNp5YLYWlhgZWmKkWlFhu+8i2+GBdsripe7JQFJIJGAFFaJKORG+gQUQi//Srcm3Zl30oOw/+AqUAJOMrVbN6buvc+L6AyKM/UjlnYpSZHaw1h37TlRL7VP8NHsG1GBAtYG5DBtxIxr3oRqb7ZKCNeX9aFS/soM3+VGYMxL3JZ2pqSdOSbvQ1gRx6Pd0xnaZxA/73uQSliqby+gfcm8mJnoCCtto6jv8GuHktiZmbwfYaVEERH5EnUGm0tr9uv+V6IiiHypJmVxcW57mfHl5wyasZu7/pEaYfq6ZWSl85QXhxnfuDiFO8zjytMQTb0V72Ms+HogY5afxSs4vUeAaB5uHUPz4rkxM85LrSHLOesRltqbF+fNqfm9qVbAGmPjUgzadBvvKO33KCvRkLZIAtmbgBRW2bv93pn1ao+tDKlVjb4rruMXqVUur1989NXZtK3bg1/PehGWkeEI9R0WdGjEqG0P8U92M0hHWAnzVC7Ma9+EMTtc8Y9W47O2D6UdLN6TsEqfl9pzDb3LOGCpV1h5saZPGfJZvg9hpeBzYDzjVrrg+eJl+pV4E3sVX/76fjwrbz4j6B0U9yZM/q/XCN4/hrpF8uDYbTnXPcPJuNxR8D44npYl8mBqaEWlYRu54RuZSpAm2qeEcWVeFyoULE3f1TfwjMh4SYnXkBuSgCSQLgEprNLFI3dqCKjdWNWrPEWb/8gZz1AyooNeSU4JZM/wapRqPpkjHiGpn65TXkB1jV/6fsfOx8+JTHYveIWwIo7LP/dm3K7HPI/M+sKqTxYUVrEP19C/mjMtpp7hyVsXVrE8XPsF1Qu3YMrpxx+JsFJxc35HyjpYUrDrcm5kQlgpPrv4un4RchobYFJ6EBtdfEj23JHyeyTeR5zlx08bMeyPa3iEJfsy6TtafiYJSAKZJCCFVSaBfXyHK/jv/JIq+QvSZv51/MJf5a1SExkaQkScGuUVv9lRx8ZRp5AzLWeewzvsVa4JFVHh0bxMddFXCStQYsKJjFVQ/lXS8FipiQ4NJiLm1TZr2l8dRVh4jB5bMt471Co1//6bHJDwWL0fYaUmNvZlKntEbRT/k/zYpiR5zUypOyltYaWoVLz891+Np0WJjSA85iXq5NWLh6OOJDQkgji1oscroxBwajrtSuXF3LQuE0+lI6zUKtQJ5aVFXYkL50VIBLF6y0pxlhJH3Mt/0TaJps9ktD+kuJTuW2FD8CttiOP0lGaUyGtGgUwJKxW3FnamXH5zDAwsqf39IR4GJM540DUjxXYcNxYM4LuNLjwNSTnYGn+o1u6Yl/raKcXlVHGodNpCsAuNiOWlng6gxEUQGhataf8UV9F5q6DS/X6oowmPikOt53o6JyVsKqjCgwmJyOj3U01c3EuUVL8rqa8sPlFHhxMeo3rFkLiwX/t9UoiLiCBGlXpYW38J8tMPgYAUVh9CK77NOqjvs7B9UfLkasqsa76E6dVVsTw7sZjRXVrx6Wd96d+3E3VLFqZc86H8ft6HiLRmAIYd4OsqBclVagg7HgXyenG0rxZWSXhSCKuHtzny2zCal8yNubEhRhYFqf3F7/zjG0Eqk5Uw7u+ZyZC29alaphB5LM2wdapGlwnbuRUQxatkobBBifTk8s6F/K9bXUq3m8XlhOB1rX2ZF1bh3Nm7gNGd61OtQlnKVOzKvIuehLwExe8cf/48mq6NqlOpXBnK1hjG+ofP0R35UfucYcnIbnTu3o9BgwfQ7dMWfNK5E5/PPMqzoBhePtnB6KbFyGlqSI4chlg6FKF4qTKUqdibxde9CVVF4nl5N7+O6UKtul+x+e5tji7qT20na8ysyzJ43R38IhWI9eT072Pp3roNXXr3o2/n+pQuWp6mgxZx0iOUWI0AU/Nkxzc0K54LU8Mc5DC0xL5IcUqWKUPFXou46hWKWonE88pufvu2B/XLtOPn8+6pPVqxPlxYO5HezWtRs15D6pRzJK+dM1VaD2fR0Ue8iNHpwOownl7ex++TBtCyYiX6r3bB7c4RFgxuTLFc5hib5qJow+GsveJDeGbctHE+XPxzEn1a1KZmXWGDk8aGyq2/4rcjDwnSTtpQvNgxriONqpbB2d4SUzGpwrYARUuUokyZMlRo+yNH3AIS+Gh7ic5/1Q3mdSyHg5kBOYwrM3rffZ7Hw9Q5SP+mEuaDb0gMcTo4EHavm0zflkl229k7U+mTL/n10AMCo5IOVqL9uHN8I7NHf0btUm2ZccaVpw/+Zv6QppTIa4GxkTkFag5h+QVPQlUq/P75kwk9alM4lzlGhmbYVe7FryfdCdaJ1VQFu3F282xGtK9G/eEbuXLpEL9/046K+awwNbHEvmRdekzbxS2/yFTftzjff9gwtR+t6tSkboM6lC9kh71zJVoNW8Df9wKISvEFVfudZ+XYPnzW/XMGDhpA97Ytad2pI31/+gtX38hkol8Jd+Xggq/p3KQ6ZZ3tsLawpWDl9oxddwmvsLjEY5Uob67tX8K47vVoMHQNV64dZfmw+L5kXaofyy8/I0y/jtXfSPLTbEtACqts23TvxnD1rbl8UiQ3luW/5sDTF3p+5NV47viSmgVzUWX0QZ68iP+hUbmtoHtpO2xLDmLLw0Ci9Xov3FnetQR2Vk70Xe9KwCvHMPTV+TWFVbnuDO9Uj0adBjB2xjxmjm5HOTtLjA1tafTjaTxDdO6kSgDHp7ajcbef2HM3EHFfjHmyn2+bOpPTzJwSfVdx0ze9QGqFF9c2M2NEB6oUsNYIB9MG07j4n4VVPI/oM5NpXCQXJiY1GHfsCUGJpiv4bx1M5YLWGNm2ZaGLF4kjP7EuLOxcnhpfrOG6b0R8EHiMK6v6VaPG4HXc0dxcFJTY2yzsWBp7c1NqTzzFI/8YXqrVKIGXWT9tCM1L5cXS2ACjQt344ZsutOvalurOObEwNqH6t0d48vwJu0c1oHCeygzffR9/jXpW8Xh1XyoVyEWJ/n9ySxsTpCjE3v6NTmUcMDetzQ8nHvJceL7U/6K8uM7WmV/TqZojNkLomdZj8uknyYVVhAt/fFGbokJgHn9MiOamrSbw0hL6Vi2AtU1xusw/xdMQ0UcVvM5sYOH/PqWMnRXGRg60HDaMNq060W/UJH6aOpxPyzlgbWyIXes5nHMPSXUz19cbiXBh1cA6FKvYlblH3QjRCB01gZeX0q96QWxsitN57gncg+O/J4qi8PJlJIfH1adYbhPsOizk0pMXxL0U9VYSPWj6ylK81zOwihPWBjkwdOjCsmvPktpX3wnpfRZxizVD6lG84mfMPvyIYK3dV35nQE1Hjd2dZh+L/34rAVzZsYzpn9ehUG5zDEwq03VYD9p3H8DXE+exfNkMBjYqSh5zYxzaTGPpxM/5rMdX/DDvD9avXcCoT8pib2lCziZTOeIaiAqFcJetTB/WgtJ2VpgYGOHUpAvNq9aiecc+DP6iG80rOWJrZkQOQ1uqfb0ZF9+oxDiyiFtrGdagBBW7zOTggyBihXhRB3J1xUBqF7LFplgHZh12I0grOuNu83vfmtTpt5TzT0MT+r4b679sQN2By7nsHpZ4bSXoLLN7tqb7pE1c9o7g5b8xeByeQvsy9liYF6XbwrM8DonjxfWtzBremnIO1hr7HTv9j5FdO9GjbQ2K5LXGxKQKX+++jU96cxDSax+5L1sRkMIqWzXXuzZWzbOV3SiW1wLz5nNw8Q1P/MFJtET9kEUdi5HHzJQ6k87hJdwl4qW+zYI2RcltWZj+m90I0KusYjkytjqONmaU+nI3T4JiEp/+Eq//yo3XE1aG5sXoMv8kzxKfOMM48l1dnGxNMKs3hfPPtDdSBd8dX1KjbCfmXvQkNPHJV8F/yyAq5rfCyKQcI/aK9Aj61KNuBWI5N6URRXIZ8yaFlfrRMrqWtsfCNKWwgtgzk2lUJDemKYRV3MUfaVYsPy1mXMIjOMkTEXttNv3H7+ChT0R8W6jvsahTvLBKPRSo4LNhABUKWGFono9G3+3lfmAMMd7n2bpyI6fcXhD+YBndyzpgYVqL8cceE5gg+tR3F9GlrANWzr1Zc8cnMW5OfW+x5vO0hgJjz/9I8+J5MEklrEI5M60VJe0L02XxZTyTuVYV/HZ/TV1nW0xsavLtPlcCtO7R2JNMbFyM3CbGODT8jm23Aoh3zCi8ODiW+kVyYWzTnJkXn6KDSbdRdbZDOTu9NaUcCtN50SWepbRhz2jqF8mJiU0Nxu55kCAyxekxHPuhYbyw6vgb1zxCU3/PdErRbsZd/YW2ZewxNciBccmBbLydgfgq7cnJ/odx9qc2lMlXmE4LL/A0cVqtOEjBb+8YGhXLhalNDcbsusfzBHaK+2o+r+KIlZEtNb7exA2/pIeLqNPT+KS0HabGFhTvOJujj5MeyuJuzKdzhXyYWzViyslHBGq/U4o3GwZXx9nGEJMinZh7xC3JoxV1jzVD6uBsY4SBdR3GHRDeOSDsHD+3L0f+wh2Zf/YJIUldGZTn7B/bhBK5TbGpPpodd3w1D3iqK7NpX74QzSYd52GAtnCIu/kbX03aws0n8bMyNed/24xqnaZz+EFAUmypEsjubxpQLJeRJq5t/XXP+P6r+LF1eG2K2Bpi7lCP0Ztv4BMZg8+lXazddJz7z8MzJs6TtY18kx0JSGGVHVvtndkcy/HvalDQxoT83dfg6h+VWvgoLzg+9RPKlajN6O2PktInqN1Y0rkYecxtabfoHn66Y1CJ9qu4/ktLiuQ2xaL5L9zwSXpSTDzklRuvJ6xSp1tQCNw8gDL5LDEu8gVbXQPivWyqW8xrU5z8dUex9fRV7ru64prw9+DYj3xSNA9mBsZU/t9hngS9Kr5Fxe35bTWxNGZv0GOldvudbmkIqziNNyu1sIo9Oo46hXOTs/oott8JIDHrheoOO7dfxD84oa3TFVYQvX8UVZ1sMbLvxOIbXqmGOpTgU8xoX4VStUew8c5zxMigeCmPV9CrXH4sbVsz79ozQhM+f5WwUt35lY6l7TFPIawUjz8ZULkgNnYdWXTDM7XnJvYyM1uXxM7UiHxdlnDNM6GvxV3m509KYWdqSYtfLvM0OGmsRnm6ms8rFsDSpDwj9jxIFBRpdUnFYx0DqzpiY9eBhTp1Sjw+7gq/tC2NvbCh82KuPtP299cUVuen06qUHSY5cmBcaghb7/jo9wwnGqB/Q3m2gcHVC2Fr154Fl5+SKuwq7ipz2oshRyMcOv3Gpafxwk95voUvazhjY1KGIVtv4a3z8KT4bGRIdWdsjAvTd/X15LMPg3fzde0i5DQpRv+1N/FKnI0Syp7RtSma04QifVdz7VmCuE8wW/VgOb2rOGJpaErV0Xu54xfNs41DqVU4J3bt5nHxcXAqQRp3dS6dKuTDzMiBjr9e5EmIQtzJKTQvbU/OKl+y7oo3EVoxprrPvj0X8faPn5WpuruUnlWKUGfoHxy8eC/xe+/q+oCTv3ShQgFLDIwr8OU2l4S6R/P3+IaUyGNE3rZzOOeW2h79LSA//dAISGH1obXoG61PCFu/KIW9pTGF+m3GLSA6tbDSU54S6c7Z9RNoXzo35kamNJ9zBx+9wQVqXBd1pHgeM0wqj+WIx+tkQn9TwgpiDozUDJsZO/Zh3YPnmtlVardlfFbSnpwFylOnQROaNWum568Fnacd4OmLV/FRc3tBuywhrBT/PYys6YSNkSGWhZszYvkZPMJiU92YeIWwikkQVibOffjzrm+i50lPt0j4SCHS4zybpnSmgr0VxqZNmHH5KVo98yphpb6zkE6lxVCh7lCgQsDWoVR1ssa09DC23/fTIzBiOD25CcXyGGNcqDdrbnnHx5sJYdW6FHZmeoSV/2YGV3HE2qQMQ7ffw09HOKSun7BhGNUK2WBaeihb78Z7R5IfF8OZqSJIXdjQi1U3vRJi3l5PWKluLaRz+XyYi6HAgt1Zed2T8Fc5TZMbpPFIBWwfTs3CtpiWGsxmvV6vGM7+2JJSdiYYF+rJyuvPNOUoz7emKawI3sUojXjSI6xiDjGuQXFyGxeg67IrOjMTw9gzuo5GWBX9fA3XPZMLK9SurOhTBUdLI3J+OoeLbq5sGymEmCmlBm3kplfy2ChNVWPO8VPrMtibGOPUYzlXnoahDvyL75qUILexIRbOjRm66BiPXsSk6PsK7mu+oLpzHvKXqUG9xvq+981o1qITE7bfxUfz4BjDofENKZnHBKfuyzRDiplujlTtIz/IjgSksMqOrfaubFb8Wd+3BHYWxhQduB23wPSH6qKenGLVpKH0GfgtC3buZEorZ3KbmaUrrNx/70rxvOaYlBvJAZEJPdO/RG9XWMUeH0+dQrnI3XYht3z0DIVmqi2yjrASQzw+hybRumRuzESwuIEFzo2+ZOmpp4RpglQSKvbGhFUUT8/8ybSvPmfg2Hls2z6VtiUdsDB7E8JKxc157Sltb4ZJiUFsvuerJ+WAgueazzVeBkOLZvx8yT1ezL0xYSVSJnSgrIOwYSAb7+gbllPwXNufyo5WGFo0ZcbFJ7zQOMheT1gpAdvihY1hDgwsGzPttdJTqHD5tTPl85ljUnwA62956xHHCp7rvtAIV0OLJkw/70aQIkba0hNWuzMgrPLTZckVniYG/r1CWBHN0QmNKZnHGNOGUzhz9zgLPqtIfnMTivf/kxsphZjowooX6wfXwNnaEIvG0zjjGogihjePz6BzRQcsEvq+U/2BLDjsmuRxJ46z0z+hrENuWv18lkeiwq98SWH1SkQfyQFSWH0kDf161Qxl++DSOFga49R3I4/S8ljFunNw+mdUrfgJ47a6EBD9kn+1Q4GvEFauiztRPG/W9VhF7xdeLBvMav3A6afBSXEWrwU0KwkrUQGF0Fub+aFdWewsjDDIkQNDqxKaAO9noQmznd6AsIr1OMysnrWo8slYNlzxJfLlv0lDgW9IWF2f004jrAztOrJY31AgELJzOFWdbDC0bsXsKwlDXm9QWN2Y24Ey9mYY5u3Ab/qGAoHQXSOp4WyLoXVLftGKu9eMsRIenOW9KlLA0ii1hOUAABFJSURBVIAchg50WnwVD72e4fQ6q4ob8ztphJVh3vb8euVp4rCs7lmhu0dRq0hODK1bMPPCY40gfPfCKo7zMz7VMM7ZejYXH5xkvkZYGZK33Xy9Q4EQyp5v6lI0lyHWzWdw7lFQgmdKIezuTqZ9Vpn81sbxfd+yGO1//htXzQNkNIe/b0TJPGZU+2Yfd3xfNcwvaElhpdtnPuZtKaw+5tZ/Zd3jOPNDfEB3nk6/8+C5Hle7+hk7vqxJwZzF6LPuHgFR2mCZhBirdIWVCpe5rSmS2wyL5rO5+V5jrPQPBcaenEC9QjkxydmSOZe800g3AbE+z/COFPl80oOa1YRVgq3qQK5vnkjHCvaaGX4GFlUYs+9RfDD+fxRWiuduRjUoTO6iPfjjhg8RCd0jMcbqjQgrBd+NA6nsaI2BcUW+3vcQ/1SuT4XALYM1x5iUHMIWrVfrjQkrYcMgjVdHxN2M3Ksv9YFCYMJwoUnJwWxK9Gq9nsdKCOMna/pTVXjAchji0OFXLnokzHJLrxsm26fgu3ko1Z1tNPFCI3bpWz9QIXDbVxpBKLxxGxK8Wu9eWEVzbEITjdipOGIHt73d2fxlLU2wuHH5r9h+S0+MmRLIjhEioNyEEl8Ir1aK3zB1EC47fqS7mLFpYoCBRUWGb3HBJyqWczM+1XggbZtM5ehDMXtR3ysOPy9fYmNEJL0UVvoIfYyfSWH1MbZ6huus4L+hL6XsLTBt8COXRC6hFOeqrs6geWExY+hTfrvnl5QnSXisOonZgukNBcZy7NuamlmBpb/aw5Og2AzFcCU3IZp9w8vrXysw+YEaD016S9roi7FSfP6kX9l8WBqaU2HEroSn2RQXDrvI3P/N46RH0Ctycb1lYWVSnW+PPiZIJzeQEIb1C+fCJMWswJjDs5h5wCPZpAK13wmmti5OHrP4VAnugXHoxliJdAspM6+nH2Ol4vrsNpS0M8O61VyuPUua7SaEVc9y+dMZCqzNDydTJwjVH2MFarcV9KpQQNNOtb4/gpuwPdlLxY257SntYEWxARu47ZNwg31jwkrYsJLeFQtiaWhGzfGHcU2VrDMhw3o+K4r1X4eLt/Ym/7rCCpQXJ5jSSgTlC1FQmZHbb78iFiweihL6EJcH/kREq1E//oO+YnafsPu7gzzwT83u5oIuVMhvTdF+a7nhFR/79M6FlfDQiRirXOUZtkUEjL/k8er+VCtkhaFZDcbuv4tfynQGKhcWdq1EAeui9F19lWcR/xJzYgHzD7jioROlr35+hpmdK5DPwoQqX+/mrk80fluHU7uoLYZmZRj05zU8tU8FOv0q/OpSJi08zCOvCCmsdLh87JtSWH3sPeAV9Ve7L6db8bxYFe7PZrfU+agidw2lbD4rjadgzGEPgrW/yWHHGV/PEVtjU5rMuqE/eF3xZnXvkthZO9FnvWuKNQBfYVji7hC2DipLPisDcpjUZcqFZ5oEmYm7k22o8VzdSyMUTcqNYP/jwGQxXVF7R1CxoDXGBXuy9kHC0jlqbzYOqEh+S0MMzEvQ9dfTPAtTJQpAdcBFfuvTisF/XMf7lVnpVdyc8ynF85piWncy554GJ5t+rfZcTe/SYq3ACoz6y41A3ZuE2pPVCWsFVhj1F246O5XnGxlQrgBWxvnosOiqjh3hiOGpknnNMbRsyZzrnonDPDGHvqXTuJ3cS5YMUcF7XX/KF8hN3YmneCqWr1GesapPOc0ahWW/2s1D/+RxdtpZgcZOvVlzOyltQjz2SPaNrEohWwOMy49kr6t/Iu/wU5NpViw3JqaN+PHCU14kKHbl2Wr6ls+PpUlZvtyZeiaeymU+7UvbY2Zahwkn3ZLyWCmB/P1dY4rmMsGk3FfsvP88uchV32Nx13LkL9iMH4894YW2n8ZdYsYnJcmrb1ag7wYGVc5o8LrQ7UEcGteEYrlMMSn7JdvvpQiiV99nafcKFHRsyrQjbiRNIo3h0Hf1KJrLmFztFnA1g+kW4hkrBJ+dScfyDpgbGmBarAsLTjxJyOGVrPMnvol6vJ+pn7Vl2PJzPBX52pQgDn/fXJOWwKTsULbeTuH5UT9gWc9KODo2YcohV7SaVcwKHJbGrEARvB4/88+ZXn9c45luVL0IXq8vgtfTjrEq3GdVqlmBcfeW0rOyE4U/+Zljj4I0HiQl6AgTWpYij6kJZQZv4qZX8pnL6gfL6VPVCccmkzj4IACNX+nYZHr/sIWrT7WzMgUa4bn7ilpF7Kg59i/u+cWh+O5gZP1i5DQywLxoe34++ICgGG2slZqgKysY2nEoS067JuSO084KNKZg1yVcck96kEiELzc+CgJSWH0UzfwfKqn4sHFAeexz1uL7U8/QzZsprqq6NZfWRfNgamBIzko9mbJkFSt+GUPvjl1pWSEXlqZG5G/1A0uX/crmCwGEa/MHiZOj/uab6gXJVWIQ29xeM/N67HVmtSpCblMDchgVpu/6++kINBU3Z7emWB5TjPJ1ZeVdv8Tp/6DmyfKulLQzx9CmFXOv+yQO+8XcWkr38vGBrgaGFhSs0oLP+g6g72fNqFCgALW+3sKdwOhU3rzU1MM5/G1tCtmK/DdfsftRQLKbf9zVmXxSLA+mxoXpt+E+z3UTpsZdZZbwJpkaU7jfBu4/17mBqB+xokdZ8lkYYpyvHgOnL+GP5XMY260V3b7sRrV8OTEzykXVXpNYeugBIVEviT70P2qVa8H3+10JTGyTGK7OakPJUm2YdcYjoa2jOTmhIUVymWBcrAu/7DzCkXXTmLjiAr4vovFa24/y+a0wtG7KjHPuBCelBRK9g9sLO1LawRwDQ1sqdp3AwpXLmf1tXzp3a0nFvDaYGeWj+diFLF6wmXO+IURHnWRS46KavFLFOs9ix+HDrJs2kRXnPXkR+y8RR8fTQOSWMi7F0G33k3lnlMAzzOxYHjvLnFQfuYWbz6MS2iQG1w2DqV2yKr0WneNZqM6gTvhB/ldXrLVnRoMpZ3iis+qz6sY8OpSxx8zIkR5/uOClN2VI8lYWCSVnda6AvWVOqo3YzA2/JBsebRxG3VJV6bnwDB66NigerOlXiYJWhpjWmcAxTdLM5NdN/51C4MUl9K/thI2JIcb2Vek2YQ2nH78gJnEZGDWh7hfY+vPnNK79CSNXnMczNOkBQZMI87NK5LPKSbXhG7iWmPA2BrdNX1G/TDV6LDiFu84PgPreUnpUKoCFcVE+X5t8QWeR46pfVSdNjqsWM07jFpTk6xaerq9qFMbWyJZWs87zWKuq0QavG2JcoBk/7LiBf0K2dyXwHHO6V6FIxe4sOPWE4MQmVAg6N4duVfJjlbMqX667jLc2f0KMG1tGNKRste7MO/Ek8aEv5tgEmlZryZhtLvhqQxeI4caCrlQu15qpfz8g3tkYw73VA6njbI1RDgMMLfJTsUlHevfvS9eWVSjkWJMhq/7BU7scl+LDpmG1KGxriHXDSRy+75/G8GH6rSn3Zn8CUlhl/zZ86zWIuvQTzZ3z03jaebySMmTGl6sEcX5+Nyo7WGBkIH588lHls2nsuefP7WXdKSuEioEZji2ncNAtJD4rcoLFkUe/pY6TI01+PKP5kc9MRZTAC6yZOoru9YuRyzw+8DpHDgOM85SmSZcvmLjhGgERib++EObCrtlf0qyoEBliFpwlxZp9wZTN1wnwucrOeSNpWSI3Fpp9ZjjV78uMPQ8J0Sw/ohB0dRVftyhJHp2yzJ3qMXDeEdyCY14hqtT4XNjEgvGfUU1kXjcQS7bkpkK7oUzacInnXlfZ/dsP9KrpiG3C8jE2pT9h0PgVnHB/xuVdv/FDr5o42ppiKALMbUrzyaDxrDjhQWjCE3T0/Q2MbFw04XwDjHOXp+svh3l4ZSFdK5alcuPujJmzgRMP/IlWKcQcGkeLulUpWbY+Xb+ayLylS5kz9jPq1+nMhO13Em9ook3i7q6mf/WCWBsZYGCciwq9FnLyyiFWTB1I42KCmQE5DIyxr9KRYT+s4PiTEE12enGu8uIii/rUoKAIEDYQiRMr0Wnidlx8b7GyX1UKWBliYFaQZj/s4X5gNApx3F0zgJqO1hgbGGCcqwI9fz2F+/3TbF74Pd2qF0xklKtcGwZPWMdFv7BET5gS7MLWyd2p7mSPY8VmdB80iF5t61OraV9+2n2bgMS1TRQCrmzl5361cdJwNcAkf026jlrKiae+uPy1kBHNi5Hb3EiznI9NyZYMnnsQtxdJGb/T6q9K8C22TelBjUL2OFZoSreBwoYGGhum73LBPzJBfSqh3D6wghnDmmsyjhsb5MDAKC8V2w3i2xkbOe8Vkkx4p1We9nMl7CEHF46kfVUnTZZyQ2Mr7J1LUK58GYoXciB/8Vq0G/EbRx6+SGwf7bnivxJ8m+3TelHT2UFjd9cvBtGrnbC7D9N23OR5hNZuXy5v/41vRAZ1K2MNn9zl2jJ02hau+HhwZe8SxnesRD4bEwxyGGBaoDY9vlnMUTcvbh78nYndqlLA1lSzz6JoE/qNXcFpjxdE/6sVViYUaNSdDnWrU7tJazq0b0a1UsWp2m4s6y97E5YqkFEh5PYOpvepTeF8jpRv8hlfDOxNu4a1adp7Ktuu+6L7UxBzbAodG9egZJl6dB7yPXOWLGHOuB40btCJcRuEx1fn6UAJ5ubG8XSomA8rYwNy5BC/HeYUrNWHGXtu81zTlgr+VzYx88vmlBJZ/EU7GttRse1Axi09zIPAiGSeaV3mcvvDJCCF1YfZrm+2VkoIJyc0pniDcRx6GoxOCE9COWoife5z5dJtngXH8TIxgDsSr1uXuPLAj3CxqKquVYoPWwdXpnjDcRx0D068MeoekvW2Ywl6fIMLp89y9YEPYbEp6vS+DVaH433/Cv9cf4RfhFikWIR9BOIXFI0qqVHirYyJJOqlWJg6jhDPe1w+c4aLt5/xIvplinw+8YerQjxw+ecCVx8FEKXSDodksMJKJL4Pr3H5tgdBMTrXj/TmzpWr3PcJJTbRsyKuqSLEw4V/LlzlkX8kcZksTlxBifLD9foFTp06z3W3wMzbnMGqpXeYEvUc1xtaGwKIfJ2KpFdAmvviCHpykwtH9rJt02Z27D/KORcPgmPE4jGvfgm7HyXYfc3N/x3anSSsNHmsnnjh7nKRM2cuctsjmJhX9juF6Odu3Lx4mtPnrvHIXyz2rae+MVFEq9So/1UR6v2Aq+fOcPHWUwKj0uET9wL32/9w9uwV7nkGE/0yIyT1lC0/+igISGH1UTTzG6hk+GXmdqhLr8X/4KP7RPdal1YIOv4DTap24pcTnoSmVmqvdVV5kiQgCWRnAimElb68VNm5etL2j4aAFFYfTVP/94qqvQ7yQ9e+zDnmnrC47OtdM/bRJoa1bMcPO+8RmLiWyutdS54lCUgCHwoBKaw+lJb82OshhdXH3gMyWX/1swNM7tOfn/bf50WMPj97+heMvLeB/30+nEUnniTP8J3+aXKvJCAJfOgElBfsHFmLIjmNKdRrJVc94tfs+9CrLev34RGQwurDa9O3X6PIhxxYf4C7wZGZm/WiBHB25z5u+oa/VtzM26+YLEESkATeG4HwC/zcriz2ZgZYVP2aHbf0rbf43qyTBUsCGSYghVWGUckDJQFJQBKQBN48AQXfc2uZPqInHdp8QqtWrWj1SWs69hrCNzO3c8M3FG3asTdftryiJPDmCUhh9eaZyitKApKAJCAJSAKSwEdKQAqrj7ThZbUlAUlAEpAEJAFJ4M0TkMLqzTOVV5QEJAFJQBKQBCSBj5SAFFYfacPLaksCkoAkIAlIApLAmycghdWbZyqvKAlIApKAJCAJSAIfKQEprD7ShpfVlgQkAUlAEpAEJIE3T0AKqzfPVF5REpAEJAFJQBKQBD5SAlJYfaQNL6stCUgCkoAkIAlIAm+ewP8BdL3pgH9iXpoAAAAASUVORK5CYII=;" vertex="1" parent="1">
          <mxGeometry x="180" y="510" width="488" height="293.78" as="geometry" />
        </mxCell>
        <mxCell id="Cw8pjtoGrhIZzzrx0jGk-8" value="" style="group" vertex="1" connectable="0" parent="1">
          <mxGeometry x="110" y="70" width="70" height="30" as="geometry" />
        </mxCell>
        <mxCell id="Cw8pjtoGrhIZzzrx0jGk-9" value="" style="rounded=1;whiteSpace=wrap;html=1;arcSize=28;" vertex="1" parent="Cw8pjtoGrhIZzzrx0jGk-8">
          <mxGeometry width="70" height="30" as="geometry" />
        </mxCell>
        <mxCell id="Cw8pjtoGrhIZzzrx0jGk-10" value="" style="ellipse;whiteSpace=wrap;html=1;aspect=fixed;fillColor=#f5f5f5;strokeColor=#666666;fontColor=#333333;" vertex="1" parent="Cw8pjtoGrhIZzzrx0jGk-8">
          <mxGeometry x="10" y="5" width="20" height="20" as="geometry" />
        </mxCell>
        <mxCell id="Cw8pjtoGrhIZzzrx0jGk-11" value="" style="ellipse;whiteSpace=wrap;html=1;aspect=fixed;fillColor=#f5f5f5;strokeColor=#666666;fontColor=#333333;" vertex="1" parent="Cw8pjtoGrhIZzzrx0jGk-8">
          <mxGeometry x="41" y="5" width="20" height="20" as="geometry" />
        </mxCell>
        <mxCell id="Cw8pjtoGrhIZzzrx0jGk-12" value="" style="endArrow=classic;html=1;exitX=0.5;exitY=1;exitDx=0;exitDy=0;edgeStyle=orthogonalEdgeStyle;elbow=vertical;entryX=0;entryY=0.5;entryDx=0;entryDy=0;" edge="1" parent="1" source="Cw8pjtoGrhIZzzrx0jGk-15" target="Cw8pjtoGrhIZzzrx0jGk-17">
          <mxGeometry width="50" height="50" relative="1" as="geometry">
            <mxPoint x="135" y="90" as="sourcePoint" />
            <mxPoint x="660" y="70" as="targetPoint" />
          </mxGeometry>
        </mxCell>
        <mxCell id="Cw8pjtoGrhIZzzrx0jGk-13" value="走道" style="text;html=1;strokeColor=none;fillColor=none;align=center;verticalAlign=middle;whiteSpace=wrap;rounded=0;" vertex="1" parent="1">
          <mxGeometry x="550" y="40" width="40" height="20" as="geometry" />
        </mxCell>
        <mxCell id="Cw8pjtoGrhIZzzrx0jGk-14" value="Relation Classification" style="rounded=0;whiteSpace=wrap;html=1;" vertex="1" parent="1">
          <mxGeometry x="240" y="140" width="200" height="30" as="geometry" />
        </mxCell>
        <mxCell id="Cw8pjtoGrhIZzzrx0jGk-15" value="Return-Type Classification" style="rounded=0;whiteSpace=wrap;html=1;" vertex="1" parent="1">
          <mxGeometry x="240" y="190" width="200" height="30" as="geometry" />
        </mxCell>
        <mxCell id="Cw8pjtoGrhIZzzrx0jGk-16" value="" style="group" vertex="1" connectable="0" parent="1">
          <mxGeometry x="670" y="50" width="70" height="30" as="geometry" />
        </mxCell>
        <mxCell id="Cw8pjtoGrhIZzzrx0jGk-17" value="" style="rounded=1;whiteSpace=wrap;html=1;arcSize=28;" vertex="1" parent="Cw8pjtoGrhIZzzrx0jGk-16">
          <mxGeometry width="70" height="30" as="geometry" />
        </mxCell>
        <mxCell id="Cw8pjtoGrhIZzzrx0jGk-18" value="" style="ellipse;whiteSpace=wrap;html=1;aspect=fixed;fillColor=#f5f5f5;strokeColor=#666666;fontColor=#333333;" vertex="1" parent="Cw8pjtoGrhIZzzrx0jGk-16">
          <mxGeometry x="10" y="5" width="20" height="20" as="geometry" />
        </mxCell>
        <mxCell id="Cw8pjtoGrhIZzzrx0jGk-19" value="" style="ellipse;whiteSpace=wrap;html=1;aspect=fixed;fillColor=#f5f5f5;strokeColor=#666666;fontColor=#333333;" vertex="1" parent="Cw8pjtoGrhIZzzrx0jGk-16">
          <mxGeometry x="41" y="5" width="20" height="20" as="geometry" />
        </mxCell>
        <mxCell id="Cw8pjtoGrhIZzzrx0jGk-20" value="应" style="text;html=1;strokeColor=none;fillColor=none;align=center;verticalAlign=middle;whiteSpace=wrap;rounded=0;" vertex="1" parent="1">
          <mxGeometry x="775" y="30" width="40" height="20" as="geometry" />
        </mxCell>
        <mxCell id="Cw8pjtoGrhIZzzrx0jGk-21" value="设置" style="text;html=1;strokeColor=none;fillColor=none;align=center;verticalAlign=middle;whiteSpace=wrap;rounded=0;" vertex="1" parent="1">
          <mxGeometry x="860" y="30" width="40" height="20" as="geometry" />
        </mxCell>
        <mxCell id="Cw8pjtoGrhIZzzrx0jGk-22" value="" style="group" vertex="1" connectable="0" parent="1">
          <mxGeometry x="760" y="50" width="70" height="30" as="geometry" />
        </mxCell>
        <mxCell id="Cw8pjtoGrhIZzzrx0jGk-23" value="" style="rounded=1;whiteSpace=wrap;html=1;arcSize=50;" vertex="1" parent="Cw8pjtoGrhIZzzrx0jGk-22">
          <mxGeometry width="70" height="30" as="geometry" />
        </mxCell>
        <mxCell id="Cw8pjtoGrhIZzzrx0jGk-24" value="" style="ellipse;whiteSpace=wrap;html=1;aspect=fixed;" vertex="1" parent="Cw8pjtoGrhIZzzrx0jGk-22">
          <mxGeometry x="10" y="5" width="20" height="20" as="geometry" />
        </mxCell>
        <mxCell id="Cw8pjtoGrhIZzzrx0jGk-25" value="" style="ellipse;whiteSpace=wrap;html=1;aspect=fixed;" vertex="1" parent="Cw8pjtoGrhIZzzrx0jGk-22">
          <mxGeometry x="41" y="5" width="20" height="20" as="geometry" />
        </mxCell>
        <mxCell id="Cw8pjtoGrhIZzzrx0jGk-26" value="" style="group" vertex="1" connectable="0" parent="1">
          <mxGeometry x="845" y="50" width="70" height="30" as="geometry" />
        </mxCell>
        <mxCell id="Cw8pjtoGrhIZzzrx0jGk-27" value="" style="rounded=1;whiteSpace=wrap;html=1;arcSize=50;" vertex="1" parent="Cw8pjtoGrhIZzzrx0jGk-26">
          <mxGeometry width="70" height="30" as="geometry" />
        </mxCell>
        <mxCell id="Cw8pjtoGrhIZzzrx0jGk-28" value="" style="ellipse;whiteSpace=wrap;html=1;aspect=fixed;" vertex="1" parent="Cw8pjtoGrhIZzzrx0jGk-26">
          <mxGeometry x="10" y="5" width="20" height="20" as="geometry" />
        </mxCell>
        <mxCell id="Cw8pjtoGrhIZzzrx0jGk-29" value="" style="ellipse;whiteSpace=wrap;html=1;aspect=fixed;" vertex="1" parent="Cw8pjtoGrhIZzzrx0jGk-26">
          <mxGeometry x="41" y="5" width="20" height="20" as="geometry" />
        </mxCell>
        <mxCell id="Cw8pjtoGrhIZzzrx0jGk-30" value="走道" style="text;html=1;strokeColor=none;fillColor=none;align=center;verticalAlign=middle;whiteSpace=wrap;rounded=0;" vertex="1" parent="1">
          <mxGeometry x="950" y="30" width="40" height="20" as="geometry" />
        </mxCell>
        <mxCell id="Cw8pjtoGrhIZzzrx0jGk-31" value="" style="group" vertex="1" connectable="0" parent="1">
          <mxGeometry x="930" y="50" width="70" height="30" as="geometry" />
        </mxCell>
        <mxCell id="Cw8pjtoGrhIZzzrx0jGk-32" value="" style="rounded=1;whiteSpace=wrap;html=1;arcSize=50;" vertex="1" parent="Cw8pjtoGrhIZzzrx0jGk-31">
          <mxGeometry width="70" height="30" as="geometry" />
        </mxCell>
        <mxCell id="Cw8pjtoGrhIZzzrx0jGk-33" value="" style="ellipse;whiteSpace=wrap;html=1;aspect=fixed;" vertex="1" parent="Cw8pjtoGrhIZzzrx0jGk-31">
          <mxGeometry x="10" y="5" width="20" height="20" as="geometry" />
        </mxCell>
        <mxCell id="Cw8pjtoGrhIZzzrx0jGk-34" value="" style="ellipse;whiteSpace=wrap;html=1;aspect=fixed;" vertex="1" parent="Cw8pjtoGrhIZzzrx0jGk-31">
          <mxGeometry x="41" y="5" width="20" height="20" as="geometry" />
        </mxCell>
        <mxCell id="Cw8pjtoGrhIZzzrx0jGk-35" value="modified(旅馆，客房)" style="text;html=1;strokeColor=none;fillColor=none;align=center;verticalAlign=middle;whiteSpace=wrap;rounded=0;" vertex="1" parent="1">
          <mxGeometry x="100" y="145" width="140" height="20" as="geometry" />
        </mxCell>
        <mxCell id="Cw8pjtoGrhIZzzrx0jGk-36" value="r" style="text;html=1;strokeColor=none;fillColor=none;align=center;verticalAlign=middle;whiteSpace=wrap;rounded=0;" vertex="1" parent="1">
          <mxGeometry x="685" y="30" width="40" height="20" as="geometry" />
        </mxCell>
        <mxCell id="Cw8pjtoGrhIZzzrx0jGk-37" value="" style="shape=flexArrow;endArrow=classic;html=1;entryX=0.5;entryY=0;entryDx=0;entryDy=0;" edge="1" parent="1" target="Cw8pjtoGrhIZzzrx0jGk-14">
          <mxGeometry width="50" height="50" relative="1" as="geometry">
            <mxPoint x="340" y="110" as="sourcePoint" />
            <mxPoint x="350" y="80" as="targetPoint" />
          </mxGeometry>
        </mxCell>
        <mxCell id="Cw8pjtoGrhIZzzrx0jGk-38" value="" style="endArrow=classic;html=1;entryX=0.5;entryY=0;entryDx=0;entryDy=0;" edge="1" parent="1" target="Cw8pjtoGrhIZzzrx0jGk-15">
          <mxGeometry width="50" height="50" relative="1" as="geometry">
            <mxPoint x="340" y="170" as="sourcePoint" />
            <mxPoint x="310" y="240" as="targetPoint" />
          </mxGeometry>
        </mxCell>
        <mxCell id="Cw8pjtoGrhIZzzrx0jGk-39" value="" style="group" vertex="1" connectable="0" parent="1">
          <mxGeometry x="195" y="70" width="70" height="30" as="geometry" />
        </mxCell>
        <mxCell id="Cw8pjtoGrhIZzzrx0jGk-40" value="" style="rounded=1;whiteSpace=wrap;html=1;arcSize=28;" vertex="1" parent="Cw8pjtoGrhIZzzrx0jGk-39">
          <mxGeometry width="70" height="30" as="geometry" />
        </mxCell>
        <mxCell id="Cw8pjtoGrhIZzzrx0jGk-41" value="" style="ellipse;whiteSpace=wrap;html=1;aspect=fixed;fillColor=#f5f5f5;strokeColor=#666666;fontColor=#333333;" vertex="1" parent="Cw8pjtoGrhIZzzrx0jGk-39">
          <mxGeometry x="10" y="5" width="20" height="20" as="geometry" />
        </mxCell>
        <mxCell id="Cw8pjtoGrhIZzzrx0jGk-42" value="" style="ellipse;whiteSpace=wrap;html=1;aspect=fixed;fillColor=#f5f5f5;strokeColor=#666666;fontColor=#333333;" vertex="1" parent="Cw8pjtoGrhIZzzrx0jGk-39">
          <mxGeometry x="41" y="5" width="20" height="20" as="geometry" />
        </mxCell>
        <mxCell id="Cw8pjtoGrhIZzzrx0jGk-43" value="" style="group" vertex="1" connectable="0" parent="1">
          <mxGeometry x="280" y="70" width="70" height="30" as="geometry" />
        </mxCell>
        <mxCell id="Cw8pjtoGrhIZzzrx0jGk-44" value="" style="rounded=1;whiteSpace=wrap;html=1;arcSize=28;" vertex="1" parent="Cw8pjtoGrhIZzzrx0jGk-43">
          <mxGeometry width="70" height="30" as="geometry" />
        </mxCell>
        <mxCell id="Cw8pjtoGrhIZzzrx0jGk-45" value="" style="ellipse;whiteSpace=wrap;html=1;aspect=fixed;fillColor=#f5f5f5;strokeColor=#666666;fontColor=#333333;" vertex="1" parent="Cw8pjtoGrhIZzzrx0jGk-43">
          <mxGeometry x="10" y="5" width="20" height="20" as="geometry" />
        </mxCell>
        <mxCell id="Cw8pjtoGrhIZzzrx0jGk-46" value="" style="ellipse;whiteSpace=wrap;html=1;aspect=fixed;fillColor=#f5f5f5;strokeColor=#666666;fontColor=#333333;" vertex="1" parent="Cw8pjtoGrhIZzzrx0jGk-43">
          <mxGeometry x="41" y="5" width="20" height="20" as="geometry" />
        </mxCell>
        <mxCell id="Cw8pjtoGrhIZzzrx0jGk-47" value="" style="group" vertex="1" connectable="0" parent="1">
          <mxGeometry x="360" y="70" width="70" height="30" as="geometry" />
        </mxCell>
        <mxCell id="Cw8pjtoGrhIZzzrx0jGk-48" value="" style="rounded=1;whiteSpace=wrap;html=1;arcSize=28;" vertex="1" parent="Cw8pjtoGrhIZzzrx0jGk-47">
          <mxGeometry width="70" height="30" as="geometry" />
        </mxCell>
        <mxCell id="Cw8pjtoGrhIZzzrx0jGk-49" value="" style="ellipse;whiteSpace=wrap;html=1;aspect=fixed;fillColor=#f5f5f5;strokeColor=#666666;fontColor=#333333;" vertex="1" parent="Cw8pjtoGrhIZzzrx0jGk-47">
          <mxGeometry x="10" y="5" width="20" height="20" as="geometry" />
        </mxCell>
        <mxCell id="Cw8pjtoGrhIZzzrx0jGk-50" value="" style="ellipse;whiteSpace=wrap;html=1;aspect=fixed;fillColor=#f5f5f5;strokeColor=#666666;fontColor=#333333;" vertex="1" parent="Cw8pjtoGrhIZzzrx0jGk-47">
          <mxGeometry x="41" y="5" width="20" height="20" as="geometry" />
        </mxCell>
        <mxCell id="Cw8pjtoGrhIZzzrx0jGk-51" value="" style="group" vertex="1" connectable="0" parent="1">
          <mxGeometry x="445" y="70" width="70" height="30" as="geometry" />
        </mxCell>
        <mxCell id="Cw8pjtoGrhIZzzrx0jGk-52" value="" style="rounded=1;whiteSpace=wrap;html=1;arcSize=28;" vertex="1" parent="Cw8pjtoGrhIZzzrx0jGk-51">
          <mxGeometry width="70" height="30" as="geometry" />
        </mxCell>
        <mxCell id="Cw8pjtoGrhIZzzrx0jGk-53" value="" style="ellipse;whiteSpace=wrap;html=1;aspect=fixed;fillColor=#f5f5f5;strokeColor=#666666;fontColor=#333333;" vertex="1" parent="Cw8pjtoGrhIZzzrx0jGk-51">
          <mxGeometry x="10" y="5" width="20" height="20" as="geometry" />
        </mxCell>
        <mxCell id="Cw8pjtoGrhIZzzrx0jGk-54" value="" style="ellipse;whiteSpace=wrap;html=1;aspect=fixed;fillColor=#f5f5f5;strokeColor=#666666;fontColor=#333333;" vertex="1" parent="Cw8pjtoGrhIZzzrx0jGk-51">
          <mxGeometry x="41" y="5" width="20" height="20" as="geometry" />
        </mxCell>
        <mxCell id="Cw8pjtoGrhIZzzrx0jGk-55" value="" style="group" vertex="1" connectable="0" parent="1">
          <mxGeometry x="530" y="70" width="70" height="30" as="geometry" />
        </mxCell>
        <mxCell id="Cw8pjtoGrhIZzzrx0jGk-56" value="" style="rounded=1;whiteSpace=wrap;html=1;arcSize=28;" vertex="1" parent="Cw8pjtoGrhIZzzrx0jGk-55">
          <mxGeometry width="70" height="30" as="geometry" />
        </mxCell>
        <mxCell id="Cw8pjtoGrhIZzzrx0jGk-57" value="" style="ellipse;whiteSpace=wrap;html=1;aspect=fixed;fillColor=#f5f5f5;strokeColor=#666666;fontColor=#333333;" vertex="1" parent="Cw8pjtoGrhIZzzrx0jGk-55">
          <mxGeometry x="10" y="5" width="20" height="20" as="geometry" />
        </mxCell>
        <mxCell id="Cw8pjtoGrhIZzzrx0jGk-58" value="" style="ellipse;whiteSpace=wrap;html=1;aspect=fixed;fillColor=#f5f5f5;strokeColor=#666666;fontColor=#333333;" vertex="1" parent="Cw8pjtoGrhIZzzrx0jGk-55">
          <mxGeometry x="41" y="5" width="20" height="20" as="geometry" />
        </mxCell>
        <mxCell id="Cw8pjtoGrhIZzzrx0jGk-59" value="r=modified(旅馆，客房)" style="text;html=1;strokeColor=none;fillColor=none;align=center;verticalAlign=middle;whiteSpace=wrap;rounded=0;" vertex="1" parent="1">
          <mxGeometry x="100" y="195" width="140" height="20" as="geometry" />
        </mxCell>
        <mxCell id="Cw8pjtoGrhIZzzrx0jGk-60" value="S&lt;sub&gt;t&lt;/sub&gt;" style="text;html=1;strokeColor=#6c8ebf;fillColor=#dae8fc;align=center;verticalAlign=middle;whiteSpace=wrap;rounded=0;" vertex="1" parent="1">
          <mxGeometry x="40" y="75" width="30" height="20" as="geometry" />
        </mxCell>
        <mxCell id="Cw8pjtoGrhIZzzrx0jGk-61" value="&lt;span style=&quot;font-size: 10px&quot;&gt;R&lt;sub&gt;t&lt;/sub&gt;&lt;/span&gt;" style="text;html=1;strokeColor=#6c8ebf;fillColor=#dae8fc;align=center;verticalAlign=middle;whiteSpace=wrap;rounded=0;" vertex="1" parent="1">
          <mxGeometry x="40" y="145" width="30" height="20" as="geometry" />
        </mxCell>
        <mxCell id="Cw8pjtoGrhIZzzrx0jGk-62" value="&lt;span style=&quot;font-size: 10px&quot;&gt;Π(R&lt;sub&gt;t&amp;nbsp;&lt;/sub&gt;| S&lt;sub&gt;t&lt;/sub&gt;)&lt;/span&gt;" style="text;html=1;strokeColor=#6c8ebf;fillColor=#dae8fc;align=center;verticalAlign=middle;whiteSpace=wrap;rounded=0;" vertex="1" parent="1">
          <mxGeometry x="110" y="360" width="80" height="20" as="geometry" />
        </mxCell>
        <mxCell id="Cw8pjtoGrhIZzzrx0jGk-63" value="&lt;span style=&quot;font-size: 10px&quot;&gt;Z&lt;/span&gt;&lt;sub&gt;t&lt;/sub&gt;" style="text;html=1;strokeColor=#6c8ebf;fillColor=#dae8fc;align=center;verticalAlign=middle;whiteSpace=wrap;rounded=0;" vertex="1" parent="1">
          <mxGeometry x="40" y="200" width="30" height="20" as="geometry" />
        </mxCell>
      </root>
    </mxGraphModel>
  </diagram>
</mxfile>
